<?xml version="1.0" encoding="UTF-8"?>
<svg id="Layer_1" data-name="Layer 1" xmlns="http://www.w3.org/2000/svg" viewBox="0 0 280 112">
  <defs>
    <style>
      .cls-1 {
        fill: #fff;
      }
    </style>
  </defs>
  <g id="VoSUFQ">
    <g>
      <path class="cls-1" d="M144.36,25.64s.07.06.12.06l3.76.03,2.65.04c10.59.18,24.74,1.3,35.25,2.86,7.99,1.18,18.15,3.18,25.46,6.51,2.51,1.14,5.28,2.99,6.71,5.39.28.47.58,1,.63,1.56.12,1.3-.02,2.55-.26,3.84-.83,4.51-2.53,9.85-4.18,14.14-.78,2.03-1.69,3.96-2.77,5.83-2.19,3.81-5.29,6.92-9.08,9.15-2.17,1.28-4.44,2.34-6.82,3.24-7.16,2.69-15.34,4.6-22.92,5.7-8.43,1.23-16.89,2.06-25.39,2.23l-2.07.04c-1.02.02-2.03.03-3.07.03-.09,0-.22.03-.25.07h-4.17s-.07-.06-.11-.06l-3.13-.03-2.14-.04c-10.24-.21-24.76-1.73-34.79-3.96-3.79-.84-7.49-1.87-11.16-3.11s-7.06-2.68-10.24-4.75-5.91-4.91-7.89-8.25c-1.13-1.91-2.07-3.9-2.87-5.98-1.3-3.38-2.41-6.79-3.34-10.3-.52-1.96-.92-3.9-1.15-5.91-.03-.28,0-.55-.12-.77v-.76c.1-.25.12-.56.21-.85.31-.99.88-1.84,1.61-2.58,1.81-1.86,4.64-3.29,7.05-4.27,5.07-2.06,10.6-3.46,15.99-4.48,9.84-1.86,20.77-2.98,30.78-3.65,5.57-.38,11.11-.74,16.68-.83l2.32-.04,3.63-.1h5.05ZM122.82,43.21c.68-.29,1.26-.68,1.77-1.21.91-.95,2.37-2.88,2.12-4.29-1.14-.56-2.2-.26-3.35.02-2.41.57-4.04,2.33-5,4.54-.21.49-.28.98-.09,1.49,1.17.6,3.4-.06,4.54-.55ZM142.12,65.56c1.88-.27,3.48-1.29,4.47-2.91.99,1.37,2.64,2.09,4.3,2.06v-11.84s0-13,0-13c0-1-.7-1.88-1.6-2.19-.49-.17-1-.21-1.51-.21l-1.9.02v10.19c-2.17-2.12-5.41-2.56-8.22-2.01-3.29.81-5.41,2.97-6.34,6.2-.41,1.43-.49,2.84-.43,4.31.19,4.21,2.97,7.94,7.01,9.2,1.37.43,2.77.39,4.23.18ZM99.77,51.67c-.97-3.33-3.46-5.52-6.84-6.11-2.68-.37-5.6.12-7.65,2.1v-7.87c-.01-.76-.64-1.38-1.27-1.67-1.18-.55-2.53-.52-3.81-.44l.02,12.91.02,14.11c.89.03,1.75-.17,2.55-.56.69-.35,1.24-.81,1.74-1.48,1.28,2.03,3.24,2.89,5.55,3.04,1.26.08,2.45-.03,3.64-.48,3.33-1.26,5.75-4.16,6.36-7.69.34-1.94.24-3.92-.33-5.85ZM108.5,64.78l-.04-24.91c0-.76-.59-1.3-1.15-1.68-1.29-.59-2.61-.58-4-.49l-.02,6.46v20.62s5.21,0,5.21,0ZM161.4,40.8c0-1.66-1.35-3.01-3.01-3.01s-3.01,1.35-3.01,3.01,1.35,3.01,3.01,3.01,3.01-1.35,3.01-3.01ZM186.95,54.41c-.89.61-1.63,1.42-2.03,2.44-.62,1.61-.59,3.42.05,5,.54,1.33,1.54,2.27,2.88,2.74,3.17,1.11,6.48-.03,8.99-2.11,1,1.67,2.85,2.48,4.67,2.45l-.04-12.24c0-1.09-.07-2.07-.26-3.12-.36-1.89-1.64-3.45-3.52-4.03-3.28-1-6.86-.78-10.02.55-.46.19-.82.47-1.22.74-.31.21-.63.55-.68.93-.14.93.61,2.24,1.21,2.91,2.08-1.11,3.72-1.91,6.09-1.82.57.02,1.12.07,1.65.27,1.41.53,1.51,1.85,1.46,3.21l-2.41.14c-2.4.14-4.8.57-6.8,1.95ZM172.59,50.27c.65-.23,1.33-.29,2.02-.2,1.77.24,2.09,2.14,1.93,3.64v11.07s5.23,0,5.23,0v-13.42c.17-2.41-1.29-5.17-3.67-5.86s-5.03-.07-6.69,1.76c-.17.18-.3.3-.54.48l-.04-1.93c-1.65-.13-4.79-.18-5.25,2.03l-.02,16.95h5.29s0-11.64,0-11.64c.02-1.3.48-2.42,1.75-2.87ZM121.62,61.17c-2.02,0-3.65-.89-4.31-2.88,3.01.06,6.93-.7,9.29-2.59.74-.59,1.36-1.28,1.73-2.17.72-1.71.52-3.73-.55-5.26-.65-.92-1.56-1.57-2.6-2-4.33-1.79-9.8-.63-12.43,3.47-1.67,2.61-1.89,6.07-1.2,9.04.64,2.76,2.61,4.99,5.23,6.04,3.1,1.24,6.55,1.21,9.63-.09.64-.27,1.21-.6,1.74-1.03.42-.37.57-.85.5-1.4-.13-1.03-.52-2.02-1.13-2.84-1.45,1.25-4.06,1.59-5.9,1.7ZM155.57,64.78h5.19s-.01-18.98-.01-18.98c-1.92-.17-5.33-.1-5.17,2.66v16.32ZM116.66,74.73c15.51,3.92,33.88,4.19,49.29-.13,3.17-.89,6.23-2,9.21-3.35.98-.45,1.07-1.29,1.02-2.34-11.13,3.51-22.68,5.04-34.35,5.14-12.25.1-24.86-1.42-36.56-5.06-.04.5.01,1.01.16,1.45.17.51.5.75.98.95,3.32,1.34,6.72,2.46,10.25,3.35Z"/>
      <g>
        <path class="cls-1" d="M145.38,59.17c-1.14,1.86-3.3,2.67-5.38,2.11s-3.17-2.38-3.4-4.48.14-5.04,2.12-6.34c1.53-1.01,3.45-.99,4.99,0,.96.62,1.75,1.53,2,2.67.15.66.14,1.34.13,2.01l-.02,2.21c0,.65-.1,1.23-.46,1.82Z"/>
        <path class="cls-1" d="M93.25,60c-1.76,2.05-5.59,2.02-7.38-.64-.24-.35-.45-.78-.5-1.2-.14-1.27-.07-2.49-.09-3.77-.01-.91.14-1.74.67-2.5.69-.99,1.69-1.76,2.89-2.03,1.4-.32,2.89-.01,3.97.92,1.79,1.54,2.03,4.67,1.58,6.83-.19.9-.56,1.71-1.14,2.4Z"/>
        <path class="cls-1" d="M122.19,54.13c-1.82.97-3.81,1.15-5.83,1.18-.07-1.75.23-3.55,1.43-4.81,1.45-1.43,4.45-1.82,5.69.14.84,1.34,0,2.76-1.29,3.49Z"/>
        <path class="cls-1" d="M195.59,60.47c-1.27.89-3.19,1.37-4.63.7-.53-.25-.89-.72-1.09-1.26-.56-1.47.06-3.02,1.45-3.75,1.5-.71,3.17-.85,4.85-.92v4.38c-.01.35-.35.62-.57.85Z"/>
      </g>
    </g>
  </g>
</svg>