<?xml version="1.0" encoding="UTF-8"?>
<svg id="Layer_1" data-name="Layer 1" xmlns="http://www.w3.org/2000/svg" viewBox="0 0 280 112">
  <defs>
    <style>
      .cls-1 {
        fill: #fff;
      }
    </style>
  </defs>
  <g id="tgsdHM">
    <g>
      <path class="cls-1" d="M205.62,31.61l.02,24.28c0,4.43-1.93,8.6-5.8,10.86l-46.16,26.92c-.6.35-1.34.49-1.99.34-1.68-.4-3.23-.76-4.96-.97-6.07-.75-13.86-.64-19.73,1.16-.46.14-.86.16-1.32-.09l-48.1-25.38c-1.96-1.03-3.22-3.2-3.22-5.41V24.04c0-3.3,2.75-5.9,6-5.9h9.33c3.93.05,7.28.97,10.17,3.86,3.94-4.08,9.8-4.99,15.13-3.8,1.54.39,2.93.93,4.33,1.82,1.22-1.21,2.75-1.9,4.47-1.87h4.82c3.1-.01,5.59,2.2,6.05,5.33.38-2.98,2.76-5.22,5.79-5.33h8.33c1.97,0,3.72.92,4.88,2.5,1.16-1.53,2.83-2.49,4.74-2.49h8.22c.64-.07,1.22.33,1.81.24l1.71-.26,8.51.02c1.49,0,2.8.63,3.93,1.64,3.65-2.13,8.35-2.51,12.42-1.66,4.4.92,8.08,3.95,9.67,8.16.64,1.69.94,3.41.94,5.32ZM113.78,57.63c3.71-1.23,6.09-4.35,6.09-8.36v-18.12c.01-3.59-1.91-6.38-5.28-7.48-4.35-1.41-10.1-.48-12.26,4.05-.54,1.13-.76,2.33-.77,3.62l-.02,19.22c0,.9.09,1.68.28,2.53.48,2.19,2.01,3.93,4.11,4.7,2.41.89,5.44.62,7.84-.17ZM195.88,62.68c3.1-1.03,4.4-3.81,4.39-6.99l-.02-23.92c0-1.31-.17-2.53-.65-3.72-.96-2.38-3.08-4.08-5.59-4.63-4.4-.97-9.85-.05-11.8,4.56-.47,1.11-.65,2.25-.65,3.48v21.42c-.01,1.03.08,1.91.25,2.89.47,2.71,2.23,4.89,4.76,6.01,2.67,1.18,6.46,1.85,9.31.9ZM98.45,49.67v-17.41c-.01-1.27-.16-2.42-.56-3.6-.7-2.05-2.3-3.72-4.31-4.51-1.16-.46-2.34-.62-3.59-.62l-9.62-.02c-.36,0-.65.23-.65.64v38.95c0,.32.11.49.31.61.16.09.33.09.56.04l8.37-1.74c3.22-.67,5.81-1.82,7.61-4.65,1.55-2.45,1.88-4.75,1.88-7.68ZM136.99,50.89l-4.84.14c-2.32.07-2.37,2.53-2.85,1.75v-28.63c0-.37-.25-.63-.59-.63h-5.01c-.35,0-.62.24-.62.62v31.84c0,.38.28.62.63.6,4.48-.32,8.91-.51,13.41-.58.33,0,.54-.3.54-.59v-3.92c0-.36-.27-.62-.68-.61ZM161.19,42.43v13.97c0,.37.22.62.57.66l4.62.5c.43.05.73-.21.73-.68V24.15c0-.36-.25-.63-.58-.63h-8.01c-.26,0-.51.19-.57.45l-3.14,12.79c-.42,1.72-.7,3.36-.91,5.1-.02.18-.19.3-.33.27-.09-.02-.22-.11-.24-.27-.21-1.75-.5-3.4-.92-5.13l-3.02-12.69c-.07-.31-.29-.52-.62-.52h-8.12c-.36,0-.63.23-.63.63v31.24c0,.39.31.59.63.6l4.51.07c.38,0,.63-.26.63-.65v-14.02s-.14-7.82-.14-7.82c0-.15.08-.28.18-.31.08-.02.25.03.29.18l2.98,13.53,1.81,8.7c.08.38.26.61.67.64l3.61.24c.35.02.65-.13.73-.51l4.93-22.3c.04-.17.22-.21.3-.19.11.02.18.16.17.32l-.15,8.57ZM176.1,48.99c.36-.03.56-.2.63-.54l2.33-24.31c-.01-.37-.23-.63-.59-.64h-8.02c-.39,0-.65.23-.66.62l2.34,23.94c.06.34.25.53.57.56l3.42.35ZM178.15,55.33c0-2.06-1.67-3.73-3.73-3.73s-3.73,1.67-3.73,3.73,1.67,3.73,3.73,3.73,3.73-1.67,3.73-3.73Z"/>
      <g>
        <path class="cls-1" d="M92,53.4c-.78,3.13-3.23,3.13-5.91,3.72l-.02-25.55c0-2-1.57-2.2-1.54-2.59,0-.08.13-.18.26-.18h4.7c1.46.01,2.66,1.16,2.66,2.68l.02,20.09c0,.66-.07,1.2-.18,1.82Z"/>
        <path class="cls-1" d="M191.65,57.71c-1.25.05-2.44-.34-3.16-1.32-.45-.62-.66-1.41-.66-2.23v-22.95c0-1.69,1.28-2.78,2.88-2.84,1.71-.07,3.17,1.08,3.17,2.92l.03,23.3c0,1.51-.43,3.05-2.26,3.13Z"/>
        <path class="cls-1" d="M112.82,52.52c-.94.94-2.41,1.19-3.61.7-.86-.36-1.37-1.25-1.37-2.24v-20.21c0-1.79,1.43-2.94,3.12-2.85,1.5.08,2.7,1.14,2.7,2.74v19.61c.01.84-.25,1.65-.84,2.24Z"/>
      </g>
    </g>
  </g>
</svg>