<?xml version="1.0" encoding="UTF-8"?>
<svg id="Layer_1" data-name="Layer 1" xmlns="http://www.w3.org/2000/svg" viewBox="0 0 280 112">
  <defs>
    <style>
      .cls-1 {
        fill: #fff;
      }
    </style>
  </defs>
  <g id="ZDIxYm">
    <g>
      <g>
        <g>
          <path class="cls-1" d="M163.09,66.37c-4.76,5.42-5.48,11.81-6.16,18.61-.9.94-2.41,2.01-3.64,2.71l-1.39-.19c-.32-.04-.8-1.29-.75-1.59l3.01-17.73c-1.99.39-4.09,1.07-6.22,1.87-1.48,5.3-2.79,10.41-4.02,15.95-.29,1.31-.19,3.69-.75,4.77-.8,1.55-4.42,4.45-6.16,4.22-1.24-.17-.34-4.63-.11-5.58l3.55-14.15c.06-.26-.24-1.14-.51-.99l-4.38,2.52c-3.06-3.62,3.99-5.64,6.42-7.1l3.08-11.78-4.98,2.07c-.26.11-1.2.13-1.29-.06-.94-2.12,1.24-4.85,2.12-5.22,7.99-3.34,15.99-5.28,24.52-5.93,3.81-.29,14.01-.52,15.97,3.39,1.22,2.43-.4,5.45-3.27,5.35l1.53-1.54c.18-.37.55-1.19.71-1.54.55-1.2-2.73-2.88-4.48-3.07-8.76-.93-15.73,1.19-24.09,3.64l-2.9,11.79c1.86-.37,9.32-2.89,10.4-1.88.25.23.47,1.04.49,1.39l.06,1.43,2.81-3.78c1.2-1.62,5.14-3.46,6.44-1.38.36.57.22,2.1-.21,2.75-2.12,3.19-4.1-.88-5.8,1.05Z"/>
          <path class="cls-1" d="M179.05,78.3c-2.79,3.46-7.65,6.9-12.11,4.82-2.04-.95-3.01-3.11-3.13-5.08-.41-6.27,4.75-13.23,10.94-13.5,1.62-.07,3.36,1.11,3.37,2.86.04,4.95-4.81,7.58-9.14,8.55-.06.51.12,1.94.45,2.62.76,1.6,2.78,2.26,4.43,1.51s3.62-2.43,4.61-3.9c-.9-6.26,4.65-13.92,10.96-13.16,1.66.2,2.96,1.67,2.74,3.4-.59,4.75-5.05,6.28-9,7.34-.35,1.37.53,3.58,1.96,4.16,3.19,1.3,6.07-1.81,7.98-3.92l.91.09c-1.91,3.87-4.97,6.3-8.96,7.02-2.49.45-4.69-.78-6-2.81ZM183.64,71.87c2.45-.78,3.71-1.81,5.13-3.29l.78-2.17c.08-.24-.18-1.18-.42-1.29-1.82-.82-5.9,4.1-5.49,6.75ZM175.81,67.06c-1.15-1.59-6.07,2.47-6.02,5.74,3.23-.04,7.74-3.35,6.02-5.74Z"/>
        </g>
        <path class="cls-1" d="M128.26,93.62l.73.46c.18.11-.57.97-.77.97-1.43,0-4.05-.3-5.8-.6-3.06,2.9-7.08,6.05-11.75,5.11-2.99-.61-4.36-3.47-3.73-6.28.69-3.03,2.67-5.4,4.91-7.66-1.67-3.35-1.72-6.77.04-9.69,1.27-2.11,3.44-3.37,6.05-3.5s4.65,1.54,4.53,4.32c-.16,3.69-2.95,5.68-5.97,8.27,1.49,2.25,2.92,3.88,5.24,5.73l4.33-5.66c.15-.19.51-.58.66-.75.19-.21.82,1.08.65,1.43l-3.12,6.35,4,1.5ZM115.5,82.7c3.02-1.91,4.71-7.72,2.05-8.34-1.49-.35-2.87.99-3.06,2.3-.32,2.15.07,4.03,1.02,6.04ZM118.59,93.02l-5.78-5.34c-.88.96-2.06,2.71-2.26,4.08-.25,1.81.95,2.81,2.54,3.46,2.01-.19,4.13-1.07,5.49-2.21Z"/>
        <g>
          <path class="cls-1" d="M94.52,77.05l-3.42,2.51c-.3.22-1.69.08-1.84-.21-.19-.36-.47-1.19-.38-1.62l1.66-7.4,5.04-20.91c-2.96.76-7.55,1.91-9.08-1.04-.86-1.65-.19-4.63,2-5.26l-.92,2.29c-.19.48-.01,1.77.34,2.15,1.57,1.67,6.74.27,8.35-1.03l2.22-8.55c.58-2.25,1.59-4.46,2.78-6.41,1.94-3.18,6.05-4.74,8.76-2.65,2.97,2.3,2.01,6.64-.28,9.63-1.84,2.41-4.1,4.27-6.46,6.2l-2.19,8.98-4.34,16.94c-.06.23.14,1.34.32,1.23l.86-.55c4.54-3.36,8.96-6.39,14.14-8.71,2.01-.9,9.53-3.15,8.66-.25-.43,1.44-1.3,2.96-2.19,3.58-7.91-.22-17.64,6.4-24.02,11.09ZM104.31,40.04c2.54-1.99,3.61-4.19,4.91-6.94.12-1.36-.19-2.37-1.45-2.92-2.06.5-3.13,7.49-3.46,9.86Z"/>
          <path class="cls-1" d="M124.53,69.22c4.52-.76,6.84-6.96,7.32-10.71.18-1.4.68-9.46-.61-9.3-2.89,2.75-5.3,5.2-9.04,3.2-2.4,2.54-4.16,5.19-8.21,5.67-1.7.2-3.6-1.11-3.81-2.96-.23-2.07-.19-4.3.16-6.22,1.04-5.7.94-8.14,7.71-9.13l-2.16,8.6c-.27,1.08-.78,5.44.42,5.88,1.67.6,4-2.22,5-3.48-1.4-6.67,3.88-15.55,10.79-15.49,2.51.02,4.76,1.67,4.87,4.24-.48-.02-1.56-.56-1.84-.97-1.11-1.64-2.99-1.91-4.5-.57-3.06,2.74-5.57,8.79-3.57,10.78.33.33,1.81.02,2.18-.36l3.88-3.99c.32-.33,1.59-1.27,1.91-.95,2.86,2.87,1.79,12.67.87,16.58-1.33,5.65-5.54,11.68-11.6,12.9-1.35.27-2.98-.92-3.11-2.16-.58-5.54,4.28-14.33,9.42-16.24.43,1.34.41,2.98-.37,3.6-6.22,4.93-8.03,11.49-5.73,11.1Z"/>
          <path class="cls-1" d="M119.38,34.44c-1.79,2.34-5.22,3.34-6.2,1.6-.23-.42,0-1.74.33-2.17.92-1.24,3.06-2.21,4.98-1.7.86.23,1.43,1.57.89,2.27Z"/>
          <g>
            <path class="cls-1" d="M152.63,39.02l.9-5.29c.03-.16-.39-.86-.54-.93-1.53-.78-4.56,3.92-5.35,5.67-1.49,3.28-2.46,6.91-3.39,10.24-.36,1.27-4.78,2.62-4.58.51l.73-7.72c.04-.46.07-.8-.04-.79s-.88.12-1.05.15c-1.59.26,1.58-2.61,1.66-3.01l1.74-9.59c.51-2.82,1.19-5.28,2.26-7.9,1.13-2.8,4.35-6.12,6.8-4.64,2.9,1.75,1.76,7.26.47,10.06-3.92,8.5-7.57,7.25-7.22,14.23l3.4-5.98c1.1-1.94,3.27-3.67,5.21-4.34s3.98.47,4.33,2.46c.18,1,.19,2.36.1,3.36l-.6,6.95c-.15,1.72,1.09,3.01,2.67,4.22-2.23,1.74-7.3,1.39-7.77-1.24-.4-2.22-.09-4.09.3-6.4ZM147.09,31.37c2.77-4.92,4.81-8.22,4.62-13.3,0-.19-.65-.81-.82-.73-1.08.54-2.05,2.58-2.25,3.41l-2.59,10.49,1.05.12Z"/>
            <path class="cls-1" d="M171.74,42.3c-1.63,2.45-4.56,3.1-7.29,2.48-2.98-.68-1.93-6.94-1.65-8.84l.98-6.8-2.55.14c.28-.67.66-1.47,1.07-1.66l1.79-.85,1.19-6.4c.28-1.5,3.05-3.09,4.51-3.22.41-.03.76,1.29.7,1.68l-1.04,6.73,4.27-.34c.31-.02.88,1,.66,1.22-.28.3-1.08.74-1.55.8l-3.79.51-1.12,7.3c-.28,1.85-1.51,7.63,1.31,7.43l2.51-.18Z"/>
          </g>
        </g>
      </g>
      <path class="cls-1" d="M177.52,21.39l-.58.94-.6-1.02-.75.16c-.15.03-.49-.42-.34-.46l1.04-.29-.68-.99c.55.08.84.23.9.07l.37-.96.79,1.12c1.29-.79,1.11-.37.65.32-.48.34-.88.62-.26.18.37.59.63.95.5.95l-1.05-.03Z"/>
    </g>
  </g>
</svg>