<?xml version="1.0" encoding="UTF-8"?>
<svg id="Layer_1" data-name="Layer 1" xmlns="http://www.w3.org/2000/svg" viewBox="0 0 280 112">
  <defs>
    <style>
      .cls-1 {
        fill: #fff;
      }
    </style>
  </defs>
  <polygon class="cls-1" points="70.43 60.2 78.32 60.2 78.32 77.56 81.4 77.56 81.4 60.2 88.96 60.2 88.96 57.12 70.43 57.12 70.43 60.2"/>
  <path class="cls-1" d="M103.33,69.58h-5.4l2.66-7.56,2.74,7.56ZM102.08,57.12h-2.74l-7.39,20.52h3.24l1.83-5.07h7.48l1.83,5.07h3.32l-7.56-20.52Z"/>
  <polygon class="cls-1" points="128.99 57.12 125.5 57.12 120.6 65.93 115.79 57.12 112.13 57.12 119.03 69.33 119.03 77.56 122.18 77.56 122.18 69.33 128.99 57.12"/>
  <polygon class="cls-1" points="146.85 74.57 138.3 74.57 138.3 57.12 135.22 57.12 135.22 77.56 146.85 77.56 146.85 74.57"/>
  <g>
    <path class="cls-1" d="M167.79,67.42v.17c0,4.32-3.16,7.39-7.48,7.39s-7.56-3.16-7.56-7.39v-.17c0-4.32,3.16-7.39,7.48-7.39,4.32-.08,7.56,3.07,7.56,7.39M160.23,56.87c-6.15,0-10.63,4.4-10.63,10.55v.25c0,6.06,4.49,10.47,10.63,10.47s10.55-4.4,10.55-10.47v-.25c0-6.15-4.4-10.55-10.55-10.55"/>
    <path class="cls-1" d="M186.89,63.52c0,2.24-1.5,3.49-4.07,3.49h-3.41v-6.89h3.65c1.41,0,3.82.5,3.82,3.41M185.98,69.41c2.58-.91,4.07-3.07,4.07-5.9v-.08c0-1.74-.58-3.24-1.58-4.32-1.16-1.25-3.07-1.99-5.23-1.99h-6.81v20.43h3.07v-7.48h3.32l4.65,7.48h3.65l-5.15-8.14Z"/>
    <path class="cls-1" d="M203.92,65.84c-3.32-1.25-3.9-2.08-3.9-3.49v-.08c0-1.41,1.25-2.41,2.91-2.41,1.41,0,2.74.58,4.07,1.74l.5.42,1.83-2.49-.33-.33c-1.74-1.58-3.57-2.33-5.9-2.33-3.49,0-6.06,2.41-6.06,5.65v.08c0,2.41.91,4.32,5.65,6.15,3.41,1.25,3.74,2.24,3.74,3.32,0,1.58-1.25,2.66-3.07,2.66s-3.16-.66-4.82-2.24l-.42-.42-1.91,2.49.33.33c1.99,1.91,4.24,2.91,6.81,2.91,3.65,0,6.23-2.49,6.23-5.81v-.08c-.17-2.74-1.74-4.49-5.65-6.06"/>
    <path class="cls-1" d="M99.17,89.1c-.25.58-.33,1.08-.33,1.5,0,.66.33,1.16.83,1.16.58,0,1-.33,1.33-1.08.33-.58.5-1.25.5-1.83,0-.75-.33-1.16-.91-1.16s-1.08.5-1.41,1.41M102.83,89.27c0,1.66-1.41,2.99-3.16,2.99-1.33,0-2.24-.83-2.24-2.08,0-1.66,1.41-2.99,3.16-2.99,1.33,0,2.24.83,2.24,2.08"/>
    <path class="cls-1" d="M106.48,87.03c.33-1,.58-1.58.91-1.99.42-.58,1-.83,1.74-.83.66,0,1.16.33,1.16.83,0,.33-.25.58-.58.58s-.42-.08-.58-.66c-.08-.25-.17-.25-.25-.25-.17,0-.25.08-.42.42l-.66,2.33h.91l-.17.5h-1l-1,3.24c-.5,1.66-.83,2.33-1.25,2.91-.5.58-1.08.91-1.83.91-.83,0-1.33-.42-1.33-.91,0-.42.33-.66.66-.66.42,0,.58.17.58.66,0,.25.17.42.33.42.33,0,.58-.33.83-1.33l1.58-5.23h-1l.17-.5h1l.17-.42Z"/>
  </g>
  <polygon class="cls-1" points="119.77 86.11 119.77 92.76 118.69 92.76 118.69 89.93 116.12 89.93 116.12 92.76 115.04 92.76 115.04 86.11 116.12 86.11 116.12 88.94 118.69 88.94 118.69 86.11 119.77 86.11"/>
  <g>
    <path class="cls-1" d="M126.5,90.18l-.91-2.66-.91,2.66h1.83ZM125.01,86.11h1.08l2.41,6.65h-1.16l-.58-1.58h-2.58l-.58,1.58h-1.08l2.49-6.65Z"/>
    <path class="cls-1" d="M133.56,89.44c.83,0,1.33-.42,1.33-1.16s-.5-1.16-1.33-1.16h-1.16v2.33h1.16ZM131.32,86.11h2.41c.75,0,1.33.25,1.74.58.33.33.58.83.58,1.41,0,1-.58,1.66-1.33,1.91l1.58,2.58h-1.25l-1.41-2.33h-1.16v2.33h-1.08v-6.48h-.08Z"/>
    <path class="cls-1" d="M141.37,89.44c.83,0,1.33-.42,1.33-1.16s-.5-1.16-1.33-1.16h-1.16v2.33h1.16ZM139.04,86.11h2.41c.75,0,1.33.25,1.74.58.33.33.58.83.58,1.41,0,1-.58,1.66-1.33,1.91l1.58,2.58h-1.25l-1.41-2.33h-1.16v2.33h-1.08v-6.48h-.08Z"/>
    <path class="cls-1" d="M151.92,89.52c0-1.5-1-2.41-2.41-2.41s-2.41.91-2.41,2.33v.08c0,1.41,1,2.33,2.41,2.33s2.41-.91,2.41-2.33M146.1,89.52v-.08c0-1.99,1.41-3.41,3.41-3.41s3.41,1.41,3.41,3.32v.08c0,1.99-1.41,3.41-3.41,3.41s-3.41-1.41-3.41-3.32"/>
    <path class="cls-1" d="M155.16,89.52c0-1.99,1.25-3.41,2.99-3.41.91,0,1.5.25,2.08.75l-.66.83c-.42-.33-.83-.58-1.5-.58-1.08,0-1.91,1-1.91,2.33v.08c0,1.5.83,2.41,1.91,2.41.5,0,.91-.17,1.16-.33v-1.41h-1.41v-1h2.41v2.99c-.58.42-1.33.83-2.24.83-1.58-.17-2.82-1.5-2.82-3.49"/>
    <path class="cls-1" d="M166.95,90.18l-.91-2.66-.91,2.66h1.83ZM165.54,86.11h1.08l2.41,6.65h-1.16l-.58-1.58h-2.58l-.58,1.58h-1.08l2.49-6.65Z"/>
  </g>
  <polygon class="cls-1" points="170.69 87.19 170.69 86.11 175.26 86.11 175.26 87.19 173.52 87.19 173.52 92.76 172.44 92.76 172.44 87.19 170.69 87.19"/>
  <polygon class="cls-1" points="181.99 88.94 181.99 89.93 179.25 89.93 179.25 91.76 182.41 91.76 182.41 92.76 178.17 92.76 178.17 86.11 182.32 86.11 182.32 87.11 179.25 87.11 179.25 88.94 181.99 88.94"/>
  <path class="cls-1" d="M140.62,22.23h5.81v10.8h-5.81v-10.8ZM132.9,20.74l-2.33-2.33h18.77l-2.33,2.33h-14.12ZM139.21,33.03h-5.81v-10.8h5.81v10.8ZM131.9,45.08h-2.33v-25.58l2.33,2.33v23.26ZM150.26,45.08h-2.33v-23.26l2.33-2.33v25.58ZM151.75,46.49v-29.49h-23.67v29.57h5.23v-12.04h5.81v12.04h1.5v-12.04h5.81v12.04h5.32v-.08Z"/>
</svg>