<?xml version="1.0" encoding="UTF-8"?>
<svg id="Layer_1" data-name="Layer 1" xmlns="http://www.w3.org/2000/svg" viewBox="0 0 280 112">
  <defs>
    <style>
      .cls-1 {
        fill: #fff;
      }
    </style>
  </defs>
  <g id="_8jcaTe" data-name="8jcaTe">
    <g>
      <path class="cls-1" d="M237.85,36.32l-.56-1.66-.87,1.76-.82-1.47-.66,1.54c-.17-1.44-.13-2.12.29-3.68l1.22,2.31c.4-.93.61-1.47,1.25-2.3.32,1.37.39,2.1.15,3.51Z"/>
      <path class="cls-1" d="M234.6,33.22c-2.04,1.03-.28,2.55-1.33,3.18l-.24-2.46-.97-.78,2.54.07Z"/>
      <g>
        <path class="cls-1" d="M224.74,52.26c1.87,3.12,6.22,9.09,3.27,12.06-1.1,1.11-2.56.8-4.14.54.22,1.43,1.06,2.79,2.36,3.3,2.92,1.16,5.93-.51,6.92-3.47.62-1.86.48-3.86.24-5.8,1.43,2.77,1.71,6.64-.59,9.13l-1.65,1.8-.04,9.42H63.66c-4.3,0-9.42-1.79-12.28-5.56-1.47,2.54-4.15,3.69-6.86,2.76-1.25-.43-2.18-1.23-2.52-2.91,1.68,1.43,4.36,2.21,6.53.8,1.48-.96,2.53-2.63,3.23-4.27,3.71-8.77,4.53-17.95,4.83-27.33.89,1.56,1.57,3.35,1.77,5.35.51,5.26.51,10.42.41,15.73-.03,1.61.98,2.89,2.6,3.12,1.42.2,2.91.05,4.26-.39,1.02-7.69,2.17-14.97,3.99-22.58v6.97c-.02,3.81.2,7.49.6,11.27.32,2.95,1.41,9.29,4.79,9.85,1.7.28,3.34-.13,4.52-1.49-1.59-.67-2.64-1.96-3.13-3.65-2.34-7.9-2.14-18.87-1.9-27.21-1.17-.44-2.44-.72-3.62-.46-1.34.3-2.37,1.56-2.8,2.88-1.1,3.34-1.8,6.67-2.46,10.15l-2.11,11.22c-.46-5.73-.16-11.08-.95-16.66-.39-2.76-1.48-5.53-3.96-6.91-3.72-2.06-8.07-1.39-11.76.75v-7.94s167.8.07,167.8.07c7,0,12.72,4.77,14.89,11.01,1.24,3.57,1.56,6.81,1.63,10.59l-1.88-3.04c-.76-1.23-1.1-2.41-1.38-3.93-2.94.91-4.06,1.31-4.76,4.15l-2.56,10.32c-.23.91-1.16,3.56-2.44,3.15-.32-.1-.77-.83-.77-1.23l-.02-23.8-2.99.72c-1.06.26-1.38,1.27-1.39,2.22l-.08,6.52c-1.23-1.61-3.36-1.95-5.36-.98-2.39,1.16-4,3.56-4.55,6.24-.33,1.6-1.35,2.8-3.12,2.67-.11-4.04-1.82-8.97-6.33-9.47-2.28-.25-4.36.65-5.82,2.47-3.13,3.91-1.02,6.59-5.24,6.98-.23-4.02-1.82-8.88-6.26-9.44-2.11-.27-4.1.48-5.58,2.07-3.27,3.51-4.13,10.68-1.65,14.94,1.1,1.89,2.89,3.1,4.73,3.36,5.12.73,8.12-3.91,8.68-8.74l2.31-.81c.22-.58.22-.45.16.1.09,4.21,1.99,8.92,6.37,9.48,5.12.65,8.06-4.07,8.61-8.75.98-.25,1.71-.64,2.59-1.34-.42,3.22.82,9.42,4.72,10.02,1.69.26,3.4-.13,4.51-1.36l1.68-1.87c.37,1.51,1.41,2.76,2.67,3.15,3.97,1.21,6.06-3.37,6.77-6.72l1.96-9.2ZM155.63,71.73c1.2,1.11,2.69,1.16,4.19.63,3.48-1.23,3.59-6.49,3.61-9.63l.04-5.93c.83.07,1.99-.11,2.84-.8.67-.53,1.15-1.75,1.12-2.5-1.52.65-2.67.87-4.09.82.14-3.87-.57-8.8,2.51-11.28l2.98.39c1.66.22,3.3-.93,3.52-2.47-4.44.74-5.56-1.18-11.02-1.8-4.91-.55-11.23,1.16-12.19,6.65-.28,1.6.28,3.14,1.41,4.07s2.76,1.52,4.42.67c-1.09-.95-1.61-2.08-1.5-3.51.27-3.79,3.9-6.29,7.65-5.51,1.08.22,2.05.52,3.22.85-4.82,2.23-5.45,7.28-5.65,11.81-1.75.13-3.45,1.09-3.51,2.83l.67-.37c.11-.06.41-.02.62,0l2.31.21c-.22,5.08.41,10.82-3.15,14.86ZM147.14,50.51c-3.3-4.73-5.85,1.41-8.56-.92-.77-.66-.76-1.95-.73-3.26-1.09-.03-2.29.89-2.81,1.72-.85,1.35.46,2.2.62,3.31.45,3.02-.36,6.29-1.49,9.09s-4.1,5.64-6.83,3.97c-.59-.36-1.16-1.27-1.43-2.14,2.82-2.79,7.07-6.2,6.6-10.51-.24-2.25-1.84-3.73-4.09-3.88-2.42-.16-4.7,1.18-5.99,3.35-2.24,3.75-2.53,8.32-1.09,12.43-1.13.86-2.36,1.44-3.8,1.14-.69-.14-1.28-1.31-1.28-2.08v-12.73s2.24-.07,2.24-.07c.48-.02.93-1.26.52-1.6l-2.92-.16.13-6.13c-1.39.31-3.05.38-4,1.39-.77.84-.32,2.57-.43,3.61l-.12,1.12c-.03.3-1.01-.25-2.4.37-.29.13-.33.92-.3,1.36l2.78.1.07,14.09c0,1.31.81,2.85,1.61,3.46,2.86,2.15,6.35-.5,8.91-2.25,2.15,2.94,5.72,3.91,8.98,2.19,5.08-2.7,5.91-9.88,6.35-15.08,1.4-.05,2.77-.2,4.18-.46-1.63,4.27-3.34,9.35-1.72,13.56.82,2.13,2.86,3.19,5.09,2.74,1.78-.36,3.3-1.67,3.9-3.04.8-1.83,1.03-3.92-.29-5.44-.82,1.88-1.28,5.62-3.66,5.26-1.93-.29-1.05-5.29-.69-6.73.67-2.67,1.62-5.17,2.64-7.81ZM89.07,64.66c.32,1.86,1.27,3.16,2.7,3.54,4.1,1.09,6.04-3.96,6.77-7.3l1.88-8.56,3.25,5.57c1.07,1.83,1.78,5.69-.43,6.87-1.12.6-2.3.39-3.65.09.05,2.15,1.82,3.72,3.97,3.73s3.97-1.04,4.9-2.99c2.4-5.06-.7-9.71-3.36-13.96-.79-1.27-1.17-2.44-1.53-4.11-3.99,1.22-4.02,1.58-4.93,5.14l-2.12,8.29c-.23.88-1.63,4.78-2.8,4.02-.23-.15-.63-.76-.63-1.07l-.04-15.7-3.2.03c-.55,0-1.02,1.4-.93,1.81-.87-1.89-3.08-2.55-5.02-1.83-6.23,2.32-6.99,11.53-4.83,16.63.95,2.25,2.89,3.63,5.14,3.49,2.12-.13,3.87-1.34,4.86-3.67Z"/>
        <path class="cls-1" d="M46.84,59.04l-.04-6.54c-2.8-.82-4.31-3.36-3.71-6.22.15-.7.36-1.42.66-2.02-.23,1.99-.54,3.53.62,4.87s2.94,1.92,4.68,1.06c-2.58-3-.79-7.85,2.6-9.38.96-.43,2.05-.04,2.27,1.04.2,1.01.31,2.25.17,3.33-.92,7.43-2.76,15.18-6.1,21.9-.63-2.49-1.14-5.13-1.16-8.04Z"/>
        <path class="cls-1" d="M212.21,51.68c.74,2.92,1.64,13.13-2.15,13.33-4.39.23-3.92-14.93.03-15.07.87-.03,1.86.72,2.12,1.74Z"/>
        <path class="cls-1" d="M196.7,59.52c.03,2.22-1.12,5.82-3.78,5.45-3.65-.51-3.88-8.71-2.64-11.37.14,3.14,3.27,5.5,6.42,5.92Z"/>
        <path class="cls-1" d="M179.43,59.63c-.05,1.87-1.05,5.4-3.35,5.38-.88,0-1.88-.55-2.4-1.38-1.94-3.11-1.42-6.75-.91-9.96.7,3.7,3.16,5.2,6.65,5.97Z"/>
        <path class="cls-1" d="M179.65,57.35c-2.81-.16-5.25-2.19-5.46-5.03-.07-.93.51-2.01,1.22-2.25,3.02-1.05,4.26,4.79,4.24,7.28Z"/>
        <path class="cls-1" d="M196.84,57.41c-2.82-.32-5.2-2.3-5.39-5.08-.06-.96.52-1.99,1.25-2.25,3.01-1.05,4.32,5.05,4.14,7.32Z"/>
        <path class="cls-1" d="M129.84,50.66c1.64,3.2-2.04,7.18-4.27,9.73-.75-1.68-.5-9.42,2.41-10.38.55-.18,1.57.05,1.87.64Z"/>
        <path class="cls-1" d="M87.99,51.68c.75,2.99,1.52,12.88-1.89,13.33-3.03.39-3.33-5.06-3.32-7.22s.35-8.12,3.36-7.84c.7.07,1.62.82,1.85,1.73Z"/>
      </g>
    </g>
  </g>
</svg>