<?xml version="1.0" encoding="UTF-8"?>
<svg id="Layer_1" data-name="Layer 1" xmlns="http://www.w3.org/2000/svg" viewBox="0 0 280 112">
  <defs>
    <style>
      .cls-1 {
        fill: #fff;
        fill-rule: evenodd;
      }
    </style>
  </defs>
  <polygon id="Fill-1" class="cls-1" points="101.1 60.03 113.77 92.03 118.14 92.03 130.82 60.03 125.26 60.03 116.25 83.41 107.76 60.03 101.1 60.03"/>
  <g id="Group-4">
    <path id="Fill-2" class="cls-1" d="M94.7,72.76h-15.68c.65-5.16,3.53-8.03,8.16-8.03,4.31,0,7.18,3.2,7.51,8.03M78.89,77.34h22.21v-.07c0-11.3-6.07-17.24-13.78-17.24-8.69-.07-14.63,6.73-14.63,16s4.57,16.79,15.02,16.79c5.29,0,8.88-1.63,12.61-4.05v-5.88c-3.46,2.68-7.84,5.16-11.56,5.16-6.01,0-9.86-3.92-9.86-10.71"/>
  </g>
  <polygon id="Fill-5" class="cls-1" points="139.89 92.03 139.89 60.03 134.28 60.03 134.28 92.03 139.89 92.03"/>
  <polygon id="Fill-7" class="cls-1" points="139.89 57.02 139.89 51.47 134.28 51.47 134.28 57.02 139.89 57.02"/>
  <path id="Fill-9" class="cls-1" d="M204.29,91.97v-19.2c0-3.92-1.05-7.38-3.14-9.8-2.02-2.42-5.03-3.85-8.82-3.85-3.33,0-6.27,1.31-8.36,3.53v-2.74h-5.49v32h5.75v-19.4c0-4.44,3.14-7.77,7.45-7.77,4.57,0,6.92,3.27,6.92,7.9v19.4h0l5.68-.07"/>
  <path id="Fill-11" class="cls-1" d="M150.87,84.39c-.2-.39-.33-.78-.39-1.31h0v-.07c0-.13,0-.33-.07-.52.07-2.42,1.18-4.57,7.64-5.03,3.07-.2,6.2-.52,8.36-1.89.13-.07.2-.13.33-.2l.07-.07v4.11c0,.65-.07,1.31-.26,1.89-.07.26-.13.52-.26.78v.07c-.39.98-.98,1.76-1.7,2.48l-.13.13-.13.13c-1.83,1.5-4.44,2.16-7.25,2.16-2.94-.07-5.29-.91-6.2-2.68M173.14,91.25c-.46-1.11-.85-3.27-.85-4.77v-17.37c0-3-1.05-5.55-3.14-7.32s-5.23-2.74-9.27-2.74h-.07c-6.53,0-11.17,2.94-12.74,7.71l-.07.2-.07.26h6.27l.07-.13c1.44-2.02,4.18-2.61,6.47-2.61h0c5.03,0,6.99,1.83,6.99,4.05h0c0,1.11-.52,1.89-1.96,2.61-1.44.65-3.85,1.11-7.45,1.31-7.77.39-12.54,3.46-12.54,10.06v.07h0c0,6.99,5.81,9.93,12.02,9.99h0c4.31,0,7.71-1.37,9.93-3.72l.07-.13v.13c.13,1.11.39,2.02.72,2.74l.07.07.07.13h5.62l-.13-.52"/>
  <path id="Fill-13" class="cls-1" d="M117.82,21.49l-7.18,5.09-3.07,4.9-3.46.91-5.16,4.05-5.81,7.25-4.7,3.53,7.12.33,7.97-3.59,5.09,2.87,8.88-.2,2.87,1.44h0l2.48-1.11-1.5-.78-.46-4.31-3.59-6.79,1.05-2.09-1.05-3.07.85-2.74-.33-5.68.13,2.81-.13-2.81ZM122.85,46.96l-.78-.39.78.39Z"/>
  <g id="Group-17">
    <polygon id="Fill-15" class="cls-1" points="135.45 17.25 132.64 22.41 129.77 22.28 126.7 26.06 122.19 30.9 120.43 33.25 128.27 32.4 136.95 35.27 139.96 40.82 146.75 45.14 151.19 45.14 146.75 45.14 155.7 45.07 161.84 46.7 154.26 41.94 154.13 39.71 151.06 36.19 150.93 32.53 145.64 24.95 144.47 21.3 142.44 19.27 140.09 17.12 140.09 14.7 135.45 17.25"/>
  </g>
  <path id="Fill-18" class="cls-1" d="M177.71,26.72h0l-1.89,1.05,1.89-1.05-4.31,2.42-3.66,3.66-6.2.85-4.64,2.29,1.83,2.48,7.51,4.18,5.03,4.7,4.44.46,5.42,2.94-5.42-2.94,7.12,3.85h9.8c-.13-.13-4.9-3.98-5.16-4.11-.26-.2-3.85-1.57-3.85-1.57l-1.76-8.43-4.31-6.27-1.83-4.51ZM194.56,51.6c-.52-.46-4.9-3.92-5.16-4.11.26.2,4.64,3.66,5.16,4.11h0Z"/>
  <g id="Group-29">
    <path id="Fill-27" class="cls-1" d="M209.78,88.24c-.98,0-1.76.78-1.76,1.83s.78,1.89,1.76,1.89,1.76-.85,1.76-1.89-.78-1.83-1.76-1.83M212,90.07c0,1.24-.98,2.29-2.22,2.29s-2.22-1.05-2.22-2.29.98-2.29,2.22-2.29,2.22,1.05,2.22,2.29"/>
  </g>
  <path id="Fill-30" class="cls-1" d="M210.04,89.94h-.65v-.72h.72l.2.07.07.07.07.07.07.07v.26l-.2.07-.07.07h-.07l-.07.07h-.07ZM210.17,90.27h.13l.13-.07.13-.07.07-.07h0l.07-.07.07-.07v-.59l-.07-.13v-.07l-.07-.07h0l-.07-.07-.13-.07h-.13l-.2-.07h-1.18v2.48h.39v-1.05h.39l.65,1.05h.46l-.65-1.11Z"/>
</svg>