<?xml version="1.0" encoding="UTF-8"?>
<svg id="Layer_1" data-name="Layer 1" xmlns="http://www.w3.org/2000/svg" viewBox="0 0 280 112">
  <defs>
    <style>
      .cls-1 {
        fill: #fff;
      }
    </style>
  </defs>
  <g id="_5c3rBN" data-name="5c3rBN">
    <g>
      <path class="cls-1" d="M147.44,65.35l-2.72-.11c-.49-.63-.96-.9-1.49-1.44.67-.81,1.3-1.57,1.76-2.56.11-.22.23-.39.46-.48.69-.04,1.29.05,1.97-.07v-4.47s-6.34,0-6.34,0c-.35,1.4-.63,2.78-1.71,3.83l-3.06-2.94c-.72-.7-1.51-1.28-2.1-2.14,1.55-.9,2.79-1.86,3.71-3.21.92-1.25,1.33-2.71,1.19-4.28-.14-2.39-1.51-4.45-3.65-5.52-1.32-.67-2.72-1.02-4.22-1.09-2.08-.14-4.07.19-5.92,1.15-2.34,1.22-3.8,3.47-3.92,6.11-.17,1.92.36,3.73,1.57,5.25l1.24,1.47c-.72.52-1.44.89-2.05,1.45-1.28,1.06-2.25,2.4-2.79,4.06-.73,2.72-.07,5.45,1.69,7.58,1.5,1.73,3.51,2.73,5.82,3.18,2.31.38,4.59.21,6.81-.36,1.8-.49,3.41-1.27,4.94-2.42l1.6,1.5h6.99c.23-.12.26-.29.25-.51l-.03-3.97ZM128.28,46.01c1.47-1.13,3.48-.92,4.66.43.61.93.61,2.05.05,3.01-.63.91-1.35,1.59-2.52,2.12-1.07-.64-1.7-1.41-2.41-2.21-.74-1-.68-2.35.22-3.36ZM129.01,65.94c-1.54-.35-2.82-1.37-3.26-2.96-.36-1.88.55-3.66,2.22-4.62l2.48,2.34,4.12,3.95c-1.66,1.29-3.65,1.64-5.56,1.29Z"/>
      <g>
        <path class="cls-1" d="M163.77,79.88l-.02-34.56c-.11-1.31-.77-2.23-1.94-2.82-1.73-.69-3.59-.69-5.26-.08-1.22.5-1.99,1.49-2.13,2.9v24.41c.08.92.29,1.7.95,2.35.53.5,1.19.6,1.9.75l.03,6.54c.03.33-.15.53-.51.51l-18.21-.02-.03-7.03,11.84-.07v-19.16c.05-.19-.11-.23-.21-.31l-9.91-.11c1.46-1.98,2.04-4.09,1.7-6.38-.26-2.5-1.45-4.67-3.41-6.29v-7.74s14.99-.02,14.99-.02c.2.69.04,1.32.12,2.04.12.16.21.15.37.08,3.17-1.86,6.68-2.8,10.4-2.78,2.04-.06,3.98.17,5.85.83,1.44.45,2.59,1.32,3.7,2.36,3.95-2.45,8.24-3.48,12.74-3.15,2.34.14,4.54.63,6.59,1.76,2.84,1.59,4.49,4.33,4.73,7.54l.02,28.29c.06.67.18,1.22.49,1.78.5.91,1.38,1.2,2.38,1.31v7.05s-14.85.01-14.85.01c-.35.01-.55-.15-.55-.54v-33.8c-.03-1.52-.88-2.62-2.22-3.14-1.61-.61-3.44-.55-5.1.06-1.2.56-1.9,1.53-2.01,2.86v23.98c0,.83.1,1.52.48,2.22.53.84,1.4,1.22,2.37,1.3l.03,6.78c-.03.24-.23.22-.46.29h-14.87Z"/>
        <path class="cls-1" d="M205.45,62.54c-.27.28-.09.56-.15.99-1.19.05-2.36.1-3.63.01l-.02-7.49c.14-.08.21-.15.37-.19l3.05.06c.33,1.34,1.06,2.32,2.15,2.93,1.2.66,2.56.96,3.98.82.98-.21,1.79-.76,2.16-1.72.29-1.06-.23-2.03-1.13-2.55-1.08-.5-2.24-.75-3.45-1.12-1.58-.43-3.01-.97-4.31-1.81-1.43-.93-2.39-2.37-2.54-4.13-.42-2.95,1.11-5.59,3.84-6.8,2.82-1.16,5.96-.97,8.65.44.13-.37,0-.65.23-.97l3.66.03.03,6.55-3.54.04c-.78-1.69-2.37-2.75-4.25-2.85-.38-.08-.72-.08-1.09,0-.93.05-1.55.7-1.67,1.54-.14.76.3,1.54,1.08,1.94,1.06.57,2.22.85,3.42,1.22,1.06.3,2.07.53,3.05,1.02,2.34,1.12,3.82,3.31,3.97,5.9.22,2.88-1.28,5.38-3.8,6.69-3.23,1.45-6.9,1.31-10.06-.58Z"/>
        <path class="cls-1" d="M204.28,40.16l-2.91.04c-.2.08-.3,0-.38-.19l2.71-6.28,4.23.12-3.65,6.31Z"/>
        <path class="cls-1" d="M211.72,33.57c-1.61,0-2.91,1.3-2.91,2.91s1.3,2.91,2.91,2.91,2.91-1.3,2.91-2.91-1.3-2.91-2.91-2.91ZM213.2,37.95c-.47-.32-.61-.71-.83-1.21.35-.21.62-.43.6-.75.08-.37-.05-.71-.43-.95-.69-.17-1.31-.16-1.94,0l-.03,2.91c.19.16.41.09.6.05.16-.44.01-.77.07-1.29.51.07.52.48.74.76.11.5.47.55,1.04.66-.82.84-1.99.66-2.8-.15-.77-.91-.73-2.26.09-3.13.49-.46,1.08-.61,1.79-.52.84.16,1.36.79,1.58,1.46.24.71.08,1.55-.48,2.16ZM212.24,35.79c.02.22-.1.36-.38.38-.22.03-.36.02-.5-.07-.11-.09-.2-.29-.12-.52.14-.09.33-.18.72-.1.26.11.3.25.28.31Z"/>
        <path class="cls-1" d="M211.96,35.48c.26.11.3.25.28.31.02.22-.1.36-.38.38-.22.03-.36.02-.5-.07-.11-.09-.2-.29-.12-.52.14-.09.33-.18.72-.1Z"/>
      </g>
      <path class="cls-1" d="M101.71,72.79v7.08s-15.31,0-15.31,0v-34.55c-.14-1.4-.92-2.34-2.14-2.9-1.69-.6-3.53-.63-5.21.07-1.27.59-1.96,1.64-1.99,3.06v23.96c.03,1.07.32,1.96,1.07,2.68.5.41,1.11.48,1.8.63l-.02,7.05-18.69.02-.06-6.89c.17-.34.5-.25.77-.28.93-.17,1.7-.59,2.21-1.42.31-.64.46-1.26.45-2.01v-25.95c-.12-1.53-1.12-2.6-2.6-2.84-.33-.03-.64-.04-.82-.21l.03-7.51,14.79-.03c.31.16.32.43.28.73.05.56-.09,1.04.11,1.56,3.08-1.82,6.34-2.82,9.85-2.92.75-.05,1.45-.07,2.19,0,1.78.01,3.45.38,5.07,1.01,1.13.55,2.14,1.12,3.06,2.19,3.9-2.44,8.26-3.53,12.84-3.2,2.07.16,4.02.5,5.83,1.41,3.46,1.55,5.55,4.88,5.44,8.63-1.66,2.1-2.35,4.69-2.19,7.33.11,1.71.6,3.31,1.73,4.83-1.96,1.59-3.27,3.59-3.84,6.05-.91,4.78,1.26,9.49,5.48,11.96l1.75.94v6.59s-15.06.02-15.06.02c-.32-.07-.41-.21-.37-.56v-33.58c.07-1.64-.86-2.86-2.3-3.4-1.59-.51-3.28-.52-4.83.04-1.32.51-2.17,1.63-2.19,3.13v23.98c.06,1.03.28,1.93.99,2.6.5.4,1,.58,1.87.68Z"/>
    </g>
  </g>
</svg>