<?xml version="1.0" encoding="UTF-8"?>
<svg id="Layer_1" data-name="Layer 1" xmlns="http://www.w3.org/2000/svg" viewBox="0 0 280 112">
  <defs>
    <style>
      .cls-1 {
        fill: #fff;
      }
    </style>
  </defs>
  <path class="cls-1" d="M197.7,83.55c.08,0,.14.02.19.05.05.03.09.09.12.17l.53,1.31.5-1.31c.06-.15.17-.22.34-.22.11,0,.21.02.28.05l.11,2.28h-.53l-.06-1.37-.43,1.04h-.48l-.41-1-.08,1.33h-.53l.15-2.28s.07-.02.13-.03c.06-.01.11-.02.15-.02M197.15,83.57s.02.11.02.19c0,.19-.1.28-.31.28h-.4v1.84h-.56v-1.84h-.65c-.02-.07-.03-.14-.03-.2,0-.18.12-.28.36-.28h1.57ZM168.2,55.6c-.67-.88-1.4-1.52-1.4-3.47v-17.3c0-6.6-3.37-9.27-7.92-9.27-3.01,0-6.13,1.63-8.23,4.28-.43-2.46-1.62-3.37-4-3.37-3.21,0-7.52,1.67-7.52,3.76s2.32,1.92,2.32,4.76v17.13c0,1.96-.73,2.59-1.4,3.47-1.45,1.9-.31,3.7,1.78,3.7h8.93c2.1,0,3.23-1.81,1.78-3.7-.67-.88-1.4-1.52-1.4-3.47v-13.73c0-3.05,1.22-4.59,3.16-4.59s2.79,1.6,2.79,3.54v14.78c0,1.96-.73,2.59-1.4,3.47-1.45,1.9-.31,3.7,1.78,3.7h8.93c2.1,0,3.23-1.81,1.78-3.7M175.7,20.48c0-2.31-1.59-4.48-4.04-4.48-2.27,0-3.9,1.7-3.9,3.97,0,3.09,2.61,3.29,2.61,4.55,0,1.6-2.2,1.78-2.2,2.77,0,.47.45,1.12,1.63,1.12,2.35,0,5.9-3.95,5.9-7.92M101.19,46.37c0-3.54-1.85-7.32-7.05-7.32-.18,0-.77.03-1.53.07v11.9c0,1.74,1.08,2.74,2.97,2.74,2.56,0,5.61-1.28,5.61-7.39M92.6,24.03l.05,10.05c.63.03,1.08.03,1.39.03,3.62,0,5.69-2.27,5.69-6.22,0-3.49-1.89-5.82-4.71-5.83-1.66,0-2.42.76-2.42,1.98M111.72,46.8c0,8.53-4.43,12.51-13.94,12.51h-15.14c-2.1,0-3.23-1.81-1.79-3.7.67-.88,1.4-1.51,1.4-3.47v-28.81c0-1.96-.73-2.59-1.4-3.47-1.44-1.9-.31-3.7,1.79-3.7h12.78c8.05,0,14.85,1.79,14.85,10.66,0,5.14-4.13,8.54-8.4,9.3,5.29.17,9.85,5.26,9.85,10.69M183.42,34.43c0-1.27,1.22-1.93,2.35-1.96,4.27-.09,4.28,4.24,7.01,4.03,3.46-.26,1.57-6.9.43-9.09-.7-1.35-1.34-1.76-2.27-1.76-1.27,0-1.75.59-2.9.59-1.56,0-2.55-.51-4.98-.51-6.28,0-10.03,4.36-10.03,10.23,0,9.61,12.32,9.83,12.32,14.89,0,1.07-.83,2.06-2.51,2.06-5.19,0-5.52-5.27-8.52-5.22-3.33.05-1.91,7.3-.67,9.9.85,1.78,1.66,2.21,2.71,2.21,1.36,0,1.77-.65,3.14-.65,1.73,0,2.79.89,5.74.89,6,0,10.81-4.12,10.81-10.42,0-9.93-12.62-10.9-12.62-15.2M128.74,33.36c-1.32-1.5-3.12-1.51-4.47-.18-2.1,2.07-1.69,7.26-1.69,7.26h3.62c2.35,0,3.5-.78,3.74-2.55.23-1.72-.2-3.42-1.19-4.54M131.63,45.05h-8.91c.33,5.32,2.38,8.04,5.68,8.04,4.47,0,4.86-3.48,6.55-3.48,1.57,0,2.73,1.23,2.73,2.82,0,2.62-4.37,7.61-11.23,7.61-11.95,0-13.47-11.53-13.47-16.93,0-8.4,3.56-17.37,13.53-17.37,4.81,0,8.98,2.82,10.88,7.37,1.06,2.55,1.87,8.44,0,10.41-1.32,1.4-3.22,1.51-5.77,1.51M168.56,85.05v-10.28c0-3.93-2-5.51-4.71-5.51-1.79,0-3.64.97-4.89,2.55-.25-1.46-.96-2.01-2.37-2.01-1.91,0-4.47.99-4.47,2.23s1.38,1.14,1.38,2.83v10.18c0,1.16-.43,1.54-.83,2.06-.86,1.13-.18,2.2,1.06,2.2h5.31c1.25,0,1.92-1.07,1.06-2.2-.4-.52-.83-.9-.83-2.06v-8.16c0-1.81.73-2.73,1.88-2.73s1.66.95,1.66,2.1v8.78c0,1.16-.43,1.54-.83,2.06-.86,1.13-.19,2.2,1.06,2.2h5.31c1.25,0,1.92-1.07,1.06-2.2-.4-.52-.83-.9-.83-2.06M146.38,68.48c1.62,0,3.6-.97,3.6-2.84s-1.76-2.88-3.53-2.88-3.49,1.12-3.49,3.02c0,1.76,1.83,2.7,3.42,2.7M135.81,90.85c0-.39-.42-1.18-1.43-1.18-.66,0-1.99.2-2.75.2s-1.38-.06-1.97-.16c-.72,1.36-.14,3.06,2.98,3.06,1.47,0,3.17-.44,3.17-1.91M131.26,76.01c0,1.97.31,3.57,1.69,3.57s1.69-1.6,1.69-3.57-.31-3.57-1.69-3.57-1.69,1.6-1.69,3.57M141.44,88.06c0,4.72-3.87,7.94-9,7.94-3.49,0-7.18-1.47-7.18-5,0-.65.3-1.69,1.46-2.6-.99-.88-1.41-2.04-1.41-3.18,0-1.49,1.23-3.3,3.01-4.13-1.7-1.17-2.6-3.04-2.6-5.14,0-3.54,2.57-6.41,7.14-6.41,1.07,0,2.02.16,2.86.44-.45-1.51.85-3.37,2.82-3.37,2.51,0,3.08,1.32,3.08,2.27,0,1.1-.74,1.85-1.99,1.85-.96,0-1.43.29-.64,1.71.66,1.01,1.01,2.22,1.01,3.52,0,3.54-2.57,6.42-7.14,6.42-.62,0-1.21-.05-1.75-.15-.4-.07-.77.23-.75.64.03.84.62,1.54,1.99,1.54,1.47,0,3.54-.64,5.21-.64s3.89,1.27,3.89,4.31M179.2,80.75c-1.91-.18-2.5,1.19-2.5,2.56s.6,2.11,1.2,2.11c1.09,0,1.3-1.5,1.3-3.16v-1.5ZM186.25,87.59c0,.85-1.07,1.97-3.16,1.97-1.5,0-2.73-.62-3.42-2.04-1.28,1.94-2.91,2.23-4.46,2.23-2.38,0-4.6-1.72-4.6-5.59,0-2.76,1.67-7.04,8.58-6.23,0-3.46-.13-5.29-1.42-5.29-.74,0-1.25.33-1.56,1.65-.35,1.49-1.12,2.57-2.65,2.57-1.3,0-2.22-.77-2.22-2.27,0-2.95,3.54-5.35,6.97-5.35s6.72,1.16,6.72,6.72v8.97c0,1.82,1.23,1.32,1.23,2.65M93.91,76.38c0-4.24-.51-8.84-3.35-8.84s-3.35,4.6-3.35,8.84.49,8.7,3.35,8.7,3.35-4.4,3.35-8.7M100.82,76.24c0,8.67-4.08,13.71-10.26,13.71s-10.26-5.04-10.26-13.71,4.03-13.57,10.26-13.57,10.26,4.79,10.26,13.57M119.99,68.48c1.62,0,3.6-.97,3.6-2.84s-1.76-2.88-3.53-2.88-3.49,1.12-3.49,3.02c0,1.76,1.83,2.7,3.42,2.7M194.84,87.11c-.4-.52-.83-.9-.83-2.06v-18.78c0-2.67-.65-3.59-2.49-3.59s-4.66.99-4.66,2.23,1.38,1.14,1.38,2.83v17.3c0,1.16-.43,1.54-.83,2.06-.86,1.13-.19,2.2,1.06,2.2h5.31c1.25,0,1.92-1.07,1.06-2.2M123.25,85.05v-11.66c0-2.67-.65-3.59-2.49-3.59s-4.66.99-4.66,2.23,1.38,1.14,1.38,2.83v10.18c0,1.16-.43,1.54-.83,2.06-.86,1.13-.19,2.2,1.06,2.2h5.31c1.25,0,1.92-1.07,1.06-2.2-.4-.52-.83-.9-.83-2.06M149.65,85.05v-11.66c0-2.67-.65-3.59-2.49-3.59s-4.66.99-4.66,2.23,1.38,1.14,1.38,2.83v10.18c0,1.16-.43,1.54-.83,2.06-.86,1.13-.18,2.2,1.06,2.2h5.31c1.25,0,1.92-1.07,1.06-2.2-.4-.52-.83-.9-.83-2.06M115.48,72.93c0,1.7-1.15,3.51-2.87,3.51s-1.91-1.59-2.72-1.59c-.58,0-.85.9-.85,2.01v8.19c0,1.16.43,1.54.83,2.06.86,1.13.18,2.2-1.06,2.2h-5.31c-1.25,0-1.92-1.07-1.06-2.2.4-.52.83-.9.83-2.06v-10.18c0-1.69-1.38-1.54-1.38-2.83s2.56-2.23,4.47-2.23c1.53,0,2.23.63,2.43,2.38.83-1.34,2.29-2.54,3.9-2.54,2.04,0,2.79,1.57,2.79,3.29"/>
</svg>