<?xml version="1.0" encoding="UTF-8"?>
<svg id="Layer_1" data-name="Layer 1" xmlns="http://www.w3.org/2000/svg" viewBox="0 0 280 112">
  <defs>
    <style>
      .cls-1 {
        fill: #fff;
      }
    </style>
  </defs>
  <path class="cls-1" d="M179.55,37.33c.32-.04.43.24.39.45-1.9,9.49-7.08,35.98-7.2,36.46-.07.25-.15.7-.67.75-3.6.39-13.38,1.91-14.19,2.07-.4.05-.79,0-.71-.39,2.02-9.88,7.14-36.12,7.33-36.74.08-.27.22-.43.56-.47,2.33-.29,9.86-1.42,14.49-2.14,0,0,0,0,0,0Z"/>
  <path class="cls-1" d="M175.02,22.59c10.23-.24,9.39,11.75.25,13.47-5.27.99-10.37-1.33-9.35-7.04.77-4.28,5.28-6.34,9.09-6.43h0Z"/>
  <path class="cls-1" d="M111.47,30.26c1.19.86,7.11,5.34,9.02,6.75.31.23.32.38.22.68-1.17,3.57-4.13,6.18-7.68,7.14-4.3,1.16-10.1.2-13.4-.69-.79-.21-1.08-.19-1.31.52-.73,2.23-8.17,41.13-8.31,41.87-.09.46-.18.55-.48.59-5.4.75-10.47,1.57-15.89,2.29-.21.03-.37-.3-.31-.56.65-3.36,8.38-41.79,8.82-44.29.08-.43-.18-.51-.68-.37-4.71,1.4-7.75,4.35-9.36,8.1-.16.36-.33.88-.8.55-3.14-2.23-6.01-4.26-9-6.47-.48-.36-.6-.53-.33-1.24,1.39-3.58,4.1-6.35,7.55-7.94,4.43-2,9.54-1.67,14.27-1.34,5.1.37,10.22,1.07,15.35.75,5-.31,8.82-1.89,11.63-6.21.17-.26.4-.35.68-.15h0Z"/>
  <path class="cls-1" d="M217.63,31.2c.58-.02.59.28.49.69-.12.54-2.39,12.14-2.72,13.69-.06.3-.17.43-.61.37-3.91-.59-7.55,1.12-9.16,5.22-.45,1.13-.22,1.7.11,2.35.49.98,4.78,10.02,6.92,14.59.19.4.47.8-.15.88-1.68.22-11.88,1.74-14.21,2.09-.36.05-.61-.13-.69-.3-1.49-2.98-3.08-6.54-4.44-9.59-.26-.58-.78-.84-.95.11-1.58,8.7-7.8,11.79-16.41,13.09-.4.06-.51-.28-.43-.61.82-3.84,2.48-12.66,2.61-13.13.08-.31.06-.67.67-.58,3.17.45,7.48-.44,9.59-3.47.65-.93,1.7-2.08,1-3.61-.38-.85-7.42-15.53-7.22-15.92.06-.04.11-.08.16-.13,3.48-.48,13.03-1.9,14.21-2.11.34-.06.58-.02.71.35.98,2.79,4.38,9.31,4.68,9.94.24.49.65.51.75-.09,1.06-6.19,5.09-13.75,15.07-13.82h0Z"/>
  <path class="cls-1" d="M162.19,39.86c.56-.1.45.47.31.75-1.11,2.3-16.6,33.67-18.73,38.05-.22.44-.35.54-.82.61-.83.11-9.12,1.31-12.12,1.74-.33.05-.47-.01-.53-.45-.11-.93-2.14-16.41-2.27-17.45-.05-.41-.54-.32-.64-.12-2.04,4.18-6.03,12.89-9.18,19.37-.22.45-.27.59-.78.66-1.24.18-11.17,1.63-13.14,1.89-.39.05-.39-.13-.45-.46-.12-.74-2.91-24-4.12-34.82-.05-.41-.02-.61.47-.67,1.21-.15,10.93-1.52,14.43-2.08.32-.05.53.03.58.36.05.37,1.31,16.86,1.81,22.3.02.28.47.46.61.1,1.98-6.01,7.41-22.07,8.06-23.98.1-.26.16-.45.52-.51,4.67-.7,8.77-1.31,13.49-1.97.29-.04.48.08.51.41.22,2.33,1.87,16.95,2.34,22.28.04.43.55.46.65.15,2.55-8,4.98-16.22,7.42-24.1.04-.13.24-.37.37-.39,3.06-.5,7.41-1.05,11.19-1.67h0Z"/>
</svg>