<?xml version="1.0" encoding="UTF-8"?>
<svg id="Layer_1" data-name="Layer 1" xmlns="http://www.w3.org/2000/svg" viewBox="0 0 280 112">
  <defs>
    <style>
      .cls-1 {
        fill: #fff;
      }
    </style>
  </defs>
  <path class="cls-1" d="M87.29,51.98c10.8-12.28,7.98-15.07,8.93-16.51.57-.83,4.26.15,5.25,3.21,2.7,8.31-8.59,16.2-11.56,25.42-5.74,18.09,24.02,11.71,32.5-8.84,8.29-20.02-2.85-28.89-18.82-25.99-15.77,2.87-23.07,23.57-35.58,27.95-12.47,4.38-20.15-2.64-20.49-8.16-.23-3.36,8.32,6.12,24.82-6.19,14.56-10.84,21.63-20.85,41.17-22.44,19.99-1.66,29,13.22,26.46,25.08-5.44,25.31-38.39,44.27-55.99,39.51-13.46-3.7-12.28-15.33,3.31-33.05ZM231.96,51.64c1.37-2.83-.19-4.27-2.39-1.51-1.44,1.78-7.83,9.9-16.38,8.42-8.32-1.44-8.06-10.99-7.72-11.07,13.57-1.7,21.44-13.86,14.1-18.39-4.83-2.98-16.08-.72-21.29,14.28-1.1-.15-3.23-.87-4.41-1.78,2.93-10.01-4.56-9.78-5.4-5.06-.76,4.31,2.13,4.08.04,8.5-2.43,5.17-6.04,11.29-8.97,10.24-3.76-1.36,2.77-12.24-.76-15.45-3.84-3.51-10.19,4.08-14.6,6.72-4.37-10.69-17.3-3.78-21.67,3.85-3.42,6.01-2.85,14.5,3.19,16.39,9.35,2.91,17.68-6.35,19.2-16.81,2.43-1.81,5.63-5.36,6.8-3.25,1.63,2.91-5.05,12.88,1.1,16.01,4.22,2.15,12.09-1.47,19.65-17.37,1.56.83,3.08,1.4,4.83,1.74-2.13,22.96,25.58,23.27,34.67,4.53ZM160.16,51.15c-.11,2.08-4.71,11.75-9.47,9.52-3.27-1.55-3.12-10.05,4.75-14.35-.04,2.79,2.62,4.57,4.71,4.83ZM216.53,32.98c2.55,2.64-3.8,9.25-10.76,10.46,1.56-7.67,8.17-13.14,10.76-10.46Z"/>
  <path class="cls-1" d="M223.26,27.05c0-1.85,1.52-3.25,3.31-3.25s3.31,1.36,3.31,3.25-1.52,3.25-3.31,3.25-3.31-1.36-3.31-3.25ZM226.56,29.77c1.48,0,2.62-1.13,2.62-2.72s-1.18-2.68-2.62-2.68-2.66,1.17-2.66,2.68,1.18,2.72,2.66,2.72ZM225.88,28.94h-.57v-3.74h1.44c.87,0,1.33.34,1.33,1.06,0,.68-.42.94-.99,1.02l1.07,1.66h-.65l-.99-1.62h-.65v1.62ZM226.56,26.82c.49,0,.91-.04.91-.6,0-.45-.42-.57-.84-.57h-.76v1.17h.68Z"/>
  <path class="cls-1" d="M144.27,82.27c0-2,1.56-3.55,3.84-3.55.91,0,1.6.23,2.13.57l-.49,1.47c-.38-.23-.95-.49-1.56-.49-1.33,0-2.05.91-2.05,1.96s.72,2,2.05,2c.61,0,1.22-.23,1.6-.49l.49,1.47c-.53.34-1.25.57-2.13.57-2.36.04-3.88-1.51-3.88-3.51Z"/>
  <path class="cls-1" d="M159.47,85.71h-1.79v-2.68h-2.59v2.68h-1.79v-6.84h1.79v2.64h2.59v-2.64h1.79v6.84Z"/>
  <path class="cls-1" d="M162.59,82.27c0-1.96,1.52-3.55,3.8-3.55s3.8,1.55,3.8,3.55-1.52,3.55-3.8,3.55-3.8-1.55-3.8-3.55ZM164.41,82.27c0,1.17.8,2,1.98,2s1.98-.83,1.98-2-.8-1.96-1.98-1.96-1.98.83-1.98,1.96Z"/>
  <path class="cls-1" d="M172.93,82.27c0-2,1.56-3.55,3.84-3.55.91,0,1.6.23,2.13.57l-.49,1.47c-.38-.23-.95-.49-1.56-.49-1.33,0-2.05.91-2.05,1.96s.72,2,2.05,2c.61,0,1.22-.23,1.6-.49l.49,1.47c-.53.34-1.25.57-2.13.57-2.39.04-3.88-1.51-3.88-3.51Z"/>
  <path class="cls-1" d="M181.63,82.27c0-1.96,1.52-3.55,3.8-3.55s3.8,1.55,3.8,3.55-1.52,3.55-3.8,3.55-3.8-1.55-3.8-3.55ZM183.46,82.27c0,1.17.8,2,1.98,2s1.98-.83,1.98-2-.8-1.96-1.98-1.96-1.98.83-1.98,1.96Z"/>
  <path class="cls-1" d="M192.32,85.71v-6.84h1.79v5.33h2.17v1.51h-3.95Z"/>
  <path class="cls-1" d="M200.98,84.16l-.53,1.55h-1.79l2.51-6.84h1.86l2.51,6.84h-1.79l-.53-1.55h-2.24ZM202.12,80.61l-.68,2.15h1.37l-.68-2.15Z"/>
  <path class="cls-1" d="M210.71,80.34v5.33h-1.79v-5.33h-1.56v-1.51h4.9v1.51h-1.56Z"/>
  <path class="cls-1" d="M215.27,85.71v-6.84h3.88v1.51h-2.09v1.13h1.79v1.47h-1.79v1.21h2.17v1.51h-3.95Z"/>
</svg>