<?xml version="1.0" encoding="UTF-8"?>
<svg id="Layer_1" data-name="Layer 1" xmlns="http://www.w3.org/2000/svg" viewBox="0 0 280 112">
  <defs>
    <style>
      .cls-1 {
        fill: #fff;
      }
    </style>
  </defs>
  <path class="cls-1" d="M203.83,69.86c5.06-10.71,10.13-21.41,15.23-32.12.31-.68.65-1.39,1.26-1.87.75-.58,1.46-.58,2.14.1.48.48.88,1.05,1.19,1.67,4.01,8.29,8.02,16.55,12.03,24.85,2.04,4.21,4.08,8.46,6.12,12.68.27.58.24.82-.44.95-1.63.27-3.23.37-4.86.2-2.52-.27-4.28-1.56-5.4-3.84-.78-1.6-1.6-3.16-2.31-4.79-.27-.65-.65-.82-1.33-.82-3.91.03-7.82,0-11.73.03-.88,0-1.05-.17-.71-1.02,1.16-3.03,3.2-4.49,6.42-4.52h4.28c-2.01-4.15-3.94-8.16-5.91-12.3-2.82,5.95-5.61,11.76-8.36,17.54-.92,1.9-1.77,3.81-2.72,5.68-1.5,3.03-3.91,4.38-7.1,4.04-2.79-.31-5.13-2.48-5.91-5.47-.24-.95-.31-1.94-.31-2.89,0-10.37,0-20.77-.03-31.14,0-.85.17-1.12,1.05-1.09,2.31.07,4.62.03,6.93.07.24.37.1.78.1,1.16,0,10.61,0,21.21.03,31.78.03.37-.31.92.34,1.12"/>
  <path class="cls-1" d="M56.99,49.02c-1.22,2.55-2.35,4.96-3.5,7.34-.65,1.39-1.33,2.82-1.97,4.21-.27.58-.2.82.51.82,1.5-.03,2.96-.07,4.45.07,3.16.24,4.72,2.41,5.54,4.89.24.71-.27.54-.65.54-3.98,0-7.95.03-11.93,0-.68,0-1.02.2-1.29.82-.78,1.73-1.6,3.47-2.45,5.17-1.36,2.62-3.5,3.81-6.25,3.57-1.56-.14-1.7-.37-1.02-1.73,5.81-12.07,11.66-24.13,17.47-36.2.37-.75.71-1.5,1.22-2.18.95-1.19,2.07-1.16,2.92.07.37.54.68,1.12.95,1.7,5.95,12.3,11.9,24.64,17.88,36.95.41.85.17,1.02-.61,1.12-1.19.17-2.38.27-3.57.24-3.06-.07-5.27-1.43-6.59-4.25-3.54-7.48-7.14-14.92-10.74-22.37-.1-.2-.2-.41-.37-.78"/>
  <path class="cls-1" d="M174.7,62.58c1.29-2.96,2.52-5.78,3.74-8.57,2.04-4.69,4.11-9.42,6.15-14.11.37-.85.78-1.7,1.39-2.45,1.43-1.8,4.18-2.48,6.32-1.63.78.31.34.71.17,1.09-1.94,4.28-3.88,8.53-5.85,12.78-3.6,7.89-7.17,15.74-10.78,23.62-.37.78-.71,1.6-1.26,2.28-.95,1.19-1.97,1.19-2.92-.03-.54-.68-.88-1.5-1.26-2.28-5.54-12.17-11.08-24.34-16.66-36.47-.31-.65-.2-.85.48-1.02,1.8-.37,3.6-.44,5.4-.14,2.45.44,4.01,1.9,5,4.18,3.23,7.38,6.49,14.72,9.76,22.06.07.17.14.31.31.68"/>
  <path class="cls-1" d="M106.48,67.28c1.09,2.45.75,4.25-1.02,6.05-2.11,2.07-4.72,2.96-7.58,3.4-8.94,1.39-16.93-2.58-20.53-10.3-2.92-6.25-3.13-12.71-.65-19.17,1.77-4.62,4.89-8.19,9.48-10.23,5.03-2.28,10.23-2.69,15.5-.95,3.2,1.05,4.59,3.43,4.08,6.25-.14.78-.27,1.19-1.22.61-4.86-2.92-11.66-2.62-15.64.61-2.24,1.84-3.57,4.25-4.32,6.97-1.02,3.81-1.02,7.65.03,11.46,1.7,6.05,6.63,9.38,12.92,8.91,3.3-.31,6.32-1.33,8.94-3.6"/>
  <path class="cls-1" d="M139.93,42.73c-3.6-1.29-7.34-1.05-11.05-1.12-.68,0-.88.14-.88.88.03,11.01.03,22.06.07,33.07,0,.61-.17.82-.82.78-4.69-.27-7.27-2.65-7.38-7.34-.14-6.53-.07-13.09-.07-19.61,0-2.31-.03-4.62,0-6.93,0-.61-.14-.82-.78-.82-3.57.07-7.17-.17-10.64.92-.51.17-.65.03-.61-.48.14-3.37,1.36-6.32,6.05-6.29,6.49.03,13.02,0,19.51-.03h.75c4.18.07,6.42,2.75,5.85,6.97"/>
  <path class="cls-1" d="M150.67,56.06c0,6.42,0,12.88.03,19.31,0,.92-.24,1.16-1.12.92-.68-.2-1.43-.17-2.11-.37-2.89-.82-4.76-3.16-4.79-6.32-.07-6.22-.03-12.44-.07-18.66,0-4.79-.03-9.62-.07-14.41,0-.51.17-.68.68-.68,2.24.03,4.49.03,6.73,0,.82-.03.75.44.75.95v13.56c-.03,1.87-.03,3.77-.03,5.71"/>
  <path class="cls-1" d="M203.83,69.86c.03.2-.03.44-.2.44-.41,0-.2-.37-.2-.58v-33.89c.44.34.2.78.2,1.19,0,10.3,0,20.56.03,30.86-.03.65-.24,1.36.17,1.97"/>
</svg>