<?xml version="1.0" encoding="UTF-8"?>
<svg id="Layer_1" data-name="Layer 1" xmlns="http://www.w3.org/2000/svg" viewBox="0 0 280 112">
  <defs>
    <style>
      .cls-1 {
        fill: #0094d6;
      }

      .cls-2 {
        fill: #fff;
      }
    </style>
  </defs>
  <g>
    <path class="cls-2" d="M227.32,14.12H52.68s0,52.28,0,52.28h54.97v31.48h64.4v-31.6s55.27,0,55.27,0V14.12ZM224.92,63.89h-55.18v31.53h0s-59.6,0-59.6,0v-31.53h-54.93V16.51h169.71v47.37Z"/>
    <g>
      <polygon class="cls-2" points="156.79 68.08 155 81.08 158.83 81.08 157.02 68.08 156.79 68.08"/>
      <path class="cls-2" d="M86.73,34.93c-1.03,0-1.61.84-1.92,1.89-.47,1.61-.69,4.61-.69,7.64s.21,6.06.69,7.67c.31,1.06.85,1.89,1.87,1.89s1.61-.83,1.92-1.89c.47-1.61.69-4.64.69-7.67s-.21-6.03-.69-7.64c-.31-1.06-.84-1.89-1.87-1.89Z"/>
      <path class="cls-2" d="M106.42,35.33h-1.85v7.14s1.54,0,1.59,0c2.02,0,2.66-1.74,2.66-3.56,0-1.93-.49-3.58-2.4-3.58Z"/>
      <path class="cls-2" d="M194.32,35.33h-1.85v7.14s1.54,0,1.59,0c2.02,0,2.66-1.74,2.66-3.56,0-1.93-.49-3.58-2.4-3.58Z"/>
      <path class="cls-2" d="M56.06,17.38v45.64h54.93v31.52h57.91v-31.52h55.18V17.38H56.06ZM145.22,47.79c-1.94-1.47-6.4-2.49-7.56-5.42-.49-1.25-.57-2.9-.52-4.35.06-1.85.48-3.54,1.51-4.94,1.49-1.85,3.7-2.44,6.08-2.44s4.48.83,5.65,2.1c1.51,1.77,1.68,3.97,1.68,6.54h-3.65c-1.18-.04-1.9,0-1.9-1.56,0-.27-.02-1.08-.07-1.29-.22-1.06-.93-1.49-1.78-1.49-1.15,0-1.69.73-1.89,1.51-.36,1.4-.28,3.59.75,4.53,1.59,1.46,4.24,2.19,6.17,3.71,2.5,1.97,2.32,4.46,2.32,6.39,0,2.21-.79,4.18-2.76,5.76-1.31,1.04-3.23,1.33-4.58,1.33-1.99,0-3.99-.39-5.23-1.4-2.07-1.69-2.41-3.55-2.41-6.88h5.31l.02,1.54c.05.56.08,1.1.38,1.61.38.65,1.05.76,1.73.76s1.2-.35,1.44-.64c.4-.48.54-1.04.58-1.99.05-1.28-.18-2.55-1.29-3.38ZM72.97,44.67v12.8h-6.17v-12.78l-5.44-19.33h5.83l2.6,12.6h.23s2.15-10.57,2.15-10.57c.42-1.93,1.14-2.05,2.1-2.05h4.19l-5.5,19.33ZM91.41,56.51c-1.26,1.38-3.2,1.87-4.74,1.87s-3.49-.58-4.66-1.89c-2.21-2.49-3.39-6.84-3.39-11.99s1.05-9.65,3.35-12.02c1.28-1.32,3.11-1.89,4.71-1.89s3.5.58,4.76,1.89c2.31,2.4,3.35,6.86,3.35,12.01s-1.13,9.55-3.37,12.02ZM108.67,55.02c-.19-1.12-.57-4.84-.91-6.14-.35-1.34-.93-1.75-1.65-2.06-.66-.28-1.74-.22-1.71-.21,0,0,0,10.88,0,10.87h-5.47v-26.24s8.36,0,8.37,0c3.22,0,4.47,1,5.36,2.26.84,1.19,1.19,2.82,1.2,4.41,0,1.48-.22,3.07-1.31,4.49-1.25,1.64-2.47,2.11-2.54,2.09.66.17,2.18.88,2.81,2.51.89,2.32,1,9.32,2.01,10.52,0,0-2.93.01-3.47.01-1.5,0-2.34-.62-2.67-2.51ZM129.34,65.47c0,1.14-.19,2-1.87,2.01-1.92,0-3.05,0-3.05,0v21.77h-5.52v-21.77h-4.61v-4.43h15.06v2.42ZM127.86,55.14s-1.35-5.49-2.05-8.06c-.5.91-1.1,2.15-1.7,3.16v7.25h-5.44v-26.23h5.51s0,10.23,0,10.24c0,0,.21-.01.21.01,0,.02,3.98-8.56,3.98-8.56.82-1.62,1.49-1.69,2.7-1.69h3.89s-5.44,9.99-5.44,9.99c0,0,4.21,13.07,4.52,13.95.59,1.73,1.07,2.28,1.07,2.28h-4.4c-1.57,0-2.49-.67-2.86-2.35ZM144.94,89.24h-11.8v-26.21c3.76,0,7.53-.01,11.66,0v4.26h0s0,0,0,0h-6.03v6.19h5.6v2.19c0,1.04-.04,1.35-.37,1.71-.44.48-1.04.53-1.79.53h-3.5v7.05c1.76.02,3.78.02,6.23,0v4.28ZM159.87,89.22l-.48-3.92h-4.91l-.18,1.18c-.15.87-.12,1.72-.69,2.29-.5.5-1.38.45-2.42.45h-2.62v-.05l4.97-26.12h6.62l5.03,26.17h-5.32ZM171.38,57.48h-5.55v-10.91h-4.25v8.45c0,1.94-1.13,2.48-2.57,2.48h-2.82v-26.18s5.43.04,5.4,0v10.31s4.25,0,4.25,0v-7.9c-.02-2.18,1.4-2.46,2.17-2.46h3.37v26.22ZM182.09,55.01c0,1.74-.99,2.48-2.61,2.48h-2.8v-26.18s5.44.04,5.4,0v23.7ZM199.24,57.53c-1.5,0-2.34-.62-2.67-2.51-.19-1.12-.57-4.84-.91-6.14-.35-1.34-.93-1.75-1.65-2.06-.66-.28-1.74-.22-1.71-.21,0,0,0,10.88,0,10.87h-5.47v-26.24s8.36,0,8.37,0c3.22,0,4.47,1,5.36,2.26.84,1.19,1.19,2.82,1.2,4.41,0,1.48-.22,3.07-1.31,4.49-1.25,1.64-2.47,2.11-2.54,2.09.66.17,2.18.88,2.81,2.51.89,2.32,1,9.32,2.01,10.52,0,0-2.93.01-3.47.01ZM218.32,57.5h-11.8v-26.21c3.77,0,7.53-.01,11.66,0v4.26h0s0,0,0,0h-6.03v6.19h5.6v2.19c0,1.04-.04,1.36-.37,1.71-.44.48-1.04.53-1.79.53h-3.49v7.05c1.76.02,3.78.02,6.22,0v4.28Z"/>
    </g>
  </g>
  <path class="cls-1" d="M137.52,58.8c-.47-.54-1.13-1.16-1.97-3.44-.33-.9-4.53-13.98-4.53-13.98l6.31-11.43h-6.77c-1.38,0-2.45.42-3.05,1.73,0,0-1.99,4.52-2.01,4.52l.02-6.25h-8.23v28.86h8.13l-.05-8.41h.05s1.24,5.2,1.24,5.2c.56,2.44,1.81,3.19,3.6,3.19h7.26ZM130.54,58.33c-1.56,0-2.77-.38-3.4-2.68l-1.66-6.54-.51.93v8.3h-7.15l.04-27.91h7.14v7.91s2.43-5.43,2.91-6.35c.83-1.62,2.02-1.56,3.07-1.56h5.51s-6.04,10.88-6.04,10.88c0,0,4.39,13.53,4.61,14.17.66,1.98,1.42,2.84,1.42,2.84,0,0-5.93,0-5.93,0ZM68.55,23.94h-9.22l5.99,20.74v14.15h9.1v-14.01l6.03-20.88h-6.66c-.94,0-2.4.3-2.84,2.37-.37,1.73-1.06,5.42-1.06,5.42l-1.35-7.79ZM69.91,34.36s1.07-5.51,1.52-7.57c.39-1.8,1.17-2.36,2.81-2.36h5.46s-5.87,20.39-5.87,20.39v13.55h-7.89v-13.67l-5.88-20.27h7.9s1.95,9.93,1.95,9.93ZM145.18,50.3c.03.81.01,1.03-.03,1.39-.09.65-.39.91-.69.91-.52,0-.76-.33-.76-1.12v-2.86h-8v2.14c.04,3.06.74,5.01,2.55,6.66,1.35,1.23,3.58,1.97,6.47,1.97,2.21,0,4.52-.63,6.01-2,1.72-1.58,2.65-3.56,2.7-6.27.06-3.01-.43-5.57-2.4-7.12-1.66-1.31-4-2.22-5.78-3.23-.77-.43-1.11-.81-1.25-2.06-.04-.33-.06-.9,0-1.58.04-.42.18-.91.67-.91.41,0,.48.5.48.92,0,.13.03.39.03.93,0,1.7.71,2.45,2.79,2.45h5.44c.05-2.95-.04-5.51-.85-7.04-1.78-3.35-5.28-4.04-7.86-4.04s-4.89.64-6.6,2.34c-1.51,1.59-2.32,3.99-2.35,6.24-.02,1.43,0,2.71.44,4.17,1.19,3.95,6.1,5.02,8.02,6.29.69.46.95,1.1.98,1.82M144.73,35.73c-.75,0-1.07.51-1.21,1.21-.1.49-.13,1.13-.08,1.6.16,1.4.26,1.87,1.52,2.64,1.27.78,3.73,1.8,4.99,2.67,2.85,1.98,2.92,4.57,2.92,7.28,0,2.45-1.04,5.47-3.73,6.85-1.16.6-2.77.98-4.42.98s-3.89-.35-5.36-1.32c-2.1-1.44-2.95-3.19-3.1-6-.06-.43-.03-2.55-.04-2.55h6.94s0,2.16,0,2.16c0,.47.08,1,.15,1.16.19.47.47.7,1.08.7.56,0,1.06-.38,1.19-.93.28-1.27.22-3.08-.85-3.89-2-1.52-6.3-2.25-7.81-5.5-.64-1.37-.7-3.08-.65-4.73.06-2.03.55-3.81,1.67-5.33,1.62-2.18,4.16-2.84,6.75-2.84,2.8,0,5.21,1.07,6.47,2.48,1.79,2.08,1.71,4.76,1.71,7.68h-4.75c-1.41,0-2.29-.11-2.38-1.85-.01-.26-.02-.94-.04-1.28-.03-.7-.44-1.18-.98-1.18M115.59,56.18c-.4-1.84-.92-6.6-1.26-8.36-.42-2.18-1.58-3.05-2.18-3.37.03.01.31-.15.94-.81,1.38-1.44,2.04-3.6,2.04-5.72,0-1.71-.33-3.04-.92-4.31-1-2.14-2.95-3.59-6.51-3.59l-10.12-.02v28.82h8.02v-10.86c.23,0,.77.17,1,1.37.11.55.71,5.35.89,6.59.38,2.52,2.39,2.92,3.45,2.92.33,0,5.77-.02,5.77-.02-.36-.33-.81-1.22-1.12-2.63ZM107.02,49.01c-.19-.73-.52-1.36-1.31-1.56-.19-.04-.39-.06-.58-.07v10.98h-7.04v-27.9h9.25c4.25,0,5.72,1.74,6.63,3.73.43.95.7,2.6.7,3.76,0,1.82-.49,3.94-2.05,5.57-.34.36-.69.63-1.1.94,1.31.8,2.06,1.79,2.36,3.41.46,2.46.82,6.25,1.14,7.9.34,1.77.73,2.4.86,2.58h-4.69c-.97,0-2.87-.18-3.22-2.73-.06-.44-.8-5.98-.96-6.61M106.37,36.07c-.06,0-.97.01-.97-.02v5.68s.88,0,.93,0c1.01,0,1.57-1.31,1.57-2.88s-.48-2.78-1.53-2.78M106.26,41.29s-.42.01-.41,0v-4.8s.43,0,.47,0c.81-.01,1.06,1.42,1.06,2.34,0,1.2-.39,2.45-1.12,2.45M203.5,56.18c-.4-1.84-.92-6.6-1.26-8.36-.42-2.18-1.58-3.05-2.18-3.37.03.01.31-.15.94-.81,1.38-1.44,2.04-3.6,2.04-5.72,0-1.71-.33-3.04-.92-4.31-1-2.14-2.95-3.59-6.51-3.59l-10.12-.02v28.82h8.02v-10.86c.23,0,.77.17,1.01,1.37.11.55.71,5.35.89,6.59.38,2.52,2.39,2.92,3.45,2.92.33,0,5.76-.02,5.76-.02-.36-.33-.81-1.22-1.12-2.63h0ZM194.92,49.01c-.18-.73-.52-1.36-1.31-1.56-.19-.04-.39-.06-.58-.07v10.98h-7.04v-27.9h9.25c4.25,0,5.72,1.74,6.63,3.73.43.95.7,2.6.7,3.76,0,1.82-.49,3.94-2.05,5.57-.34.36-.69.63-1.1.94,1.31.8,2.06,1.79,2.36,3.41.46,2.46.82,6.25,1.14,7.9.34,1.77.73,2.4.86,2.58h-4.68c-.97,0-2.88-.18-3.21-2.73-.06-.44-.8-5.98-.96-6.61M194.27,36.07c-.06,0-.98.01-.97-.02v5.68s.88,0,.93,0c1.01,0,1.57-1.31,1.57-2.88s-.48-2.78-1.53-2.78M194.16,41.29s-.42.01-.41,0v-4.8s.43,0,.47,0c.81-.01,1.06,1.42,1.06,2.34,0,1.2-.39,2.45-1.12,2.45M155.86,80.28h2.07l-1.01-8.69-1.06,8.69ZM157.35,79.8h-.91l.44-5.31h.06l.41,5.31h0ZM213.45,51.92v-4.46h2.81c.99,0,1.63-.21,2.13-.64.61-.54.73-1.41.73-2.09v-4.32h-5.61v-3.49s4.04,0,6.01,0l.04-6.92c.06.06-14.39,0-14.43,0v28.81h14.55v-6.9h-6.21ZM219.14,58.37h-13.53v-27.89s13.43.01,13.41,0v5.91s-6.04,0-6.04,0v4.52s5.64.02,5.62,0v3.89c0,.68-.16,1.28-.54,1.62-.45.41-1.12.57-1.91.57h-3.18v5.39h6.18v5.99h0ZM140.08,83.66v-4.46h2.81c.99,0,1.63-.21,2.13-.64.61-.54.73-1.41.73-2.09v-4.32h-5.61v-3.49s4.04,0,6.01,0l.04-6.92c.06.06-14.39,0-14.43,0v28.76h14.55v-6.85h-6.21,0ZM145.77,90.07h-13.53v-27.84s13.43.01,13.42,0v5.91s-6.04,0-6.04,0v4.53s5.64.02,5.62,0v3.89c0,.68-.16,1.28-.54,1.62-.45.41-1.12.57-1.91.57h-3.19v5.39h6.18v5.94h0ZM92.37,31.58c-1.38-1.43-3.51-2.24-5.69-2.24s-4.25.81-5.63,2.24c-2.39,2.47-3.75,7.06-3.75,12.91s1.35,10.18,3.72,12.85c1.64,1.84,3.89,2.27,5.67,2.27,2.41,0,4.32-.68,5.74-2.24,2.36-2.59,3.71-7.16,3.71-12.88,0-4.13-.69-9.73-3.76-12.91M92.07,57.06c-1.33,1.46-3.12,2.11-5.39,2.11-1.68,0-3.79-.42-5.32-2.14-2.29-2.58-3.55-7.03-3.55-12.54s1.27-10.2,3.58-12.59c1.3-1.34,3.28-2.09,5.3-2.09s4.06.75,5.35,2.1c2.96,3.07,3.57,8.54,3.57,12.58,0,5.6-1.26,10.07-3.54,12.57M87.81,37.06c-.38-1.3-.87-1.3-1.08-1.3-.19,0-.75,0-1.13,1.3-.41,1.39-.65,4.16-.65,7.41s.24,6.04.65,7.44c.38,1.3.88,1.3,1.09,1.3.19,0,.75,0,1.13-1.29.41-1.4.65-4.18.65-7.44,0-3.25-.25-6.02-.66-7.41M87.36,51.78c-.13.44-.35.96-.68.96-.24,0-.45-.32-.64-.96-.4-1.35-.59-4.09-.59-7.31s.19-5.92.59-7.28c.13-.44.35-.97.68-.97.23,0,.44.32.63.97.4,1.35.59,4.08.59,7.28s-.19,5.95-.59,7.31M152.41,61.73l-5.6,28.8h5.07c1.26,0,2.1-.3,2.54-.68.66-.57.87-1.25.96-1.93l.19-1.29c.74.03,1.75,0,2.63,0l.46,3.91h8.15l-5.51-28.8h-8.9ZM152.87,62.2h7.98l5.33,27.84h-7.11l-.46-3.89h-3.5l-.22,1.56c-.09.54-.26,1.26-.81,1.73-.45.39-1.17.6-2.33.6h-4.34s5.46-27.84,5.46-27.84ZM112.89,61.77v7.02h4.56v21.84h8.4v-21.81s2.11,0,2.11,0c1.78,0,2.79-1.19,2.79-2.83v-4.22s-17.86,0-17.86,0ZM127.75,68.31h-2.4v21.82h-7.36v-21.82h-4.58v-6.04h16.84v3.6c0,1.25-.71,2.44-2.5,2.44ZM179.67,58.83c2.52-.01,3.77-1.26,3.77-3.58v-25.27h-8.18l-.02,28.85h4.43ZM175.77,30.44h7.15s.01,24.39,0,24.89c0,2.15-1.34,2.99-3.05,2.99,0,0-4.1.02-4.1,0v-27.88ZM167.81,29.98c-1.16,0-3.33.54-3.32,3.84v6.45s-1.53,0-1.53,0v-10.3h-8.19l-.02,28.85h4.49c2.06,0,3.71-1.13,3.71-3.47,0-1.02-.01-4.12-.01-7.45.31,0,1.52,0,1.5,0v10.91h8.4l.02-28.84h-5.05ZM172.31,58.35h-7.34v-10.93s-2.55,0-2.55,0c0,4.47,0,7.72,0,7.91,0,2.15-1.46,2.98-3.05,2.99-1.94.01-4.1.02-4.1,0v-27.89h7.17s0,4.81,0,10.33c0,0,2.53,0,2.53,0l.03-7.32c0-2.15,1.42-3,3.05-3h4.26c.04,3.08,0,27.89,0,27.89h0Z"/>
  <g>
    <path class="cls-1" d="M98.51,20.62v.88h2.26v5h.89v-5h2.19v-.88h-5.34ZM107.6,20.62h-.79l-2.13,5.91h.93l.51-1.46h2.15l.51,1.46h.95l-2.13-5.91ZM107.97,24.2h-1.54l.77-2.17.77,2.17ZM114.34,20.62l-1.4,2.54-1.4-2.54h-1.03l1.97,3.52v2.36h.9v-2.37l1.97-3.51h-1.01ZM118.03,25.62v-5.01h-.89v5.88h3.34v-.87h-2.45ZM124.34,20.55c-1.77,0-3.06,1.27-3.06,3.02v.06c0,1.74,1.28,3.01,3.05,3.01s3.05-1.27,3.05-3.02v-.06c0-1.74-1.28-3.01-3.04-3.01ZM126.5,23.57v.06c0,1.23-.91,2.13-2.16,2.13s-2.17-.9-2.17-2.14v-.06c0-1.23.91-2.13,2.16-2.13s2.17.9,2.17,2.14ZM131.73,24.15c.74-.27,1.17-.88,1.17-1.7v-.02c0-.5-.16-.94-.46-1.25-.34-.37-.88-.57-1.51-.57h-1.97v5.88h.89v-2.16h.95l1.33,2.16h1.06l-1.46-2.35ZM132.01,22.46v.02c0,.63-.43,1-1.17,1h-.98v-1.99h1.04c.42,0,1.11.13,1.11.97ZM136.9,23.13c-.96-.37-1.13-.6-1.13-.99v-.02c0-.41.35-.7.84-.7.41,0,.79.16,1.16.5l.13.12.53-.72-.11-.1c-.5-.46-1.04-.67-1.7-.67-1,0-1.76.7-1.76,1.63v.02c0,.7.27,1.25,1.63,1.78.99.37,1.07.64,1.07.96h0c0,.46-.37.78-.9.78s-.91-.19-1.38-.64l-.13-.13-.56.71.1.1c.57.56,1.21.83,1.95.83,1.04,0,1.8-.71,1.8-1.68v-.02c0-.82-.45-1.33-1.57-1.76h0Z"/>
    <path class="cls-1" d="M144.26,23.38c0,.79-.67,1.43-1.5,1.43-.64,0-1.07-.4-1.07-.99,0-.77.68-1.41,1.5-1.41.63,0,1.06.39,1.06.97h0ZM142.49,23.31c-.1.26-.16.52-.16.72,0,.33.16.54.41.54s.47-.17.64-.52c.15-.29.23-.6.23-.87,0-.34-.16-.54-.42-.54-.28,0-.53.23-.7.67ZM145.97,22.38c.15-.48.27-.74.43-.95.22-.27.48-.4.81-.4s.55.17.55.4c0,.15-.11.28-.26.28,0,0-.01,0-.02,0-.14,0-.19-.06-.28-.3-.03-.1-.07-.13-.13-.13-.09,0-.13.05-.18.21l-.33,1.09h.46l-.08.26h-.46l-.47,1.55c-.24.78-.39,1.12-.6,1.38-.24.29-.51.42-.86.42-.38,0-.64-.18-.64-.43,0-.18.14-.32.31-.32.18,0,.27.09.29.32.01.13.06.18.16.18.17,0,.26-.14.41-.62l.75-2.48h-.48l.08-.26h.48l.06-.18h0ZM149.99,22.03h.52v1.37h1.22v-1.37h.52v3.14h-.52v-1.29h-1.22v1.29h-.52v-3.14ZM154.77,22.03h.5l1.14,3.14h-.54l-.26-.74h-1.21l-.26.74h-.52l1.14-3.14h0ZM155.45,23.97l-.45-1.25-.45,1.25h.89ZM161.36,22.03h1.13c.36,0,.65.11.83.29.16.17.26.4.26.69v.02c0,.48-.27.78-.65.91l.73,1.22h-.6l-.66-1.12s-.02,0-.03,0h-.5v1.12h-.52v-3.13s0,0,0,0ZM162.43,23.58c.4,0,.62-.21.62-.54h0c0-.36-.23-.54-.61-.54h-.57v1.08h.56ZM157.68,22.03h1.13c.36,0,.65.11.83.29.16.17.26.4.26.69v.02c0,.48-.27.78-.65.91l.73,1.22h-.6l-.66-1.12s-.02,0-.03,0h-.5v1.12h-.52v-3.13s0,0,0,0ZM158.76,23.58c.4,0,.62-.21.62-.54h0c0-.36-.23-.54-.61-.54h-.57v1.08h.56ZM173.77,22.03h.5l1.14,3.14h-.54l-.26-.74h-1.21l-.26.74h-.52l1.14-3.14h0ZM174.41,23.97l-.45-1.25-.45,1.25h.89ZM176.98,22.51h-.82v-.48h2.16v.48h-.82v2.66h-.52v-2.66h0ZM179.51,22.03h1.96v.47h-1.45v.9h1.29v.47h-1.29v.84h1.47v.47h-1.99v-3.14h0ZM166.31,21.99c-.89,0-1.61.72-1.61,1.61s.72,1.61,1.61,1.61c.89,0,1.61-.72,1.61-1.61,0-.89-.72-1.61-1.61-1.61ZM166.31,24.73c-.62,0-1.13-.51-1.13-1.13s.51-1.13,1.13-1.13,1.13.51,1.13,1.13-.51,1.13-1.13,1.13ZM171.48,23.4h-1.15v.45h.7v.74c-.55.3-1.24.1-1.54-.45-.3-.55-.1-1.24.45-1.54.38-.21.84-.18,1.2.07l.33-.33h.02c-.7-.56-1.71-.44-2.26.26-.55.7-.43,1.71.27,2.26.58.46,1.41.46,1.99,0v-1.46h0Z"/>
  </g>
</svg>