<?xml version="1.0" encoding="UTF-8"?>
<svg id="Layer_1" data-name="Layer 1" xmlns="http://www.w3.org/2000/svg" viewBox="0 0 280 112">
  <defs>
    <style>
      .cls-1 {
        fill: #fff;
      }
    </style>
  </defs>
  <path class="cls-1" d="M165.82,48.64h0c-4.39,0-7,.91-7.69,1.15-.56.22-.56.51-.4.64.19.15.28.13.62.43.55.49.45,1.98.45,3.92v14.52c0,.81.33,1.12,1.04,1.12h3.35c.7,0,1.04-.31,1.04-1.12v-14.44c0-1.74-.58-2.98-1.41-3.45v-.08c.5-.23,1.7-.35,2.4-.35,2.89,0,3.97,1.24,3.97,4.26v10.96c0,2.86,1.36,4.22,3.8,4.22h.58c.7,0,1.03-.31,1.03-1.12v-13.32c0-5.15-2.91-7.33-8.79-7.33Z"/>
  <path class="cls-1" d="M121.92,72.34h0c-1.61-.7-2.73-1.45-2.73-4.26v-11.13c0-2.65-1.08-4.02-4.05-4.02-1.12,0-2.01.26-2.73.62-.18.09-.29.21-.29.42,0,.17.12.29.2.33,1.16.66,1.45,1.57,1.45,3.98v11.23c0,3.31,1.37,4.93,4.34,4.93,1.74,0,4.05-.95,4.05-1.66,0-.27-.14-.39-.25-.44Z"/>
  <path class="cls-1" d="M114.31,49.24c.62.17,1.32.1,1.87.42.7.4,1.05,1.14,1.37,1.85.24.55.62.17.62.17.32-.29.49-.79.6-1.2.6-2.25.08-5.33-2.1-6.61-.94-.55-2.11-.68-3.06-.09-1.32.83-1.89,2.32-1.23,3.84.34.78.95,1.34,1.92,1.61Z"/>
  <path class="cls-1" d="M116.44,76.89h0c-2.65-.45-3.76-1.44-5.95-7.1-1.9-4.95-3.85-7.02-5.62-7.72-.54-.21-1.32-.33-1.32-.33v-.12c4.76-1.2,7.81-3.84,7.81-7.8,0-6.07-4.38-8.38-10.62-8.38-2.65,0-6.13.58-8.04,1.2-.58.25-.91.41-.91.87,0,.41.42.74.42.74.7.74,1.03,2.35,1.03,6.11v20.19c0,.87.45,1.41,1.28,1.41h3.51c.83,0,1.24-.46,1.24-1.32v-20.65c0-2.89-.83-5.37-1.82-5.78v-.08c.87-.29,2.25-.33,3.11-.33,2.61,0,5.04,1.16,5.04,5.78,0,3.63-.74,6.52-5.13,7.56-.21.04-.5.21-.5.58s.29.54.54.66c1.78.82,1.86,4.09,3.68,8.63,1.32,3.39,3.23,6.9,7.81,6.9,1.78,0,3.27-.08,4.46-.25.21-.04.33-.12.33-.37,0-.21-.16-.33-.37-.37Z"/>
  <path class="cls-1" d="M152.72,24.03v-12.03h-25.44v12.01c-27.92,3.64-48.89,19.09-48.89,37.58,0,21.21,27.56,38.4,61.56,38.4s61.56-17.19,61.56-38.4c0-18.47-20.91-33.9-48.78-37.57ZM148.24,34.88c0,.97-.9,1.61-2.04,1.61s-2.04-.64-2.04-1.61c0-.65.42-1.18.98-1.35-.32-.15-.59-.53-.59-1,0-.79.71-1.32,1.64-1.32s1.64.53,1.64,1.32c0,.48-.26.86-.59,1,.57.17.98.7.98,1.35h0ZM136.99,34.59c-1.07,0-1.77-.76-1.77-1.66,0-.98.77-1.73,1.94-1.73s2.04,1,2.04,2.47-.75,2.82-2.22,2.82c-.69,0-1.37-.32-1.69-1.02l.85-.46c.17.34.49.52.83.52.66,0,1.12-.57,1.16-1.38-.26.25-.63.43-1.14.43ZM138,29.92c-1.15,0-1.94-.69-1.94-1.63h0s1.09,0,1.09,0c0,.39.39.7.88.7s.81-.24.81-.62c0-.29-.22-.5-.68-.64l-.66-.18c-1.18-.31-1.39-1.01-1.39-1.48,0-.94.83-1.58,1.87-1.58s1.8.61,1.8,1.61h-1.09c0-.38-.27-.67-.74-.67-.42,0-.74.25-.74.61,0,.13.04.41.6.56l.6.17c.81.22,1.53.65,1.53,1.54,0,1.05-.92,1.61-1.94,1.61ZM140.53,35.03c.25.33.55.52.94.52.55,0,.91-.28.91-.7s-.37-.73-.9-.73h-.51v-.79h.29c.57,0,.9-.3.87-.66-.02-.31-.29-.51-.67-.51-.33,0-.69.16-.89.42l-.58-.64c.37-.43.91-.72,1.59-.72.92,0,1.64.55,1.63,1.42,0,.43-.26.81-.69,1.02.57.2.93.68.93,1.28h0c0,.93-.8,1.57-1.94,1.57-.74,0-1.35-.31-1.72-.9l.74-.56ZM142.89,25.5v4.35h-1.09v-4.35h-1.49v-.94h4.07v.94h-1.49ZM145,29.58v-.66h3.07v.66h-3.07ZM148.21,26.43c0,1.06-.63,1.85-1.72,1.85h-1.49v-3.72h1.49c1.09,0,1.72.81,1.72,1.87ZM141.57,17.01c1.78-1.55,4-1.07,4.71.03.71,1.1.37,2.27-.3,2.77-.67.49-1.17.69-1.86.74-.54.04-1.08-.17-1.79-.12-1.61.11-2.28,1.53-2.28,1.53,0,0-.31-3.36,1.51-4.95h0ZM139.77,14.05c.65,0,1.18.54,1.18,1.19s-.53,1.19-1.18,1.19-1.18-.54-1.18-1.19.53-1.19,1.18-1.19ZM133.95,17.03c.5-.73,1.67-1.1,2.77-.5,2.16,1.19,2.16,3.78,2.16,3.78,0,0-1.19-1.75-2.66-.97-.89.47-1.58.35-2.18-.11-.63-.48-.59-1.47-.09-2.19ZM131.87,24.56h3.39v.94h-2.3v1.26h2.01v.96h-2.01v1.18h2.37v.95h-3.46v-5.3ZM131.9,33.06v-.97l2.18-.89h.09v5.22h-1.06v-3.82l-1.21.46ZM140.06,97.52c-31.28,0-56.63-16.08-56.63-35.92,0-17.07,18.79-31.35,43.97-35v3.84c0,7.07,5.67,12.79,12.66,12.79s12.66-5.73,12.66-12.79v-3.84c25.18,3.65,43.97,17.93,43.97,35,0,19.84-25.36,35.92-56.63,35.92Z"/>
  <path class="cls-1" d="M183.79,50.91h0c-3.41,0-5.74,1.89-6.43,4.04-.07.26.21.42.33.29.12-.12.25-.27.36-.37.84-.74,2.05-1.29,3.92-1.29,2.57,0,4.16,1.69,4.16,5.31-.87.19-2.32.62-3.85,1.24-2.65,1.05-6.08,3.1-6.08,6.74,0,4.37,3.93,5.93,7.86,5.93,5.17,0,7.49-2.05,7.49-4.76v-8.4c0-4.62-.4-8.72-7.76-8.72ZM186.14,69.19c0,1.39-.91,2.17-2.15,2.17-1.95,0-2.85-1.24-2.85-4.37,0-4.18,2.19-5.65,5-6.35v8.56Z"/>
  <path class="cls-1" d="M156.67,65.52h0c-.16,0-.33.07-.46.23-.83,1.04-2.48,1.94-4.72,1.94-3.06,0-5.38-2.05-5.58-6.31,6.49-.74,10.38-2.9,10.38-6.78,0-3.02-2.4-5.34-6.78-5.34-6.04,0-9.35,6.16-9.35,11.23,0,5.5,3.19,10.38,9.18,10.38,4.06,0,6.83-2.25,7.65-4.8.08-.31-.08-.54-.33-.54ZM149.22,50.92h0c1.57,0,2.27,1.39,2.27,4.1,0,3.29-1.57,3.72-5.58,4.69,0-4.1.29-8.79,3.31-8.79Z"/>
  <path class="cls-1" d="M131.46,51.65h0c-1.91,0-3.76.73-4.68,2.19v-6.59c0-3.08-1.05-4.85-4.02-5.13-1-.09-1.91-.03-2.57.25-.1.07-.31.16-.31.35,0,.15.11.25.19.29,1.16.62,1.29,1.92,1.29,4.19v17.71c0,4.27,2.73,8.23,8.44,8.23,6.29,0,9.09-6.3,9.09-11.8,0-6.39-2.68-9.69-7.44-9.69ZM129.88,71.11h0c-2.29,0-3.1-2.43-3.1-5.7v-5.9c.02-3.61,1.08-5.53,3.28-5.53,2.81,0,3.3,2.25,3.3,7.33,0,6.38-.66,9.8-3.47,9.8Z"/>
</svg>