<?xml version="1.0" encoding="UTF-8"?>
<svg id="Layer_1" data-name="Layer 1" xmlns="http://www.w3.org/2000/svg" viewBox="0 0 280 112">
  <defs>
    <style>
      .cls-1 {
        fill: #fff;
      }
    </style>
  </defs>
  <g id="KnkUAF">
    <g>
      <path class="cls-1" d="M149.47,70.55l-1.09-6.36-3.07,7.88c-.4,1.04-1.13,1.82-2.03,2.45-1.8,1.27-4.2,1.42-6.17.43-1.25-.63-2.18-1.63-2.69-2.93l-2.96-7.65-1.17,6.26c-.28,1.5-1.1,2.79-2.26,3.73s-2.43,1.29-3.84,1.24c-1.58-.05-2.96-.68-4.06-1.79-1.31-1.32-1.97-3.14-1.67-5.03l4.12-25.96c.25-1.54,1.11-2.82,2.32-3.76,3.08-2.37,7.75-1.01,9.2,2.39l5.7,13.37,6.16-13.53c.38-.83.99-1.51,1.63-2.1.87-.8,1.94-1.21,3.1-1.3,1.69-.13,3.23.48,4.44,1.63,1.08,1.03,1.79,2.29,2.04,3.78l4.17,25.25c.05.29.02.54.03.83.04,2.26-1.14,4.38-3.13,5.49-2.09,1.17-4.7.93-6.55-.58-1.17-.96-1.99-2.19-2.25-3.73Z"/>
      <g>
        <path class="cls-1" d="M180.33,75.04c-3.55.87-7.3.81-10.75-.45-2.8-1.02-5.46-3.02-6.54-5.88-.97-2.56-.15-5.77,2.38-7.08,2.18-1.12,4.8-.54,6.6.99l1.88,1.59c.41.35.89.61,1.38.78.67.23,1.26,0,1.69-.52.55-.65.52-1.51-.15-2.09-.52-.45-1.14-.8-1.81-1.05l-2.16-.79c-1.53-.56-2.98-1.17-4.42-1.93-2.44-1.3-4.15-3.53-4.71-6.24-.35-1.71-.36-3.43-.04-5.15.68-3.64,3.12-6.6,6.51-8.05,1.64-.7,3.33-1.07,5.1-1.26s3.58-.1,5.34.43c1.35.4,2.59.95,3.78,1.68,2.33,1.43,3.73,3.52,3.49,6.35-.14,1.69-1.05,3.22-2.61,3.96-1.67.79-3.82.32-5.28-.68l-3.12-2.14c-.37-.26-.94-.15-1.35-.06-.56.12-.87.57-.91,1.1-.06.65.22,1.19.77,1.52.63.38,1.29.63,1.99.88l3.84,1.36c2.38.85,4.46,2.28,6.03,4.25s2.3,4.32,2.28,6.81c-.02,2.01-.55,3.87-1.42,5.66-1.58,3.25-4.31,5.14-7.79,5.99Z"/>
        <g>
          <circle class="cls-1" cx="203.26" cy="51.06" r="12.76"/>
          <circle class="cls-1" cx="224.52" cy="56.31" r="5.89"/>
          <g>
            <circle class="cls-1" cx="198.03" cy="30.26" r="5.9"/>
            <circle class="cls-1" cx="223.48" cy="41.21" r="5.89"/>
            <circle class="cls-1" cx="212.89" cy="30.99" r="5.88"/>
          </g>
        </g>
      </g>
      <g>
        <path class="cls-1" d="M104.7,70.43h-11.1c-.3,2.29-2.02,4.2-4.12,4.89-3.25,1.06-6.78-.63-7.81-3.88-.41-1.29-.52-2.86.06-4.14l11.56-25.64c.39-.86.92-1.6,1.58-2.24,1.12-1.09,2.58-1.57,4.13-1.6,2.73-.05,4.67,1.48,5.81,3.89l12.11,25.72c.72,2.33.16,4.75-1.54,6.44-1.07,1.07-2.4,1.65-3.93,1.76-2.9.21-5.52-1.59-6.34-4.38-.08-.26-.26-.5-.4-.8ZM102.56,59.53c0-1.82-1.48-3.3-3.3-3.3s-3.3,1.48-3.3,3.3,1.48,3.3,3.3,3.3,3.3-1.48,3.3-3.3Z"/>
        <path class="cls-1" d="M73.61,75.63c-1.68-.02-3.12-.64-4.26-1.81-1.05-1.08-1.75-2.46-1.75-4.03v-26.17c.05-1.58.68-2.94,1.76-4.03,1.14-1.15,2.58-1.76,4.21-1.79s3.16.57,4.33,1.74c1.09,1.1,1.72,2.49,1.78,4.08v26.17c0,1.6-.72,3.02-1.8,4.12-1.14,1.16-2.61,1.74-4.27,1.72Z"/>
      </g>
    </g>
  </g>
</svg>