<?xml version="1.0" encoding="UTF-8"?>
<svg id="Layer_1" data-name="Layer 1" xmlns="http://www.w3.org/2000/svg" viewBox="0 0 280 112">
  <defs>
    <style>
      .cls-1 {
        fill: #fff;
      }
    </style>
  </defs>
  <g id="FJJZFZ">
    <g>
      <path class="cls-1" d="M231,75.21H49s11.33-19.21,11.33-19.21l-11.33-19.21h181.99s0,38.42,0,38.42ZM85.78,56.55v-2.26s-10.3-.02-10.3-.02v-5.03s10.88-.03,10.88-.03l-.02-2.27h-15.32s0,17.62,0,17.62h15.7s-.03-2.27-.03-2.27h-11.21s0-5.73,0-5.73h10.3ZM113.47,57.62l6.69-5.23-5.11.04-5.85,4.53-.04-10-4.18-.02v17.54s4.17,0,4.17,0l.06-6.11,6.51,6.15h5.05s-7.3-6.89-7.3-6.89ZM184.64,54.67c-1.84-3.13-7.32-3.36-10.11-.94l-.06-6.79-4.22.03v12.31c0,2.15,1.04,3.91,3.11,4.72,3.66,1.44,11.5,1.46,12.08-4.51.16-1.65-.03-3.28-.8-4.81ZM119.88,62.08c.53,3.11,7.73,3.53,9.98,1.19l.18,1.17,3.94-.03.02-8.28c0-1.65-.82-3-2.51-3.49-3.06-.9-10.81-1.26-10.98,3.25l4.04.02c.21-1.22,1.09-1.72,2.21-1.8.92-.07,2.13-.04,2.75.75.54.67.5,1.88.32,2.6-3.08.12-10.69.33-9.95,4.64ZM186.14,61.89c.33,3.31,7.74,3.74,10.02,1.37l.18,1.16,3.94-.03.02-8.28c0-1.56-.74-2.92-2.35-3.43-3.1-.99-10.96-1.34-11.14,3.19l4.04.02c.21-1.22,1.09-1.72,2.21-1.8.92-.07,2.13-.04,2.75.75.54.67.5,1.88.32,2.6-3.08.13-10.4.3-9.99,4.45ZM146.13,55.02c.37.24.58,1.28.59,1.72l.03,7.75h4.24s0-8.39,0-8.39c0-1.4-.66-2.64-1.89-3.3-2.4-1.29-6.52-.84-8.37,1.7l-.13-2.11h-4.19s0,12.05,0,12.05h4.18c.05-1.99-.06-3.82.13-5.76.26-2.67,2.81-4.62,5.44-3.66ZM102.55,52.39l-4.24.02c-.03,2.11.06,3.85-.1,5.75-.23,2.58-2.67,4.46-5.18,3.81-.62-.16-.88-1.16-.88-1.75l-.04-7.8h-4.23s0,8.55,0,8.55c0,1.59,1.02,2.9,2.49,3.4,2.75.95,5.87.36,7.86-2.01l.14,2.16,4.19-.05v-12.08ZM168.11,52.39h-4.19c-.06,1.99.04,3.88-.12,5.82-.19,2.29-2.15,3.92-4.29,3.91-1.04,0-1.73-.59-1.74-1.64l-.05-8.07-4.23.02v8.48c0,1.33.68,2.49,1.83,3.14,2.49,1.41,6.57.83,8.51-1.71l.1,2.15h4.18s0-12.11,0-12.11ZM203.07,52.99c.35-.19.54-.3.72-.5h-2.09s.76.52.76.52l.3,2.25.31-2.27ZM206.27,53.51c.22.95.16,1.14.49,1.51.12-1.11.11-1.67,0-2.73l-1.13,1.12-1.04-1.08c-.25,1.02-.3,1.76.05,2.77l.32-1.78.63,1.09.67-.9Z"/>
      <path class="cls-1" d="M177.53,62.78c-1.64-.05-2.71-.95-2.93-2.48-.34-2.41-.04-6.03,2.77-6.32,1.26-.13,2.56.22,3.1,1.48.69,1.62.64,3.58.19,5.26-.38,1.44-1.6,2.11-3.12,2.07Z"/>
      <path class="cls-1" d="M191.69,62.7c-.67-.12-1.29-.52-1.4-1.03-.48-2.23,4.4-2.57,5.93-2.48-.04,2.52-2.1,3.95-4.54,3.51Z"/>
      <path class="cls-1" d="M125.58,62.74c-.76-.1-1.46-.48-1.6-1.08-.51-2.23,4.43-2.57,5.95-2.47-.04,2.44-1.96,3.86-4.34,3.55Z"/>
    </g>
  </g>
</svg>