<?xml version="1.0" encoding="UTF-8"?>
<svg id="Layer_1" data-name="Layer 1" xmlns="http://www.w3.org/2000/svg" viewBox="0 0 280 112">
  <defs>
    <style>
      .cls-1 {
        fill: #fff;
      }
    </style>
  </defs>
  <g id="DjmGtg">
    <g>
      <path class="cls-1" d="M155.31,84.59l-13.73,12.74c-.18.16-.62.13-.76,0l-13.23-12.32c-1.21-1.12-2.6-2.06-4.27-2.07l-32.52-.12c-5.43-.02-9.51-4.8-9.51-10.04V28.63c0-4.72,3.83-9.78,8.96-9.78l102.11-.09c4.93.83,8.29,4.43,8.8,9.39v45.44c-.54,5.15-4.19,8.84-9.34,9.33l-32.79.02c-1.27,0-2.64.64-3.73,1.66ZM101.52,48.52c1.12-.02,2.34.77,2.55,1.83l.68,3.35c.13.67.49,1.69,1,2.12.96.81,2.44.69,3.32-.07,1.98-1.71.65-4.68-1.4-6.32l-.89-.72.72-.13c1.12-.2,2.3-.47,3.28-.97,2.72-1.38,3.59-4.78,2.75-7.18-.76-2.16-3.34-3.43-5.3-4.34l-3.52-1.63c-.8-.37-1.65-.99-2.38-1.56-1.8-1.39-.92-4.08.65-5.34,1.29-1.04,4.09-.89,4.72,1.09l.63,1.96c.16.49.67,1.4,1.17,1.64.76.36,1.92.29,2.58-.08.89-.49,1.21-1.71.8-2.63-1.76-4.02-8.98-4.26-12.29-2.4-3.63,2.04-3.94,7.09-1.55,9.4.85.82,1.97,1.56,3.03,2.05l3.53,1.62c1.92.88,4.06,2.31,3.38,4.74-.38,1.36-1.36,2.39-2.45,2.69-1.26.35-2.7.15-3.59-.83-.57-.62-.94-1.59-1.23-2.39l-.8-2.18c-.21-.58-1.27-1.16-1.9-1.17-1.17-.02-2.15.65-2.29,1.78-.21,1.71.58,3.03,1.88,3.97l1.24.9c.31.07.34.07-.04,0-2.97.54-5.37,2.12-6.87,4.7-2.28,3.93-2.17,9.08.11,12.97,1.49,2.56,3.93,4.32,6.91,4.76,7.64,1.13,10.87-5.71,9.63-5.33-1.6.49-1.9,1.06-3.81,1.4-2.63.46-5.29-.2-7.15-2.1-4.54-4.6-2.22-15.52,2.9-15.6ZM150.8,46.57c1.48,0,2.79-.65,3.67-1.77.2-.23.3-.35.12-.15l.28,1.54c.12.02.79.03,1.04.01l4.31-.26s-.02-.46-.02-.53c-.35-.28-.81-.83-.81-1.16v-17.58c.02-1.88-2.18,2.1-5.28,2.44-.19.05-.28.68-.13.79.25.19.74.62.73.8l-.05,2.48c-.03.36-.04.44-.02-.04-1.65-1.83-4.76-1.84-6.68-.81-3.06,1.64-3.39,5.09-3.1,8.24s2.31,6.02,5.94,6.02ZM120.52,41.41c-.55-.96-.81-2.05-.96-3.2h7.64c.21,0,.73-.41.74-.62.22-2.82-1.99-5.81-5.16-5.94-2.36-.09-4.53.44-6.07,2.32-1.55,1.89-2.05,4.34-1.58,6.74.68,3.47,3.48,5.83,7.08,5.86,2.06.01,4.92-1.2,5.42-3.06.25-.92-4.65,2.18-7.11-2.11ZM134.47,38.23h7.25c2.44,0,.44-4.18-.53-5.01-1.77-1.51-3.61-1.86-5.9-1.42-4.15.78-6.26,5.3-5.13,9.5.88,3.25,3.68,5.32,7.08,5.28,2.09-.02,4.94-1.35,5.27-3.1.07-.37-1.69.23-3.02.3-2.9.14-4.95-2.72-5-5.55ZM171.28,45.84c1.49-.65,2.41-1.99,2.59-3.59.35-3.14-2.37-4.08-4.53-5.04-1.53-.68-4.35-1.78-3.6-3.75.21-.54,1.01-1.08,1.77-1.12s1.6.55,1.82,1.15l.5,1.36c.17.45,1.03,1.03,1.62,1.04.48,0,1.25-.27,1.46-.55.17-.24.29-.87.23-1.21-.4-2.54-6.55-3.48-9.62-1.28-1.68,1.2-2.24,3.42-1.2,5.25.36.63,1.27,1.47,1.91,1.77l2.97,1.38c1.05.49,2.22,1.03,2.31,2.42.07,1.15-.76,2.14-2.06,2.18-.75.02-1.69-.52-1.95-1.2l-.74-1.96c-.29-.76-1.18-1.23-2.12-1.02-.53.12-1.23,1.07-1.1,1.64.85,3.75,6.88,3.76,9.73,2.52ZM188.57,39.22l1.25-.25-.2-.4-1.31-.22c-.09-.02-.99-.99.03-2.27.1-.13.76-.06.82.09l.29.75c.08.2.37.72.56.66l.78-.27c.2-.07.06-.88-.1-1.02-1.24-1.15-3.61-.51-3.82.31l-.42,1.7-.57.55c.05.02.65.54.65.74v5.16c0,.43-.21,1.01-.34,1.44h2.8c-.11-.25-.42-.89-.42-1.16v-5.81ZM182.31,45.69c-.52.44-1.63.17-1.98-.38-1.1-1.75-1.36-3.44-1.12-5.5l1.4-1.3c-1.68-.09-2.84,1.14-3.27,2.64-.43,1.52-.1,3.23,1.13,4.3,1.46,1.27,3.76,1.26,5.23,0,1.33-1.15,1.61-2.96,1.09-4.57-.65-1.66-2.19-2.81-4.15-2.39l1.65,1.4c.52,1.56,1.42,4.61.01,5.8ZM121.6,66.12c0,.21-.49.72-.59.87l-.34.55c-.08.13.46.06.64.06h5.78s0-.53,0-.53c-.41-.29-.81-.88-.8-1.29l.02-6.02c0-2.87-.34-6.05-3.81-6.64-1.99-.34-3.99.23-5.05,1.94l-.31.51v-.99s-.06-6.81-.06-6.81c0-1.13-1.82,1.9-5.2,2.74-.12.03-.55.29-.47.36l.41.36c.24.21.68.81.68,1.17v13.33c0,.36-.33,1.02-.57,1.2l-.45.33c-.07.05.27.35.4.35h5.92c.09,0,.42-.3.35-.35l-.44-.31c-.24-.17-.61-.87-.61-1.18v-7.16c.01-1.2.64-2.95,1.94-3.24.42-.09,1.46.1,1.72.43.46.57.84,1.53.84,2.27v8.05ZM176.85,67.34c-.22-2.62-3.88-2.52-5.65-2.32l-2.61.29c-.88.1-4.34.5-4.63-.57-.13-.46.5-1.43.92-1.44,3.09.66,6.37.53,8.9-1.18,1.9-1.28,2.66-3.52,1.96-5.71-.58-1.81-1.68-1.85-2.38-2.91.46-.16.92-.29,1.27-.29h1.88c.33.02.85-.84.86-1.17.02-.46-.68-1.24-1.18-1.28-1.09-.1-2.34.36-2.82,1.27l-.73,1.38-2.46-.37c-1.8-.27-4.69.41-6.41,1.56-1.06.71-1.8,1.88-2.1,3.14-.45,1.9.44,4.01,2.12,5.07l-1.97,1.78c-.2,1.06-.29,2.27.52,2.85l1.05.76c-.53.4-1.25,1.1-1.24,1.78.03,1.96,4.35,2.5,5.91,2.45,3,.09,9.13-.84,8.78-5.08ZM128.83,64.45c.01,1.3.67,2.4,1.67,2.94,2.33,1.26,5.43.6,6.86-1.88.11.89,1.27,1.95,2.05,2.02l2.78.23.02-.75c-.2-.37-.5-1.1-.51-1.44l-.11-7.8c-.02-1.16-.49-2.5-1.33-3.29-1.99-1.88-6.34-1.94-8.98-.32-.93.57-1.66,2.34-.72,3.35.27.29.97.55,1.6.61s1.57-.68,1.65-1.18l.25-1.63c.05-.29.35-1.01.56-1.23.3-.31,1.5-.33,1.79,0,.22.25.56,1.1.57,1.44l.08,2.46c0,.18-.48.62-.67.68l-2.33.68c-2.48.73-5.24,1.82-5.21,5.11ZM154.36,59.04l.02,6.74c0,.44-.39,1-.84,1.3l.03.54,5.76-.03.64-.02c.9-.02-.91-.63-.91-1.56v-7.37c-.02-2.74-1.03-5.13-3.96-5.55-2.18-.31-3.86.33-5.12,2.18-.22.16-.37.26-.16.11l-.14-1.84c-.11-1.45-1.2.52-4.76,1.36-.27.06-.82.32-.68.45l.43.4c.19.18.55.72.55,1.01v9.1c0,1.05-1.99,1.71-.33,1.72h5.75s.02-.49-.01-.58c-.26-.2-.72-.74-.72-1.05v-7.62c.01-.61.3-1.5.58-2.02.45-.83,1.64-1.16,2.46-.87,1.21.43,1.4,2.18,1.4,3.58ZM182.5,60l.56-.4,7.04.03c.16,0,.85-.21.85-.35.15-3.08-1.53-5.6-4.76-6.16-3.69-.64-7.08,1.61-7.99,5.28-.31,1.25-.31,2.62-.04,3.88.74,3.46,3.64,5.77,7.17,5.7,2.09-.04,3.94-.9,5.2-2.57.43-1.27-.82-.3-3.05-.24-2.84.08-4.45-2.48-4.99-5.19ZM150.3,79.56c0-5.09-4.13-9.22-9.23-9.22s-9.23,4.13-9.23,9.22,4.13,9.22,9.23,9.22,9.23-4.13,9.23-9.22ZM190.7,74.52c0-.09.29-.25.73-.51.14.27.01.02-.07-.14l-1.82.09c.05.05.51.28.52.39l.14,1.38c.06.59.41.63.5,0v-1.22ZM193.78,75.28l.57.97.24-1.73c.02-.14-.44-.83-.52-.73l-.97,1.19-.64-1.11c-.78-1.34-.61,1.98-.62,2.2.03,0,.58.05.55.05l.06-1.12.65.68.74-.55c.23-.49.24-.51-.07.15Z"/>
      <path class="cls-1" d="M153.51,44.31c-.78.2-1.85.34-2.38-.13-2.39-2.17-1.92-9.33-.07-10.71.7-.53,2.07-.28,2.6.54.41.64.85,1.56.95,2.31.31,2.28.49,5.94-1.1,7.99Z"/>
      <path class="cls-1" d="M149.46,79.56c0,4.63-3.76,8.38-8.39,8.38s-8.39-3.75-8.39-8.38,3.76-8.38,8.39-8.38,8.39,3.75,8.39,8.38ZM141.53,74.58l-.07-2.08-.74-.19c-.06,1-.02,2.1.11,2.67.02.09.71-.28.7-.4ZM140.55,74.88c-1.14-.77-1.7-1.07-2.82-1.23.56.96,1.29,1.37,2.38,1.81l.44-.59ZM144.33,73.82c-1.16-.14-2.03.49-2.62,1.31.63.73,2.46-.75,2.62-1.31ZM144.69,73.88c-.56,1.21-.61,2.22.12,3.22.62-.79.51-2.92-.12-3.22ZM137.83,74.46l-.68-.32c-.2,1.1-.22,1.81.12,2.87.86-.2.55-1.8.56-2.54ZM145.85,77.46c.72-.37,1.72-1.04,2.13-1.46.08-.09-.57-.4-.67-.33l-1.88,1.18.42.62ZM136.1,76.15l-1.79-.26c.57,1.06,1.22,1.4,2.43,1.48l-.64-1.22ZM140.44,76.42l-.13-.78-2.32,1.21.37.67,2.08-1.1ZM143.9,76.62l-1.87-.9-.28.6c.52.42,1.62,1,2.23,1.14.14.03.04-.78-.09-.85ZM141.45,76.39l-.67-.09c-.18,1.32-.21,2.1.29,3.05.54-1.03.48-1.77.38-2.97ZM136.9,78.18l-.6-.38c-1.89.68-2.36,1.96-2.03,1.74-.37.25,1.58-.16,2.63-1.36ZM140.37,78.86c-.44-.31-1.48-.92-1.97-1.17l-.31.65,1.62,1.03c.12.08.79-.42.66-.51ZM143.97,77.78c-.73.08-1.98.66-2.25,1.5,1.25.47,3.14-1.61,2.25-1.5ZM147.81,78.74l-2.08-1.05-.31.66,2.26,1.23.13-.85ZM137.89,80.48l-.2-2.22-.67.18c0,.69.03,1.92.09,2.49,0,.1.79-.29.78-.44ZM145.22,80.63l-.06-2.2-.59-.29c-.34.98-.35,1.9,0,2.88l.63-.39ZM136.91,81.02l-2.29-1.31-.31.75,2.16,1.16.45-.59ZM138.11,81.7c1.13-.55,1.67-.85,2.46-1.56-.2-.12-.69-.35-.81-.28l-1.88,1.21.23.63ZM142.32,79.77l-.58.42c.79.85,1.43,1.32,2.68,1.28-.64-.79-1.19-1.17-2.1-1.7ZM145.82,81.63l2.1-1.38-.5-.53-1.97,1.13.38.78ZM141.15,80.09c-.75.63-.55,2.14-.29,2.8.5,1.27,1.04-2.14.29-2.8ZM140.58,83.61c-.57-1.44-1.41-1.58-2.56-1.81l.3.95,2.25.86ZM144.35,81.9c-1.21-.19-2.18.57-2.66,1.38.23.72,2.58-.75,2.66-1.38ZM148.07,83.44c-.63-.89-1.38-1.31-2.15-1.61l-.62.26c.89.91,1.51,1.47,2.77,1.35ZM134.7,83.77l1.9-1.17-.17-.78-2.07,1.17.35.78ZM145.23,84.71l-.11-2.19c-.04-.9-1.23-.22-.75,2.29l.85-.1ZM137.22,82.39c-.31.92-.46,1.89.28,2.69.58-.75.56-2.8-.28-2.69ZM138.69,85.66l2-1.61-.97-.2-1.93,1.37.9.44ZM144.23,85.1c-.74-.67-1.6-1.21-2.61-1.18.56,1.04,1.39,1.39,2.37,1.69l.24-.51ZM141.48,84.28l-.73-.05c-.16,1.3-.18,2.1.32,3.05.53-1.02.47-1.71.42-3Z"/>
      <g>
        <path class="cls-1" d="M136.99,63.64c0,.57-.78,1.42-1.26,1.57-.57.17-1.55-.04-1.9-.57-1.31-2.02,1.31-3.89,2.9-4.77.1.14.25.37.32.45l-.05,3.33Z"/>
        <path class="cls-1" d="M186.06,58.42h-3.3c-.67-.01-.02-4.3,1.9-4.61.42-.07,1.28.34,1.55.82.51.91,1.25,3.79-.15,3.79Z"/>
        <path class="cls-1" d="M137.93,37.03l-3.55-.02c-.18-1.38.64-4.75,2.39-4.66,1.91.1,2.71,4.69,1.16,4.68Z"/>
        <path class="cls-1" d="M123.13,37.02h-3.62c-.14-1.48.57-4.54,2.27-4.66,1.94-.14,2.85,4.67,1.35,4.66Z"/>
        <g>
          <path class="cls-1" d="M170.18,62.64c-.74.63-2.3-.33-2.82-1.51-.79-1.81-1.94-6.37.15-7.15,1.89-.71,3.04,1.71,3.45,3.41.36,1.51.69,4-.78,5.25Z"/>
          <path class="cls-1" d="M172.32,70.23c-2.11,2-6.51,1.74-7.35.24-.31-.55.07-1.72.51-2.08l1.69-.15,3.7-.33c.39-.04,1.34.21,1.63.47.38.34.19,1.51-.18,1.87Z"/>
        </g>
      </g>
    </g>
  </g>
</svg>