<?xml version="1.0" encoding="UTF-8"?>
<svg id="Layer_1" data-name="Layer 1" xmlns="http://www.w3.org/2000/svg" viewBox="0 0 280 112">
  <defs>
    <style>
      .cls-1 {
        fill: #fff;
      }
    </style>
  </defs>
  <path class="cls-1" d="M175.3,44.69l2.88-11.75,1.73-6.8c-1.21.07-1.98.38-2.92.83l-6.09,2.26-13,4.74c-5.2-2.12-10.49-3.19-16.1-3.75l-7.58-.02c-5.62.6-10.96,1.55-16.23,3.78l-16.93-6.16c-1.72-.63-3.28-1.44-5.16-1.74l4.39,17.44c.23.92.27,2.15-.13,2.93-.67,1.31-2.54,1.65-3.62,1.06.09-.81.19-1.82,0-2.6l-2.74-11.06-1.77-7.1c-.55-2.2.99-4.37,3.15-4.67,1.49-.21,2.74.31,4.07.81l13.04,4.83,5.52,2c6.38-2.32,16.16-4.02,22.75-3.48l2.43.2c5.2.43,10.07,1.57,14.98,3.27l9.34-3.36,10.55-3.94c1.61-.6,3.42-.62,4.79.57.78.68,1.59,2.3,1.3,3.43l-3.89,15.34c-.55,2.18-1.36,4.99-.21,6.83-1.08.66-2.78.8-3.82-.23-.82-.82-1.01-2.36-.7-3.66Z"/>
  <path class="cls-1" d="M172.76,71.62c1.29-1.61,3.33-.96,4.73.21-16.34,24.13-62.42,24.2-78.99.3.52-.77,1.41-1.33,2.32-1.45,1.72-.23,2.97,2.03,4.66,3.64,9.59,9.14,23.65,12.48,36.63,11.54,11.22-.81,23.45-5.28,30.64-14.25Z"/>
  <path class="cls-1" d="M104.55,67.07c-2.54,1.08-4.95.59-7.03-1.08-1.99,1.76-4.39,2.14-6.74,1.15-2.01-.85-3.62-2.86-3.63-5.33l-.03-7.06c0-1.03.5-2.38,1.74-2.39l2.3-.02v8.94c-.01,1.13.6,2.05,1.59,2.28.77.18,2.59-.08,2.61-1.28l.13-10.1c0-.71,1.36-1.24,1.94-1.26.66-.03,1.94.41,2.25,1.11l.04,9.78c0,.83.68,1.6,1.48,1.75.63.12,1.5,0,1.97-.31.39-.26.82-1.12.82-1.68l.02-9.19,1.75-.08c1.21-.05,2.25.76,2.25,2.05v7.24c.01,2.31-1.25,4.56-3.46,5.49Z"/>
  <path class="cls-1" d="M123.62,67.11l-4.26.03-.06-10.27c0-1.27-1.23-1.84-2.33-1.86-1.26-.02-2.41.74-2.42,2.11l-.03,10.02-4.23-.06-.03-22.45c1.56-.43,4.23.05,4.25,1.9l.06,6.27c2.15-1.34,4.43-1.69,6.66-.64,1.2.57,2.33,2.04,2.34,3.48l.05,11.47Z"/>
  <path class="cls-1" d="M156.85,56.34c-.82.93-1.54,1.68-2.29,2.6l5.85,7.87c-2.27,1.56-4.89.79-6.32-1.44-1.07-1.68-2.18-3.13-3.47-4.86l-.16,6.74-4.21-.04.05-22.41c.98-.28,2.19-.26,3.26.32.44.24.96,1.32.96,1.86l.04,10.98,4.29-5.03c1.34-1.57,3.67-1.96,5.15-.17l-3.15,3.58Z"/>
  <path class="cls-1" d="M162.38,66.51c-1.72-1.22-2.25-3.46-1.39-5.44s2.87-3.03,4.92-3.31l3.53-.48c-.02-.57-.12-1.47-.4-1.94-.92-1.55-5.02-.72-6.62.94-.5-.53-.87-1.37-.82-2.11.2-2.68,6.08-3.09,9.2-2.04,1.95.66,2.94,2.35,2.96,4.38l.06,7.63c0,1.18.35,2.09,1.23,3.2-1.83.74-3.8.32-5.02-1.18-2.28,1.86-5.33,2.01-7.66.36ZM169.45,63.77l-.03-3.86c-1.52-.17-3.03.2-4.11,1.4-.37.41-.54,1.42-.39,1.93.13.41.71,1.13,1.16,1.26,1.25.38,2.36-.05,3.38-.73Z"/>
  <path class="cls-1" d="M187.74,64.28c-1.86,4.66-10.06,3.81-11.57,1.71-.59-.82-.6-2.19-.54-3.19,1.94,1.09,6.73,3.01,8,.8.15-.27.11-1.18-.14-1.38-1.78-1.5-3.96-.8-6.3-2.49-1.4-1.01-1.75-2.76-1.39-4.35.94-4.14,7.04-4.56,10.52-3,.61.28,1.26,1.22,1.32,1.76.08.64-.38,1.65-.9,1.93-1.74-1.15-5.3-2.46-6.63-.8-.23.28-.04,1.35.29,1.48,3.04,1.19,5.97,1.17,7.15,3.57.55,1.11.65,2.78.19,3.96Z"/>
  <path class="cls-1" d="M142.16,66.46c-3.74,2.26-10.07,1.05-10.24-1.45-.05-.68.3-1.69.75-2.14,1.95,1.45,5.64,2.7,7.17.86.25-.3.17-1.32-.13-1.57-1.49-1.22-4.08-.96-6.13-2.4-1.31-.92-1.8-2.49-1.57-4.02.2-1.3,1.17-2.69,2.6-3.36,3.28-1.54,8.67-.73,9.1,1.3.18.85.03,2.04-.7,2.44-1.66-1.51-6.47-2.57-6.83-.39-.06.38.53,1.13.93,1.25l3.98,1.2c1.88.57,3.12,2.19,3.19,4.1.06,1.71-.48,3.18-2.12,4.17Z"/>
  <path class="cls-1" d="M130,67.08c-1,.74-3.48.33-4.1-.95l-.03-13.96c.97-.51,3.71-.41,3.89,1.18.51,4.42,0,9.07.24,13.73Z"/>
  <circle class="cls-1" cx="127.79" cy="47.03" r="2.42"/>
  <path class="cls-1" d="M190.23,52.52c.24-.32,1.68-.31,1.82.08l-.36.85c-.08.19.1.41.4.77l.6-1.65c.4.86.14,1.76-.61,2.36-.69.55-1.8.52-2.4-.37s-.44-2.11.26-2.59c1.02-.69,2.58-.59,2.71.8-.82-.57-1.5-1-2.13-.65-.78.43-.94,1.27-.68,1.92.32.78,1.38,1.09,1.94.63l-.57-.71c-.11-.14-.46.15-.89.37l-.09-1.8Z"/>
</svg>