<?xml version="1.0" encoding="UTF-8"?>
<svg id="Layer_1" data-name="Layer 1" xmlns="http://www.w3.org/2000/svg" viewBox="0 0 280 112">
  <defs>
    <style>
      .cls-1 {
        fill: #fff;
      }
    </style>
  </defs>
  <g id="EFf10p">
    <g>
      <path class="cls-1" d="M140.31,24.02h84.07s0,63.26,0,63.26h-84.05s-46.76,0-46.76,0l-37.35-.02V24s37.38.02,37.38.02h46.71ZM105.65,77.96l-17.81-26.58,16.42-17.9-12.52-.02-16.03,17.81-.02-17.81h-10.14s0,44.54,0,44.54h10.14s0-14.21,0-14.21l5.04-5.6,4.76,7.73,7.74,12.08,12.4-.03ZM111.33,33.46v44.53h10.14v-44.53h-10.14ZM167.89,77.97v-44.5s-9.79,0-9.79,0v21.21s.1,8.27.1,8.27l-4.12-7.5-12.85-21.99-10.39.02v44.52s9.81,0,9.81,0l.02-17.42-.09-11.84,4.93,8.93,11.79,20.33,10.6-.03ZM215.26,49.6c-1.16-6.64-4.81-11.97-11.2-14.45-2.88-1.07-5.81-1.65-8.95-1.66l-17.86-.03v44.53s17.58-.02,17.58-.02c3.17,0,6.12-.57,9.03-1.65,4.56-1.78,8.09-5.16,9.95-9.68,2.16-5.24,2.42-11.51,1.45-17.03ZM216.5,37.48c0-1.29-1.05-2.34-2.34-2.34s-2.34,1.05-2.34,2.34,1.05,2.34,2.34,2.34,2.34-1.05,2.34-2.34Z"/>
      <path class="cls-1" d="M205.24,51.6c.61,3.89.49,8.97-1.39,12.51-1.11,2.09-2.89,3.57-5.12,4.36-1.59.5-3.2.85-4.9.85h-6.44s0-27.2,0-27.2h6.31c1.69-.01,3.3.3,4.88.79,3.95,1.31,6.04,4.7,6.67,8.68Z"/>
      <path class="cls-1" d="M215.95,37.48c0,.99-.8,1.79-1.79,1.79s-1.79-.8-1.79-1.79.8-1.79,1.79-1.79,1.79.8,1.79,1.79ZM215.09,38.58l-.41-.85c.21-.26.38-.52.43-.71.18-.73-1.26-.71-1.76-.66v2.19c.15.03.43.07.45-.04l.06-.45c.15-1.15.48.94,1.23.52Z"/>
    </g>
  </g>
</svg>