<?xml version="1.0" encoding="UTF-8"?>
<svg id="Layer_1" data-name="Layer 1" xmlns="http://www.w3.org/2000/svg" viewBox="0 0 280 112">
  <defs>
    <style>
      .cls-1 {
        fill: #fff;
      }
    </style>
  </defs>
  <path id="text" class="cls-1" d="M129.16,82.65h-4.88c-.19,0-.25-.19-.25-.25v-14.77c.06-.25.06-.57,0-.82-.25-1.39-1.58-2.28-2.92-2.15-1.39.25-2.28,1.58-2.15,2.92v18.5c0,.76.57,1.39,1.39,1.46h9.06c1.33-.06,2.28-1.2,2.22-2.53-.06-1.46-1.14-2.41-2.47-2.34ZM111.42,65.92l-13.12,17.62c-.32.44-.51.95-.51,1.52,0,.76.32,1.58,1.08,1.96,1.14.76,2.53.51,3.36-.51l2.53-3.42h6.15v1.96c.06,1.39,1.2,2.47,2.53,2.34h0c1.39,0,2.34-1.14,2.34-2.34v-17.49c0-.76-.32-1.46-.82-1.9-1.01-1.01-2.66-.89-3.55.25ZM110.79,78.15h-2.28c-.06,0-.19-.06-.19-.19v-.06l2.47-3.36v3.61ZM104.2,67.63c0-1.33-1.08-2.34-2.28-2.34-.63,0-1.33.25-1.71.63l-5.58,5.77c-.06.13-.19.13-.25.13s-.19,0-.19-.06l-5.58-5.83c-.38-.38-1.08-.76-1.71-.76-1.33,0-2.28,1.08-2.28,2.28,0,.57.25,1.2.57,1.65l6.84,7.79.06,8.17c0,1.33,1.08,2.34,2.34,2.34s2.34-1.08,2.34-2.34l.19-8.11,6.65-7.79c.38-.44.57-1.01.57-1.52ZM75.49,65.16c-6.15,0-11.09,5.01-11.09,11.09s5.01,11.09,11.09,11.09,11.09-5.01,11.09-11.09c.06-6.02-4.94-11.03-11.09-11.09ZM75.49,82.27c-3.36,0-5.96-2.6-5.96-5.96s2.6-5.96,5.96-5.96,5.96,2.6,5.96,5.96c0,3.36-2.6,5.96-5.96,5.96ZM192.85,64.65c-1.2.06-2.22,1.08-2.22,2.22v10.39c0,.06-.06.19-.19.19s-.06,0-.06-.06l-6.02-10.71c-.89-1.65-3.04-2.15-4.56-1.14-.89.57-1.58,1.65-1.65,2.72v16.98c.06,1.39,1.33,2.34,2.53,2.28s2.22-1.08,2.28-2.28v-10.33c0-.06.06-.19.19-.19q.06,0,.06.06l6.21,10.96c.82,1.58,2.79,2.03,4.31,1.2,1.08-.57,1.65-1.65,1.65-2.72v-17.24c-.13-1.33-1.14-2.41-2.53-2.34ZM60.47,78.4c1.96-1.2,3.3-3.36,3.17-5.64v-.06c.06-3.99-3.17-7.35-7.22-7.41-1.96-.19-3.99.51-5.39,1.9-1.52,1.39-2.03,3.36-2.03,5.51l.32,12.36c0,1.33,1.08,2.34,2.34,2.34s2.41-1.08,2.41-2.34l.06-5.89h0c0-.19.06-.25.25-.25h.19l5.83,7.92c.38.38.89.57,1.58.57,1.33,0,2.28-1.08,2.34-2.28,0-.32-.06-.63-.25-1.08l-3.61-5.64ZM56.29,74.98h-.38c-1.39-.06-2.28-1.33-2.22-2.53.06-1.39,1.33-2.28,2.53-2.22h.38c1.39.06,2.28,1.33,2.22,2.53-.06,1.33-1.33,2.47-2.53,2.22ZM155.15,80.05c-.32,0-.76.06-1.14.25l-1.96,1.33c-.89.57-2.03.89-3.17.89-3.42-.19-5.96-3.11-5.83-6.4.19-3.17,2.6-5.64,5.83-5.83,1.14,0,2.22.32,3.17.89l1.9,1.33c.32.19.63.25,1.14.25,1.33,0,2.34-1.08,2.34-2.34h0c0-.51-.19-1.14-.57-1.58-1.9-2.22-4.69-3.49-7.67-3.49-6.15,0-11.09,5.01-11.09,11.09h0c0,5.89,4.56,10.77,10.46,11.09,3.17,0,6.15-1.33,8.36-3.61.32-.38.57-.89.51-1.58.19-1.2-1.01-2.28-2.28-2.28ZM200.58,64.59c-1.46,0-2.53,1.2-2.53,2.53v17.93c0,1.46,1.2,2.53,2.53,2.53,1.46,0,2.53-1.2,2.53-2.53v-17.93c0-1.39-1.08-2.53-2.53-2.53ZM163.38,65.79c-.51-.51-1.2-.82-1.96-.82-1.46,0-2.53.63-2.53,2.15v17.93h0c0,1.39,1.14,2.34,2.47,2.34s2.47-1.08,2.53-2.34v-1.96h6.15l2.53,3.42c.38.57,1.2.89,1.96.89,1.39,0,2.34-1.14,2.34-2.34,0-.51-.19-1.08-.51-1.46l-12.99-17.81ZM166.36,78.02c0,.06-.06.19-.19.19h-2.28v-3.68l2.47,3.42q.06-.06,0,.06ZM220.61,64.65c-1.2.06-2.22,1.08-2.22,2.22v10.39c0,.06-.06.19-.19.19s-.06,0-.19-.06l-5.96-10.71c-.89-1.65-3.04-2.15-4.56-1.14-.89.57-1.58,1.65-1.65,2.72v16.98c0,1.39,1.14,2.47,2.47,2.47s2.47-1.14,2.47-2.47v-10.33c0-.06.06-.19.19-.19q.06,0,.06.06l6.21,10.96c.82,1.58,2.79,2.03,4.31,1.2,1.08-.57,1.65-1.65,1.65-2.72v-17.24c-.13-1.33-1.27-2.41-2.6-2.34ZM229.48,66.74v-.19c0-.63-.51-.82-1.08-.82h-.76c-.25,0-.32.19-.32.25v2.22c0,.25.06.32.32.32s.32-.19.32-.32v-.82h.19l.38.82c.06.19.19.32.38.32.25,0,.32-.06.32-.25v-.19l-.51-.76c.44.13.76-.25.76-.57ZM228.47,66.87h-.51v-.63h.51c.25,0,.38.06.38.32s-.13.32-.38.32ZM228.4,64.52h0c-1.46,0-2.6,1.2-2.6,2.6s1.2,2.6,2.6,2.6,2.6-1.2,2.6-2.6c-.06-1.39-1.2-2.6-2.6-2.6ZM228.4,69.09h0c-1.14,0-1.96-.82-1.96-1.96s.82-1.96,1.96-1.96,1.96.82,1.96,1.96c0,1.08-.89,1.96-1.96,1.96Z"/>
  <path id="crown" class="cls-1" d="M157.49,53.24c-5.26-3.87-13.05-6.15-21.17-6.15s-16.03,2.28-21.17,6.15c-.51.32-.76.89-.76,1.58,0,1.14.82,1.96,1.96,1.96h0c.38,0,.82-.19,1.2-.38,3.49-2.6,10.33-5.39,18.88-5.39s15.27,2.79,18.82,5.39l.06.06c.82.57,2.15.38,2.72-.51.51-.95.32-2.15-.57-2.72ZM136.32,51.79c-7.54,0-14.64,2.22-19.07,5.89h-.06c-.51.51-.57,1.33-.19,1.9.25.32.57.51,1.08.51.32,0,.57-.06.82-.32,3.93-3.3,10.46-5.32,17.36-5.32s13.31,1.96,17.36,5.32c.57.51,1.46.38,1.9-.19.51-.57.38-1.46-.19-1.9-4.44-3.61-11.6-5.89-19.01-5.89ZM107.68,31.95h0ZM111.99,37.59c.57-2.34-.82-4.75-3.3-5.45-.32-.06-.76-.19-1.14-.19-2.47,0-4.44,1.96-4.44,4.44s1.96,4.44,4.44,4.44c2.22.13,3.93-1.27,4.44-3.23ZM136.32,44.5c2.47,0,4.44-1.96,4.44-4.44s-1.96-4.44-4.44-4.44-4.44,1.96-4.44,4.44,1.9,4.44,4.44,4.44ZM136.32,33.22c2.47,0,4.44-1.96,4.44-4.44s-1.96-4.5-4.44-4.5-4.44,1.96-4.44,4.44c-.06,2.53,1.9,4.5,4.44,4.5ZM123.27,37.21c-2.34.63-3.74,3.17-3.11,5.58.51,1.9,2.28,3.17,4.25,3.3h.06c.32,0,.76-.06,1.14-.19,2.34-.63,3.74-3.11,3.17-5.45-.51-1.96-2.28-3.36-4.31-3.36-.51-.06-.82.06-1.2.13ZM117.69,47.29c.57-2.34-.82-4.88-3.3-5.45-.32-.06-.76-.19-1.14-.19h0c-.76,0-1.58.25-2.28.57-1.08.57-1.77,1.65-2.03,2.72-.32,1.2-.19,2.34.51,3.42.76,1.39,2.22,2.15,3.87,2.22.76,0,1.65-.19,2.28-.57,1.01-.63,1.84-1.58,2.09-2.72ZM147.03,45.77c.38.06.76.19,1.2.19,2.47,0,4.44-2.03,4.44-4.44,0-2.03-1.39-3.74-3.3-4.25-.38-.06-.76-.19-1.2-.19-2.47,0-4.44,2.03-4.44,4.5-.06,1.9,1.33,3.74,3.3,4.18ZM150.01,34.99c.32.06.76.19,1.2.19,2.47,0,4.44-2.03,4.44-4.44,0-2.03-1.39-3.74-3.3-4.25-.38-.06-.76-.19-1.2-.19-2.47,0-4.44,2.03-4.44,4.5,0,1.84,1.39,3.61,3.3,4.18ZM161.61,42.28c-.63-.38-1.46-.57-2.22-.57-2.47,0-4.44,1.96-4.44,4.44,0,.32.06.76.19,1.14.25,1.14,1.08,2.15,2.03,2.72,2.15,1.33,4.88.51,6.15-1.65.57-1.08.76-2.22.51-3.42-.51-1.01-1.27-2.03-2.22-2.66ZM169.34,35.37c-.25-1.14-1.08-2.15-2.03-2.72-2.15-1.33-4.88-.51-6.15,1.65-.57,1.08-.76,2.22-.51,3.42.25,1.14,1.08,2.15,2.03,2.72,2.15,1.33,4.88.57,6.15-1.58.7-1.08.89-2.41.51-3.49ZM121.56,35.18h0c.38,0,.82-.06,1.2-.19,2.34-.63,3.74-3.17,3.17-5.45-.51-1.96-2.28-3.3-4.25-3.3-.38,0-.76.06-1.2.19-2.34.63-3.74,3.17-3.17,5.45.44,1.9,2.15,3.3,4.25,3.3Z"/>
</svg>