<?xml version="1.0" encoding="UTF-8"?>
<svg id="Layer_1" data-name="Layer 1" xmlns="http://www.w3.org/2000/svg" viewBox="0 0 280 112">
  <defs>
    <style>
      .cls-1 {
        fill: #fff;
      }
    </style>
  </defs>
  <g id="e8WSGV">
    <g>
      <path class="cls-1" d="M147.42,85.71l-1.3-1.16-1.28,1.18c-10.85,10.01-27.11,12.22-38.87,2.53-1.33-1.1-2.62-2.47-3.96-3.75-8.77,5.15-19.83,9.1-29.3,4.34-4.71-2.37-8.27-6.29-10.29-11.22s-1.81-9.92.39-14.74c.53-1.17,1.19-2.45,1.95-3.5l1.93-2.66c-3.01-6.86-1.66-13.34,3.94-18.17,2.2-1.9,4.72-2.81,7.7-2.96,4.65-.23,4.44,1.4,5.44-.64,3.74-7.61,9.77-12.92,18.08-15.72,8.35-2.82,16.44-2.21,24.17,2.17,2.01,1.14,3.83,2.36,5.48,3.9l2.71,2.52.66.1c7.31-4.15,12.33-4.17,20.06-.36,7.88-4.78,15.42-6.58,24.71-5.73,9.82.9,18.74,5.95,23.77,14.5,8.54,1.24,14.63,6.71,15.43,15.67.47,5.29-.47,10.55-3.59,14.73-1.76,2.36-3.01,3.03-5.36,4.5-.78.49-1.29,2.66-2.18,4.3-5.86,10.78-20.62,11.97-30.26,5.21-2.96,5.3-7.56,7.97-13.39,9.21-6.13,1.3-11.73.18-16.66-4.24ZM176.22,78.68c.09-.28.9-.54,1.13-.34,2.53,2.19,5.77,3.92,9.02,4.44l2.29.36c1.42.22,3.08.14,4.56-.1l1.86-.31c6.58-1.09,11.31-6.21,12.94-12.57,8.31-3.35,10.09-12.17,8.76-20.13-.95-5.7-5.65-10.32-11.1-11.4l-3.3-.66c-1.61-2.63-3.37-5.21-5.7-7.22-7.13-6.16-15.23-7.84-24.68-7.21-6.19.41-11.81,2.84-16.98,6.05-5.31-2.86-10.22-4.24-15.71-1.87l-2.53,1.09c-1.39.6-2.25,2.17-3.37.86-3.19-3.73-7.15-6.59-11.66-8.47-10.81-4.51-24.47-.74-32.2,8.15-2.21,2.54-3.67,5.1-4.93,8.19-.6,1.46-2.23-.86-6.99-.23-6.76.89-11.77,8.07-10.66,14.42.74,4.2,2.46,5.01,1.43,6.03-3.03,3-5.08,7.45-5.55,11.85-.09.87-.13,1.85,0,2.67,1.3,8.58,7.67,15.52,16.32,16.77,7.74,1.12,16.5-2.56,23.27-6.85l1.84,1.98c2.81,3.03,6.06,5.34,9.86,6.87,3.45,1.39,7.06,1.78,10.91,1.57,7.94-.44,15.18-4.17,20.42-10.1.95-1.07,2.01,1.07,4.21,2.79,3.35,2.64,8.24,4.06,12.23,3.29l2.14-.41c5.22-1,10.45-4.06,12.21-9.51Z"/>
      <path class="cls-1" d="M76.59,77.08c.06-1.05.19-2.05.45-2.89l2.74-8.89,2.05-6.6,1.9-6.09,2.23-7.14c-.32-.02-1.04.02-1.28.16l-3.76,2.22c-1.13-1.33-.67-4.17,1.48-5.32,3.78-2.02,8.08-2.79,12.35-2.12,8.04,1.26,10.99,8.1,9.87,15.65-1.17,7.95-5.3,15.23-12.36,19.52-3.88,2.36-8.99,3.75-13.68,3.6-.97-.03-2.05-1.19-1.99-2.1ZM98.63,57.66c.64-3.15.81-4.64-.13-7.79-.88-2.96-3.18-4.96-6.39-5.48-.23.39-.56,1.15-.71,1.65l-1.12,3.62-1.58,5.13-2.04,6.64-3.88,12.68c-.71,2.33,12.83-1.54,15.84-16.46Z"/>
      <path class="cls-1" d="M174.21,48.28c.89-.99,3.77-1.68,4.4-1.18-1.29,3.15-2.51,6.2-3.47,9.37l-1.91,6.28c-.17.57-.1,1.91.41,2.01,1.03.21,2.72-.71,2.71-1.51-.03-2.29.09-4.16.68-6.14,1.45-4.85,4.76-11.01,10.6-11.24,2.02-.08,3.76,1.3,3.97,3.38.48,4.79-3.16,9.52-7.91,10.24l-2.8.42c-.73,1.72.03,3.94,2.01,4.45,2.47.63,4.89-.75,6.35-2.89.29-.43,1.36-1.16,1.86-1.16l2.39.02-.62,1.4c-.46,1.03-.07,2.41,1.07,2.78,1.25.4,2.53-.4,2.93-1.67,1.44-4.58-3.71-6.37-3.78-11.51-.06-3.88,2.86-6.83,6.73-6.71,1.6.05,3.02.53,3.87,1.64s1.28,2.78.79,4.12c-.64,1.78-2.76,1.84-4.37,1.54.92-1.56,1.1-2.94-.31-3.68-.73-.39-2.14.07-2.35,1-.67,2.87,1.72,4.3,3.49,8.32,1.57,3.54.31,7.66-2.96,9.55-2.73,1.58-8,1.79-9.27-2.36-1.9,2.24-4.23,3.49-7.01,3.43-1.8-.04-3.55-.78-4.4-2.38-.14,0-.49.03-.6.03-1.39,1.51-3.33,2.82-5.42,3.17-1.38.23-2.9-.6-3.08-2.08s.14-3.3.61-4.79l1.67-5.35,1.71-5.23c.36-1.09,1.15-2.32,2-3.25ZM181.74,56.81c4.49-.19,6.85-5.71,5.41-6.55-2.11-1.25-5.56,4.2-5.41,6.55Z"/>
      <path class="cls-1" d="M122.2,71.84c-2.68-.11-4.69-2.03-5.1-4.29-.5-2.77.01-5.48.94-8.12,1.55-4.39,4.53-9.28,9.69-9.93,2.31-.29,4.3,1.18,4.48,3.56.45,5.98-4.79,10.57-10.75,10.45-.32,1.06-.23,2.45.35,3.28.62.89,1.94,1.41,3.16,1.27,2.49-.28,4.88-1.95,5.81-4.22.93-7.45,7.51-17.01,15.85-15.1,1.01.23,2.03,1.41,1.67,2.56l-3.25,10.33-1.15,3.66c-.63,2.01-.64,3.18-.2,4.94.04.16-.44.4-.6.41l-1.47.11c-1.34.1-2.33-.94-2.68-2.25-1.02.94-1.99,1.9-3.08,2.34-2.2.9-4.34-.3-4.97-2.15-.1-.29-.48-.95-.51-.9-2.29,2.58-4.71,4.18-8.21,4.04ZM137.03,66.84c1.58-.69,2.61-2.49,3-3.7l3.1-9.61c.04-.13.13-.49.15-.6s-.34-.27-.59-.38c-1.39.59-2.65,1.32-3.57,2.45-4.92,6.08-4.51,12.91-2.08,11.84ZM127.47,57.16c.37-.63.72-2,.61-2.72-.25-1.84-4.1-.35-5.69,5.11l-.18.63c-.12.41,3.32.26,5.26-3.02Z"/>
      <path class="cls-1" d="M153.39,66.19l.54-1.73,3.08-9.91c.08-.26-.05-1.02-.18-1.19s-.59-.33-.78-.24c-2.01.93-2.93,4.05-3.48,5.89l-1.68,5.61-1.61,5.46c-.54.13-1.55.21-2.13.16-1.17-.09-2.01-1.36-1.65-2.58l1.9-6.53,3.21-10.28c.26-.85.65-1.93.96-2.66,1.38-.09,2.84.39,3.13,1.47l.35,1.55.74-.89c1.49-1.78,4.51-4.03,6.11-2.26,1.34,1.49.05,3.72,1.13,2.35,1.42-1.81,2.39-3.31,5.16-3.38.64-.02,1.72.72,1.86,1.33.22.98.2,2.27-.09,3.21l-1.32,4.3-3,9.66c-.24.77-.24,1.98-.18,2.63l.08.84c.03.31-2.15.72-3.94-.2-.56-.29-.89-1.93-.68-2.6l1.6-5.22,1.97-6.31c.11-.34.13-1.22.09-1.62-.12-1.11-2.54-.16-3.68,3.49l-.59,1.91-2.82,9.19-.44,1.8c-.59.51-3.13.47-3.71-.55-.31-.54-.17-2.05.05-2.74Z"/>
      <path class="cls-1" d="M107.66,70.91l-.54,1.95-2.92-.06c-1.3-.03-.79-3.21-.5-4.16l4.7-15.34.73-2.37,2.03.19c1.18.11,1.22,2.45,1.42,2.19.83-1.08,2.37-2.79,3.94-3.1,1.28-.25,2.47.64,2.54,1.81.06,1.08-.01,2.23-.18,3.18-.36,2.06-2.34,3.38-4.24,2.92l.14-1.31c.03-.28,0-1.1-.05-1.28-1.73-1.04-3.79,4.66-4.14,5.73l-1.2,3.72-1.73,5.93Z"/>
      <path class="cls-1" d="M176.44,45.48c-.69-.65-1.37-1.58-1.21-2.35.29-1.4,1.24-2.46,2.71-2.82.64-.16,1.95.4,2.22.98.47,1.05.19,2.44-.47,3.14-.8.84-1.83,1.03-3.24,1.05Z"/>
      <path class="cls-1" d="M204.29,55.19l-1.14-.09c-.24-.02-.06-.69,0-.98l.13-.72c.02-.13.5-.1.56.02l.35.7.37-.62c.07-.12.58-.45.59-.31l.08.95c.02.27-.68,1.07-.93,1.05Z"/>
    </g>
  </g>
</svg>