<?xml version="1.0" encoding="UTF-8"?>
<svg id="Layer_1" data-name="Layer 1" xmlns="http://www.w3.org/2000/svg" viewBox="0 0 280 112">
  <defs>
    <style>
      .cls-1 {
        fill: #fff;
      }
    </style>
  </defs>
  <path class="cls-1" d="M191.59,53.94h-6.09s-11.07-14.07-11.07-14.07c-.37,4.91-.23,9-.24,14.05h-6.7s0-25.54,0-25.54l6.62.02,10.45,13.43c.36-4.8.18-8.74.2-13.48l6.84.03v25.56Z"/>
  <path class="cls-1" d="M79.36,70.59c1.81.94,3.79,2.07,4.33,3.39.88,2.17.92,4.5-.33,6.26-3.87,5.46-15.19,3.2-22.21,3.65l-.03-25.25,14.77.02c2,0,4.19.89,5.59,2.19,1.54,1.42,1.93,3.48,1.54,5.51-.32,1.67-1.67,3.05-3.66,4.23ZM76.26,66.29c-.03-.81-1.05-2.15-1.95-2.16l-6.34-.1.1,4.73c2.24-.14,8.31.83,8.2-2.46ZM75.11,78.14c1.22-.01,2.33-1.43,2.18-2.51-.11-.81-1.33-2.14-2.29-2.17l-6.83-.23c-.29,1.69-.27,3.37.06,4.99l6.88-.08Z"/>
  <path class="cls-1" d="M110.1,83.76l-7.97.11-5.29-7.71-3.38-.22v7.84s-7.05,0-7.05,0l.02-25.08,14.29.05c3.09.01,5.8,1.67,7.58,3.97,2.18,5,1.3,9.72-4.22,12.37l6.01,8.67ZM102.47,67.98c.21-.83-.42-2.56-1.46-2.99-2.3-.94-4.9-.5-7.65-.5l.15,6.26c3.72-.13,7.95,1.17,8.96-2.77Z"/>
  <path class="cls-1" d="M153.28,49.37c-5.84,6.11-13.62,4.27-21.34,4.6l-.03-25.58c9.09.12,20.92-1.99,23.78,9.31,1.04,4.19.29,8.11-2.41,11.67ZM146.05,46.8c2.47-1.33,3.24-3.97,3.05-6.28s-1.46-4.56-3.83-5.43c-1.98-.73-4.06-.72-6.43-.67l-.09,13.36c2.58.13,5.05.24,7.3-.98Z"/>
  <path class="cls-1" d="M195.88,75.47c-2.27,6.4-9.24,9.75-15.9,8.51-6.6-1.22-11.44-6.66-11.17-13.35.25-6.41,5.17-11.6,11.95-12.44,4.62-.57,9.34.77,12.57,4.31s4.19,8.36,2.56,12.97ZM189.43,72.49c.62-4.38-2.15-7.69-6.08-8.08s-7.15,2.31-7.37,6.27,2.28,7.01,5.81,7.5,7.07-1.66,7.64-5.69Z"/>
  <path class="cls-1" d="M212.21,44.04l-5.05-.23-.02-4.88,11.7.12.02,11.26c-6.59,5.68-18.45,5.62-23.15-2.16-2.49-4.13-2.57-8.66-.65-12.93s6.44-7.23,11.34-7.5c4.26-.23,8.29.78,11.35,3.74l-4.12,4.73c-2.35-1.85-4.97-2.9-7.74-2.12s-4.79,3.4-5.05,6.11.77,5.76,3.37,7.25c2.37,1.36,5.2,1.22,7.76.05.15-1.04.21-2.25.22-3.43Z"/>
  <polygon class="cls-1" points="91.82 43.66 91.5 47.91 98.93 48.01 105.36 47.96 105.35 53.92 84.92 53.97 84.95 46.61 84.88 28.37 105.21 28.34 105.22 34.19 91.76 34.2 91.75 38.21 103.92 38.23 103.93 43.66 91.82 43.66"/>
  <polygon class="cls-1" points="127.99 43.84 115.68 43.67 115.7 48.13 129.51 48.13 129.45 53.96 108.91 53.95 108.89 28.36 129.39 28.35 129.4 34.18 115.68 34.2 115.57 38.18 128.03 38.24 127.99 43.84"/>
  <path class="cls-1" d="M144.62,79.33c-3.42,7.3-16.48,5.69-21.86.83l3.83-4.49c2.41,2.14,10.8,4.6,11.57,1.42.13-.53-.52-1.82-1.06-1.96l-5.53-1.52c-2.16-.59-4.64-1.28-6.12-3.06-2.47-2.96-1.71-7.63,1.13-10.02,4.23-3.57,13.51-2.73,17.93.98l-3.37,4.81c-2.12-1.77-9.93-3.98-10.09-.86-.03.6.71,1.75,1.36,1.93l7.71,2.13c2.01.56,3.79,2.07,4.46,3.45,1.05,2.17.98,4.34.04,6.35Z"/>
  <polygon class="cls-1" points="80.9 39 80.87 44.71 68.4 44.78 68.4 53.96 61.13 53.94 61.19 32.71 61.19 28.36 82.3 28.35 82.34 34.33 68.41 34.4 68.4 39 80.9 39"/>
  <polygon class="cls-1" points="160.97 83.8 154.02 83.83 154.06 64.58 146.24 64.48 146.22 58.61 168.79 58.61 168.87 64.52 161.02 64.52 160.97 83.8"/>
  <path class="cls-1" d="M218.43,77.85l.09,5.87c-3.93.2-7.65.03-11.66-.02l-8.08-.11-.02-24.94h7.23s-.04,19.13-.04,19.13l12.48.07Z"/>
  <rect class="cls-1" x="103.36" y="67.93" width="25.41" height="6.56" transform="translate(44.78 187.23) rotate(-89.96)"/>
  <rect class="cls-1" x="148.51" y="38.08" width="25.45" height="5.95" transform="translate(120.15 202.28) rotate(-89.99)"/>
</svg>