<?xml version="1.0" encoding="UTF-8"?>
<svg id="Layer_1" data-name="Layer 1" xmlns="http://www.w3.org/2000/svg" viewBox="0 0 280 112">
  <defs>
    <style>
      .cls-1 {
        fill: #fff;
        fill-rule: evenodd;
      }
    </style>
  </defs>
  <g id="Wordmark">
    <path id="Wordmark_0.3" data-name="Wordmark 0.3" class="cls-1" d="M216.72,61.52c2.04,0,3.77-.46,5.54-1.52.19-.11.4,0,.46.24l1.64,4.8c.05.14.04.27-.1.38-2.28,1.74-5.89,2.77-9.63,2.77-5.13,0-11.08-2.34-11.08-11.16,0-8.18,5.13-11.16,10.92-11.16,6.06,0,9.27,3.21,9.27,7.1,0,2.43-1.28,4.11-3.57,5.1-2.34,1.02-5.53,1.22-7.55.5-.42-.15-.45,0-.36.29.54,1.75,2.29,2.66,4.46,2.66ZM212.54,55.06c.37.03.71.03,1.05.03,1.97,0,2.98-.68,2.98-2.16,0-1.34-.76-2.24-1.95-2.24-1.41,0-2.47,1.28-2.47,3.81,0,.34.13.54.39.56ZM193.01,68.18c-5.13,0-11.08-2.34-11.08-11.16,0-8.18,5.13-11.16,10.92-11.16,6.06,0,9.27,3.21,9.27,7.1,0,2.43-1.28,4.11-3.57,5.1-2.34,1.02-5.53,1.22-7.55.5-.42-.15-.45,0-.36.29.54,1.75,2.29,2.66,4.46,2.66,2.04,0,3.77-.46,5.54-1.52.19-.11.4,0,.46.24l1.64,4.8c.05.14.04.27-.1.38-2.28,1.74-5.89,2.77-9.63,2.77ZM190.93,55.06c.37.03.71.03,1.05.03,1.97,0,2.98-.68,2.98-2.16,0-1.34-.76-2.24-1.95-2.24-1.41,0-2.47,1.28-2.47,3.81,0,.34.13.54.39.56ZM180.18,54.61c-.07.26-.3.29-.48.19-.9-.49-1.96-.96-2.97-.96-1.28,0-2.31.69-2.31,2.34v4.63c0,.2.13.33.33.33h2.48c.18,0,.33.15.33.33v5.86c0,.18-.15.33-.33.33h-12.15c-.18,0-.32-.15-.32-.33v-5.86c0-.18.14-.33.32-.33h.5c.2,0,.33-.12.33-.33v-7.59c0-.18-.15-.33-.33-.33h-3.44c-.18,0-.37.15-.37.33v13.2c0,6.96-4.35,11.19-11.62,11.19-3.87,0-6.61-.77-8.8-2.18-.12-.08-.15-.24-.11-.37l1.74-5.19c.07-.19.29-.27.47-.17,1.62.87,3.34,1.3,5.35,1.3,3.98,0,6.23-2.28,6.23-5.71,0-.42-.19-.37-.35-.11-1.18,1.83-3.05,2.98-5.68,2.98-5.04,0-8.58-3.61-8.58-11.16,0-6.85,3.59-11.16,8.84-11.16,2.11,0,3.74.57,4.92,1.76,1.53,1.53.63,1.85,2.25,1.85l-.51-2.7c-.05-.24.08-.39.32-.39h14.56c.24,0,.39.22.31.44l-.66,2.64h1.03c.12,0,.23-.07.29-.18,1.19-2.32,3.22-3.43,5.61-3.43,1.75,0,3.16.46,4.53,1.43.16.11.19.27.15.45-.03.15-1.87,6.86-1.87,6.86ZM151.31,52.3c-1.22,0-2.07,1.51-2.07,4.72,0,3.15.85,4.72,2.07,4.72s2.07-1.57,2.07-4.72-.85-4.72-2.07-4.72ZM139.29,67.65h-19.34c-.2,0-.35-.18-.32-.37l.32-2.23h-.74c-.11,0-.22.06-.28.16-1.23,2.02-3.06,2.98-5.76,2.98-5.17,0-8.7-4.3-8.7-11.16,0-7.54,3.48-11.16,8.44-11.16,2.69,0,4.57,1.27,5.68,3.13.06.1.12.2.2.3.07.1.19.18.32.18h.71s-2.55-4.8-2.55-4.8c-.03-.05-.09-.22-.09-.27v-3.18c0-.18-.15-.33-.33-.33h-1.39c-.18,0-.33-.15-.33-.33v-5.85c0-.2.12-.33.33-.33h10.03c.2,0,.33.12.33.33v26.1c0,.2.13.33.33.33h3.48c.2,0,.33-.12.33-.33v-7.59c0-.2-.13-.33-.33-.33h-.46c-.18,0-.33-.15-.33-.33v-5.85c0-.18.15-.33.33-.33h8.97c.18,0,.33.15.33.33v14.09c0,.2.12.33.33.33h.5c.18,0,.33.15.33.33v5.86c0,.18-.15.33-.33.33ZM115.36,52.3c-1.22,0-2.07,1.57-2.07,4.72,0,3.21.85,4.72,2.07,4.72,1.22,0,2.07-1.51,2.07-4.72,0-3.15-.85-4.72-2.07-4.72ZM133.92,44.16c-2.63,0-4.76-2.13-4.76-4.75,0-2.62,2.13-4.75,4.76-4.75,2.63,0,4.76,2.13,4.76,4.75s-2.13,4.75-4.76,4.75ZM93.91,68.18c-5.13,0-11.08-2.34-11.08-11.16,0-8.18,5.13-11.16,10.92-11.16,6.06,0,9.27,3.21,9.27,7.1,0,2.43-1.28,4.11-3.57,5.1-2.34,1.02-5.53,1.22-7.55.5-.42-.15-.45,0-.36.29.54,1.75,2.29,2.66,4.46,2.66,2.04,0,3.77-.46,5.54-1.52.19-.11.4,0,.46.24l1.64,4.8c.05.14.04.27-.1.38-2.28,1.74-5.89,2.77-9.63,2.77ZM91.83,55.06c.37.03.71.03,1.05.03,1.97,0,2.98-.68,2.98-2.16,0-1.34-.76-2.24-1.95-2.24-1.41,0-2.47,1.28-2.47,3.81,0,.34.13.54.39.56ZM69.58,55.96h-1.55c-.18,0-.33.15-.33.33v4.53c0,.2.13.33.33.33h2.83c.18,0,.33.15.33.33v5.86c0,.18-.15.33-.33.33h-14.92c-.18,0-.33-.15-.33-.33v-5.86c0-.18.15-.33.33-.33h.99c.2,0,.33-.12.33-.33v-19.6c0-.2-.13-.33-.33-.33h-.99c-.18,0-.33-.15-.33-.33v-5.85c0-.18.15-.33.33-.33h13.64c9.33,0,13.49,3.51,13.49,10.79,0,7.28-4.16,10.79-13.49,10.79ZM68.5,40.49s-.4,0-.44,0c-.23,0-.36.13-.36.34v8.68c0,.23.13.34.36.34.03,0,.39,0,.42,0,2.51,0,4.12-1.53,4.12-4.68,0-2.92-1.33-4.68-4.11-4.68Z"/>
  </g>
</svg>