<?xml version="1.0" encoding="UTF-8"?>
<svg id="Layer_1" data-name="Layer 1" xmlns="http://www.w3.org/2000/svg" viewBox="0 0 280 112">
  <defs>
    <style>
      .cls-1 {
        fill: #fff;
      }
    </style>
  </defs>
  <g id="r89ATb">
    <g>
      <path class="cls-1" d="M168.08,87.99c.2,0,.6-.33.6-.51v-2.84s-3.82-.02-3.82-.02l-.03,6.49h-2.93s-.02-6.47-.02-6.47h-3.71s-.02,5.65-.02,5.65l-2.93-.02v-4.77s-1.3.86-1.3.86l-2.08-1.82c1.72-1.23,3.32-2.24,4.84-3.88l-4.38-.08v-2.45s6.31,0,6.31,0c.3-.42.59-.93.83-1.47l-5.6,1.14-1.04-2.46,6.31-1.29c-1.61-1.12-2.99-2.04-4.46-3.29,1.28-.05,2.46-.1,3.56-.02l4.42,2.2c1.45-.68,2.71-1.37,4.09-2.21h3.73s-4.46,3.32-4.46,3.32l6.05,1.33-.98,2.37c-2.98-.61-5.75-1.2-8.57-2.14l-2.06.8,2.11.12-.61,1.61h10.64s.02,2.48.02,2.48l-7.75.02v1.81s6.74,0,6.74,0v5.61c0,2.84-3.85,2.08-5.56,2.18l-.16-2.19,2.19-.03ZM161.9,82.42v-1.82s-1.53.01-1.53.01l-1.48,1.78,3.01.03Z"/>
      <g>
        <path class="cls-1" d="M78.91,35.78c-6.91,9.22-7.75,21.5-2.2,31.57l-5.92.02c-1.31-3.31-2.29-6.78-2.43-10.41-.07-1.8-.14-3.49-.02-5.3.69-9.93,5.8-19.04,13.87-24.85,4.86-3.5,10.56-5.65,16.56-6.03,7.47-.47,13.65,1.06,19.93,4.93l-.25,1.46c-13.56-7.15-30.4-3.59-39.55,8.61Z"/>
        <polygon class="cls-1" points="99.7 67.35 95.5 67.36 87.97 56.96 86.23 54.18 86.2 67.36 82 67.36 82 46.71 86.2 46.66 93.96 57.98 95.47 60.46 95.48 46.68 99.7 46.68 99.7 67.35"/>
        <path class="cls-1" d="M152.51,67.38l-3.93-7.53c-.17-.28-.62-.77-.93-.77h-1.76s0,8.28,0,8.28h-4.54s0-20.76,0-20.76h8c1.62,0,3.18.31,4.61.9,1.88.83,2.89,2.47,3.05,4.46.23,2.91-1.54,5.37-4.56,5.93l5.55,9.43-5.48.06ZM151.5,51.08c-.61-.54-1.52-.84-2.29-.85l-3.32-.04v5.48c2.02-.01,5.41.4,6.14-1.76.32-.95.3-2.09-.52-2.83Z"/>
        <path class="cls-1" d="M120.29,46.69v20.57c-4.09.73-9.56,1.26-13.4-.32-3.18-1.38-4.47-4.21-4.47-7.59v-12.66s4.6,0,4.6,0l.02,13.27c0,1.87,1.24,3.35,2.94,3.95,1.91.68,3.93.68,5.88.19v-17.4s4.43-.01,4.43-.01Z"/>
        <polygon class="cls-1" points="133.12 67.34 128.51 67.37 128.51 50.38 122.18 50.37 122.18 46.69 139.45 46.7 139.45 50.37 133.12 50.39 133.12 67.34"/>
        <rect class="cls-1" x="160.04" y="46.69" width="4.46" height="20.67"/>
        <g>
          <path class="cls-1" d="M205.79,62.4h-7.99s-.94,4.96-.94,4.96h-4.59c.66-4.29,1.63-8.3,2.99-12.32,1.05-2.95,2.26-5.66,3.91-8.36h5.59c3.79,6.28,5.77,13.44,6.96,20.68h-5.04s-.89-4.96-.89-4.96ZM205.08,58.93c-.87-3.12-1.82-6.03-3.3-8.83-1.48,2.92-2.46,5.77-3.29,8.83h6.59Z"/>
          <path class="cls-1" d="M178.19,64.02c1.41-.07,2.52-.44,3.81-1.08l1.21,3.53c-2.08,1.1-4.15,1.4-6.4,1.41-4.17.02-7.79-2.48-9.19-6.42-.49-1.39-.65-2.73-.66-4.22-.06-6.17,3.67-11.2,10.14-11.18,2.13,0,4.13.26,6.1,1.21l-1.5,3.78c-3.21-1.69-7.31-1.67-9.02,1.79-1.05,2.14-1.27,4.64-.55,6.92.84,2.67,3.23,4.39,6.07,4.25Z"/>
          <rect class="cls-1" x="185.47" y="46.69" width="4.47" height="20.67"/>
        </g>
      </g>
      <g>
        <path class="cls-1" d="M73.72,88.1l8.21-1.96.32,2.11,1.71-.02.36-6.08h-1.92s.01-2.64.01-2.64l2.01-.05.36-5.26-2.1-.03v-2.64s8.47.03,8.47.03c1.63,0,2.88,1.33,2.88,2.94l.02,13.71,1.26.1-.17,2.45h-13.34s-.06-1.73-.06-1.73l-7.11,1.53-.91-2.45ZM90.91,75.11c0-.49-.5-.93-.9-.93h-2.38s-.26,5.29-.26,5.29h3.55s0-4.37,0-4.37ZM90.92,88.26v-6.11s-3.74-.01-3.74-.01l-.36,6.11h4.1Z"/>
        <path class="cls-1" d="M81.58,82.16l.18,2.49-5.31.74c-.45.06-1.04-.29-1.27-.58-.26-.33-.32-1.14-.11-1.52l1.96-3.52-1.46-.14c-.5-.05-1.05-.39-1.27-.73-.3-.45-.37-1.31-.12-1.79l3.27-6.37,3.38.02-3.28,6.34c.15.1.86.17.97-.03l1.09-2.04,3.23.02-3.78,7.3,2.53-.19Z"/>
      </g>
      <g>
        <path class="cls-1" d="M211.62,90.75h-20.62s0-2.39,0-2.39h6.21s0-14.88,0-14.88l-6.03-.03.02-2.57h20.29s0,2.58,0,2.58h-6.02s0,14.89,0,14.89h6.19s-.02,2.4-.02,2.4ZM202.51,73.45h-2.36v14.91h2.36v-14.91Z"/>
        <path class="cls-1" d="M196.38,85.87l-3.02.02c-.8-3.48-1.36-6.88-1.72-10.42h2.91c.15,3.57.87,6.92,1.83,10.41Z"/>
        <path class="cls-1" d="M209.22,85.88h-2.93c.97-3.44,1.59-6.74,1.8-10.41l2.84-.02c-.22,3.63-.75,6.9-1.71,10.43Z"/>
      </g>
      <g>
        <path class="cls-1" d="M132.82,87.18l-11.14-.02c-1.3,0-2.2-1.06-2.22-2.3v-11.77s5.38-.03,5.38-.03l.04-2.27h2.44s.03,2.27.03,2.27l3,.02c1.31.06,2.46,1.05,2.46,2.47l.02,11.62ZM124.86,75.37h-2.83v3.75h2.83v-3.75ZM130.17,76.25c0-.4-.35-.87-.79-.87h-2.05s0,3.73,0,3.73h2.8s.03-2.86.03-2.86ZM124.87,84.86l-.03-3.35h-2.81s.01,2.43.01,2.43c0,.58.48.96,1.03.95l1.8-.03ZM127.34,81.51v3.37h2.82v-3.37h-2.82Z"/>
        <path class="cls-1" d="M122.7,91.17c-2.23,0-4.14-.75-5.69-2.32-.71.9-1.32,1.66-2.2,2.45l-1.93-2.04c1.2-1.13,2.32-2.44,2.33-4.14l.05-6.45-2.84-.03v-2.63s5.77,0,5.77,0l.04,9c0,1.53,1.08,2.8,2.49,3.17.77.2,1.55.31,2.36.31h10.73s-.23,2.72-.23,2.72l-10.88-.03Z"/>
        <path class="cls-1" d="M117.49,74.96l-3,.05c-.34-1.48-.77-2.76-1.29-4.21l2.74-.02c.63,1.34,1.1,2.5,1.55,4.19Z"/>
      </g>
    </g>
  </g>
</svg>