<?xml version="1.0" encoding="UTF-8"?>
<svg id="Layer_1" data-name="Layer 1" xmlns="http://www.w3.org/2000/svg" viewBox="0 0 280 112">
  <defs>
    <style>
      .cls-1 {
        fill: none;
      }

      .cls-2 {
        fill: #fff;
      }

      .cls-3 {
        opacity: .6;
      }
    </style>
  </defs>
  <rect class="cls-1" x="41.9" y="21.6" width="196.2" height="68.8"/>
  <rect class="cls-1" x="41.9" y="21.6" width="196.2" height="68.8"/>
  <path class="cls-2" d="M73.48,21.6c-11.08,0-15.57,7.54-17.23,12.14l-14.35,40.05h151.85c11.11,0,15.65-7.59,17.23-12.14l14.35-40.05H73.48ZM206.5,60.05c-2.41,6.74-7.53,8.98-12.75,8.98H48.66l12.07-33.69c2.41-6.74,7.53-8.98,12.75-8.98h145.09l-12.07,33.69Z"/>
  <g class="cls-3">
    <path class="cls-2" d="M209.27,70.97c0-.27-.18-.42-.5-.42h-.62v.85h.62c.3,0,.5-.17.5-.43Z"/>
    <path class="cls-2" d="M208.74,69.45c-1.08,0-1.96.88-1.95,1.96s.88,1.96,1.96,1.95c.02,0,.05,0,.07,0,1.06-.02,1.91-.9,1.89-1.97,0-1.08-.88-1.95-1.96-1.95ZM209.28,72.67l-.59-.88h-.53v.88h-.43v-2.53h1.08c.26-.01.51.08.7.25.13.15.2.34.2.55.02.36-.22.68-.57.77l.65.96h-.5Z"/>
    <path class="cls-2" d="M225.33,21.6l-14.35,40.05c-1.57,4.54-6.12,12.14-17.23,12.14H41.9l16.23,16.61h148.39c11.11,0,15.65-7.59,17.23-12.14l14.35-40.05-12.77-16.61ZM211.19,71.41c0,1.35-1.1,2.44-2.45,2.44s-2.44-1.1-2.44-2.45c0-1.35,1.1-2.44,2.45-2.44.01,0,.03,0,.04,0,1.34.01,2.41,1.1,2.4,2.44,0,0,0,0,0,.01Z"/>
  </g>
  <g>
    <path class="cls-2" d="M158.51,30.17h-8.39l-7.52,10.64,4.13-10.64h-8.27l-12.76,35.01h8.34l4.14-12.35-.23,12.35h8.13l-.41-17.6,12.84-17.41ZM139.13,64.57h-.56l.17-13.46.57-1.66-.18,15.12ZM127.11,64.57h-.55l12.31-33.79h.55l-12.31,33.79ZM141.75,42.92l8.7-12.15h.54l-9.87,13.8.63-1.65Z"/>
    <path class="cls-2" d="M157.2,59.39l3.27-8.92h4.75l2.18-5.96h-4.77l3.02-8.43h6.09l2.23-5.91h-14.44l-12.78,35.01h14.43l2.08-5.79h-6.06ZM147.63,64.58l12.33-33.79h.55l-12.33,33.79h-.55Z"/>
    <path class="cls-2" d="M98.8,30.17l-5.71,16.48,1.56-16.48h-8.88l-12.8,35.01h6.27l5.86-16.41-1.53,16.41h8.82l12.64-35.01h-6.23ZM84.79,64.57h-.55l1.54-17.79.73-1.99-1.72,19.77ZM74.37,64.57h-.55l12.35-33.79h.55l-12.36,33.79ZM92.83,48.87l6.4-18.09h.55s-7.15,20.19-7.15,20.19l.2-2.1Z"/>
    <path class="cls-2" d="M121.33,49.51l-3.36,9.17c-.36.96-.6,1.51-1.47,1.51-.79,0-.68-.62-.41-1.38l7.85-21.59c.36-1.01.62-1.36,1.45-1.36.64,0,.71.46.35,1.44l-2.89,7.89h7.83l5.2-14.28c-.65-.25-1.32-.44-2-.57-1.33-.29-3.34-.57-6.11-.57-8.01,0-9.7,1.73-11.97,8l-7.33,20.2c-1.64,4.49-.34,7.73,6.45,7.73,7.29,0,9.16-2.33,10.78-6.78l3.42-9.42h-7.8ZM126.94,37.25l-2.67,7.35h-.56l2.67-7.35c.35-.98.22-1.85-.75-1.97.1-.02.2-.02.31-.02h0c1.18,0,1.38.95.99,2ZM114.92,65.11c-6.38,0-7.37-2.82-5.88-6.92l7.33-20.19c2.2-6.04,3.66-7.61,11.41-7.61h.26c-7.5.03-8.95,1.65-11.11,7.61l-7.34,20.18c-1.47,4.06-.52,6.86,5.63,6.93h-.3ZM119.08,58.89c-.38,1.04-.78,1.9-2.04,1.89-.09,0-.17,0-.26-.02,1.04-.11,1.39-.92,1.75-1.88l3.22-8.79h.55l-3.22,8.79Z"/>
    <path class="cls-2" d="M200.22,41.94h7.91l4-11.06c-.69-.27-1.4-.47-2.13-.61-2-.4-4.03-.6-6.07-.58-8.08,0-10.01,2.18-12.52,9.32-2.02,5.74-.77,7.78,1.86,10.4,1.82,1.82,3.27,2.89,2.13,5.83l-1.45,3.7c-.34.87-.66,1.28-1.22,1.28-.86,0-.91-.52-.53-1.5l2.22-5.86h-7.83l-4.29,11.75s1.1.29,2.69.55c1.94.35,3.9.53,5.87.55,8.11,0,9.75-2.28,12.08-8.9,2.13-6.03,1.4-8.45-1.82-11.65-2.2-2.18-2.76-3.1-1.89-5.48l.91-2.49c.35-.97.64-1.27,1.33-1.27.56,0,.83.33.47,1.34l-1.71,4.7ZM183.6,64.27l-.51-.11,3.92-10.71h.56l-3.97,10.82ZM192.54,39.19c-2.14,6.09-.69,7.25,3.06,11.09h-.01c1.51,1.57,1.76,2.93.92,5.16l-1.27,3.38c-.46,1.23-.9,1.98-1.95,1.98-.1,0-.2,0-.29-.01.88-.12,1.28-.85,1.71-1.97l1.27-3.39c.84-2.23.6-3.6-.92-5.16-3.75-3.84-5.19-4.99-3.06-11.08,2.44-6.97,4.18-8.92,11.95-8.92h.23c-7.5.05-9.22,2.04-11.63,8.9ZM201.77,35.3c.1-.01.19-.01.29-.01h0c1.24,0,1.47.97,1.08,2l-1.5,4.05h-.55l1.51-4.06c.36-.94.18-1.85-.83-1.97Z"/>
    <path class="cls-2" d="M107.64,30.17l-12.75,35.01h8.66l12.73-35.01h-8.65ZM96.3,64.57h-.55l12.3-33.79h.55l-12.3,33.79Z"/>
    <path class="cls-2" d="M184.01,50.04h0c-.21-.53-.52-1.01-.91-1.43.17-.05.33-.11.49-.18,2.08-.85,3.7-2.53,4.46-4.64l1.9-5.2c1.87-5.13-.09-8.42-4.97-8.43h-9.37l-12.76,35.02h7.82l5.26-14.55h.08c.91,0,1.19.95.56,2.85l-3.97,11.69h7.66l3.69-10.63c.7-2,.46-3.5.06-4.51ZM164.26,64.57h-.55l12.31-33.8h.55s-12.32,33.8-12.32,33.8ZM177.65,53.84l-3.66,10.73h-.55l3.66-10.73c.7-2.03.71-3.74-1.06-3.82h.41,0c1.91-.02,1.92,1.73,1.2,3.81ZM177.87,45.19l3.3-8.98h.28c1,0,1.48.46.92,2h0s-1.82,5.07-1.82,5.07c-.47,1.27-1.09,1.91-2.13,1.92h-.55ZM178.96,45.8h-.55c1.36,0,2.17-.87,2.69-2.32l1.82-5.08c.71-1.96-.1-2.8-1.49-2.8h.54c1.38,0,2.2.84,1.5,2.8l-1.82,5.09c-.52,1.45-1.33,2.32-2.69,2.32Z"/>
    <path class="cls-2" d="M72.29,45.14h0c-2.19-2.19-2.76-3.12-1.89-5.49l.91-2.48c.36-.97.66-1.27,1.34-1.27.56.01.84.33.47,1.34l-1.71,4.71h7.9l3.98-11.07c-.69-.26-1.4-.46-2.12-.6-1.99-.41-4.03-.61-6.06-.58-8.07,0-9.99,2.17-12.51,9.31-2.03,5.73-.77,7.78,1.85,10.39,1.82,1.82,3.27,2.9,2.13,5.83l-1.45,3.71c-.34.87-.65,1.27-1.22,1.27-.86,0-.91-.51-.53-1.49l2.22-5.86h-7.84l-4.29,11.73s1.11.29,2.68.56c1.94.34,3.91.53,5.88.55,8.13,0,9.76-2.28,12.09-8.92,2.13-6.02,1.4-8.44-1.82-11.65ZM54.78,64.29l-.53-.13,3.93-10.71h.55s-3.94,10.83-3.94,10.83ZM74.31,37.28l-1.5,4.06h-.55l1.51-4.06c.35-.94.18-1.84-.82-1.97.09-.02.19-.02.28-.03h0c1.25,0,1.47.97,1.09,1.99ZM67.68,55.44l-1.27,3.38c-.46,1.24-.9,1.98-1.96,1.98-.1,0-.2,0-.29-.01.88-.11,1.27-.84,1.71-1.97l1.27-3.38c.84-2.24.59-3.61-.92-5.16-3.74-3.82-5.19-4.99-3.06-11.08h0c2.44-6.94,4.18-8.9,11.95-8.9h.23c-7.5.05-9.22,2.04-11.63,8.9-2.15,6.08-.69,7.25,3.06,11.08,1.51,1.56,1.76,2.92.92,5.16Z"/>
  </g>
</svg>