<?xml version="1.0" encoding="UTF-8"?>
<svg id="Layer_1" data-name="Layer 1" xmlns="http://www.w3.org/2000/svg" viewBox="0 0 280 112">
  <defs>
    <style>
      .cls-1 {
        fill: #fff;
      }
    </style>
  </defs>
  <g id="WynJG4">
    <g>
      <path class="cls-1" d="M144,24.93c.73.07,2.08.6,2.62,1.26,1.34,1.63,1.41,3.89.04,5.48-1.43,1.68-3.95,1.74-5.46.12-1.47-1.58-1.47-4.02-.03-5.62.7-.77,1.59-1.09,2.57-1.25h.26ZM145.37,30.85c1.08-1.08,1.01-2.82-.08-3.82-.82-.75-2.02-.74-2.84,0-1.09,1-1.13,2.72-.1,3.78.83.86,2.14.91,3.02.03Z"/>
      <g>
        <g>
          <path class="cls-1" d="M225.56,65.88v1.82l-.13,1.27c-.36,3.48-1.51,6.8-3.48,9.69-3.33,4.86-8.6,7.89-14.48,8.34-1.17.09-2.3.09-3.46,0-6.66-.51-12.48-4.32-15.57-10.23-3.3-6.3-3.15-14.3.45-20.48,4.37-7.49,12.83-10.92,21.26-9.18,5.18,1.07,9.6,4.22,12.37,8.71,1.9,3.08,2.79,6.52,3.05,10.06ZM214.91,74.2c2.86-4.42,2.76-10.66-.3-14.97-2.01-2.85-5.16-4.56-8.65-4.62-5.22-.09-9.36,3.33-10.77,8.24-1.33,4.63-.3,9.93,3.24,13.32,4.79,4.58,12.73,3.81,16.47-1.97Z"/>
          <path class="cls-1" d="M180.09,79.94l-4.84-7.47c3.76-1.51,6.51-4.32,7.48-8.31.63-2.6.61-5.29-.03-7.88-.86-3.45-3.18-6.15-6.42-7.59-2.08-.89-4.27-1.34-6.59-1.34h-17.48s0,32.23,0,32.23c0,1.44.06,2.73.63,4.03.72,1.63,2.18,2.75,4,2.76l3.56.02-.02-12.48h6.39s3.33,5.25,3.33,5.25l2.49,4.02c1.43,1.97,3.64,3.25,6.11,3.25h5.56s-4.18-6.5-4.18-6.5ZM172,65.62c-.89.41-1.78.6-2.77.68h-8.84s0-11.17,0-11.17h8.69c1.02.07,1.93.24,2.84.62,1.37.6,2.37,1.71,2.74,3.16.68,2.62-.06,5.47-2.66,6.71Z"/>
        </g>
        <g>
          <path class="cls-1" d="M136.96,66.44c3-1.3,3.95-4.55,3.09-7.46-.42-1.43-1.39-2.51-2.73-3.16-.94-.39-1.9-.68-2.96-.68h-6.94s0,31.26,0,31.26l-3.56-.02c-1.76-.01-3.24-1.07-3.95-2.65-.56-1.15-.68-2.34-.68-3.64v-32.75s15.63.01,15.63.01c2.15,0,4.16.43,6.11,1.22,3.52,1.47,6.07,4.36,7.08,8.05.72,2.63.75,5.41.13,8.08-.83,3.6-3.15,6.5-6.42,8.18-2.27,1.15-4.74,1.79-7.3,1.8l-4.36.02v-7.66s3.99,0,3.99,0c.99,0,1.9-.21,2.85-.58Z"/>
          <g>
            <path class="cls-1" d="M115.22,71.51c0,8.58-6.96,15.54-15.54,15.54s-15.54-6.96-15.54-15.54,6.96-15.54,15.54-15.54,15.54,6.96,15.54,15.54ZM100.43,79.73c2.47-.21,4.49-1.6,5.62-3.75,1.57-2.98,1.38-6.99-.65-9.76-1.35-1.84-3.38-2.91-5.64-2.95-2.75-.06-5.16,1.32-6.44,3.75-1.63,3.09-1.39,7.23.82,10.02,1.52,1.92,3.81,2.9,6.29,2.69Z"/>
            <path class="cls-1" d="M87.89,47.61c2.36,1.21.22,4.74-.71,6.26l-10.32,16.99v7.73s.02,7.83.02,7.83c-3.12-.05-5.98.59-7.55-2.78-.63-1.31-.65-2.68-.65-4.14v-8.49s-14.25-23.64-14.25-23.64h5.74c2.29.04,4.25,1.2,5.57,3.08l7.09,12.55,8.99-15.64h4.8c.44.04.85.13,1.27.25Z"/>
          </g>
        </g>
      </g>
      <path class="cls-1" d="M152.67,35.07c.38-.16,1.76-.82,1.97-.51.35.51-1.6,1.85-2.04,2.12-7.4,4.49-16.48,4.49-23.86-.03-.52-.32-2.1-1.43-2.03-2.03.04-.4,1.24.11,1.49.23,1.25.53,2.42,1.03,3.71,1.48,5.45,1.89,11.3,1.99,16.81.26,1.38-.43,2.64-.94,3.95-1.51Z"/>
      <path class="cls-1" d="M154.46,32.7l-1.46.02c-.62-1.97-1.71-3.68-3.32-5.07l-.02,5.06h-1.62s0-7.48,0-7.48h1.39c1.29,1.03,2.36,2.15,3.38,3.53l.03-3.53h1.61s0,7.47,0,7.47Z"/>
      <path class="cls-1" d="M139.73,32.72h-1.46c-.62-1.96-1.7-3.71-3.32-5.04l-.02,5.01h-1.62s0-7.45,0-7.45h1.37c1.33.99,2.41,2.15,3.41,3.54l.02-3.54h1.62s0,7.48,0,7.48Z"/>
      <path class="cls-1" d="M157.39,31.2c.85.56,1.95.41,2.66-.28l1.53.37c-.68,1.13-1.87,1.67-3.17,1.73-1.48.07-2.78-.72-3.26-2.14-.39-1.16-.4-2.41,0-3.56.51-1.51,1.87-2.36,3.43-2.32,1.33.03,2.42.72,2.9,1.99.31.82.37,1.71.21,2.6h-5.21c.11.67.36,1.24.91,1.61ZM160.21,28.29c.04-1-.67-1.82-1.69-1.85s-1.92.81-1.98,1.84h3.67Z"/>
      <path class="cls-1" d="M126.12,28.61c.07,1.91-.92,3.44-2.7,4.02-1.24.41-2.55.41-3.9.17.06-2.58.1-5.08-.01-7.63.69-.15,1.34-.16,2.03-.17,2.39-.05,4.49.86,4.59,3.61ZM124.54,29.05c.04-1.17-.57-2.11-1.67-2.44-.54-.16-1.1-.19-1.68-.13v5.01c.77.09,1.52-.02,2.18-.37.77-.41,1.13-1.18,1.16-2.07Z"/>
      <path class="cls-1" d="M131.11,31.08l-3.43-.02-.22,1.63h-1.63c.21-2.6,1.02-5.48,2.78-7.46h1.61c1.76,1.9,2.56,4.8,2.8,7.45h-1.69s-.21-1.61-.21-1.61ZM130.75,29.67c-.35-1.15-.76-2.1-1.38-3.04-.64,1-1.06,1.96-1.36,3.05h2.74Z"/>
    </g>
  </g>
</svg>